<mxfile host="daaad5cc-d884-4773-a82f-ae69ad4475ab" modified="2020-09-11T05:40:24.399Z" agent="5.0 (Macintosh; Intel Mac OS X 10_15_6) AppleWebKit/537.36 (KHTML, like Gecko) Code/1.48.2 Chrome/78.0.3904.130 Electron/7.3.2 Safari/537.36" etag="Zwl4pCDbUGyWbe4AQjtN" version="13.1.3">
    <diagram id="6hGFLwfOUW9BJ-s0fimq" name="Page-1">
        <mxGraphModel dx="1126" dy="680" grid="1" gridSize="10" guides="1" tooltips="1" connect="1" arrows="1" fold="1" page="1" pageScale="1" pageWidth="827" pageHeight="1169" math="0" shadow="0">
            <root>
                <mxCell id="0"/>
                <mxCell id="1" parent="0"/>
                <mxCell id="2" value="" style="shape=ext;double=1;rounded=0;whiteSpace=wrap;html=1;" vertex="1" parent="1">
                    <mxGeometry x="10" y="20" width="710" height="380" as="geometry"/>
                </mxCell>
                <mxCell id="3" value="" style="rounded=0;whiteSpace=wrap;html=1;fillColor=#30400b;" vertex="1" parent="1">
                    <mxGeometry x="10" y="20" width="710" height="60" as="geometry"/>
                </mxCell>
                <mxCell id="4" value="" style="rounded=0;whiteSpace=wrap;html=1;fillColor=#F0Decf;" vertex="1" parent="1">
                    <mxGeometry x="10" y="80" width="250" height="320" as="geometry"/>
                </mxCell>
                <mxCell id="5" value="" style="rounded=0;whiteSpace=wrap;html=1;fillColor=#f0decf;" vertex="1" parent="1">
                    <mxGeometry x="260" y="80" width="230" height="320" as="geometry"/>
                </mxCell>
                <mxCell id="10" value="Recipe Finder" style="text;strokeColor=none;fillColor=none;html=1;fontSize=24;fontStyle=1;verticalAlign=middle;align=center;" vertex="1" parent="1">
                    <mxGeometry x="110" y="30" width="100" height="40" as="geometry"/>
                </mxCell>
                <mxCell id="13" value="&lt;h2&gt;Search for a recipe&lt;/h2&gt;" style="text;strokeColor=none;fillColor=#3c4043;html=1;fontSize=11;fontStyle=1;verticalAlign=middle;align=center;" vertex="1" parent="1">
                    <mxGeometry x="15" y="90" width="190" height="40" as="geometry"/>
                </mxCell>
                <mxCell id="16" value="&lt;h2&gt;Nutrition ingredient search&lt;/h2&gt;" style="text;strokeColor=none;fillColor=#3c4043;html=1;fontSize=11;fontStyle=1;verticalAlign=middle;align=center;" vertex="1" parent="1">
                    <mxGeometry x="17.5" y="179" width="235" height="40" as="geometry"/>
                </mxCell>
                <mxCell id="17" value="" style="shape=ext;double=1;rounded=0;whiteSpace=wrap;html=1;strokeColor=#F0F0F0;fillColor=#f0decf;" vertex="1" parent="1">
                    <mxGeometry x="490" y="80" width="230" height="320" as="geometry"/>
                </mxCell>
                <mxCell id="19" value="Nutrition Info" style="text;strokeColor=none;fillColor=#3c4043;html=1;fontSize=24;fontStyle=1;verticalAlign=middle;align=center;" vertex="1" parent="1">
                    <mxGeometry x="292.5" y="83" width="165" height="40" as="geometry"/>
                </mxCell>
                <mxCell id="20" value="Recipes" style="text;strokeColor=none;fillColor=#3c4043;html=1;fontSize=24;fontStyle=1;verticalAlign=middle;align=center;" vertex="1" parent="1">
                    <mxGeometry x="560" y="80" width="100" height="40" as="geometry"/>
                </mxCell>
                <mxCell id="24" value="" style="shape=ext;double=1;rounded=0;whiteSpace=wrap;html=1;fontSize=12;" vertex="1" parent="1">
                    <mxGeometry x="520" y="130" width="80" height="60" as="geometry"/>
                </mxCell>
                <mxCell id="33" value="" style="shape=ext;double=1;rounded=1;whiteSpace=wrap;html=1;strokeColor=#F0F0F0;fillColor=#30400b;" vertex="1" parent="1">
                    <mxGeometry x="15" y="450" width="275" height="1590" as="geometry"/>
                </mxCell>
                <mxCell id="36" value="" style="shape=ext;double=1;rounded=0;whiteSpace=wrap;html=1;strokeColor=#F0F0F0;fillColor=#f0decf;" vertex="1" parent="1">
                    <mxGeometry x="35" y="535" width="240" height="80" as="geometry"/>
                </mxCell>
                <mxCell id="37" value="" style="line;strokeWidth=2;html=1;" vertex="1" parent="1">
                    <mxGeometry x="45" y="590" width="160" height="10" as="geometry"/>
                </mxCell>
                <mxCell id="39" value="" style="shape=ext;double=1;rounded=1;whiteSpace=wrap;html=1;strokeColor=#F0F0F0;fillColor=#f0decf;arcSize=0;" vertex="1" parent="1">
                    <mxGeometry x="32.5" y="1055" width="240" height="380" as="geometry"/>
                </mxCell>
                <mxCell id="40" value="" style="shape=ext;double=1;rounded=1;whiteSpace=wrap;html=1;strokeColor=#F0F0F0;fillColor=#f0decf;arcSize=1;" vertex="1" parent="1">
                    <mxGeometry x="35" y="1535" width="240" height="380" as="geometry"/>
                </mxCell>
                <mxCell id="44" value="&lt;font style=&quot;font-size: 24px&quot;&gt;Save Recipes&lt;/font&gt;" style="shape=ext;double=1;rounded=1;whiteSpace=wrap;html=1;strokeColor=#F0F0F0;arcSize=0;fillColor=#827E7a;" vertex="1" parent="1">
                    <mxGeometry x="35" y="1855" width="240" height="60" as="geometry"/>
                </mxCell>
                <mxCell id="47" value="" style="ellipse;whiteSpace=wrap;html=1;aspect=fixed;strokeColor=#F0F0F0;" vertex="1" parent="1">
                    <mxGeometry x="140" y="460" width="10" height="10" as="geometry"/>
                </mxCell>
                <mxCell id="50" value="Nutrition" style="text;strokeColor=none;fillColor=none;html=1;fontSize=24;fontStyle=1;verticalAlign=middle;align=center;" vertex="1" parent="1">
                    <mxGeometry x="35" y="1000" width="100" height="40" as="geometry"/>
                </mxCell>
                <mxCell id="51" value="Recipes" style="text;strokeColor=none;fillColor=none;html=1;fontSize=24;fontStyle=1;verticalAlign=middle;align=center;" vertex="1" parent="1">
                    <mxGeometry x="30" y="1480" width="100" height="40" as="geometry"/>
                </mxCell>
                <mxCell id="52" value="Recipe Finder" style="text;strokeColor=none;fillColor=none;html=1;fontSize=24;fontStyle=1;verticalAlign=middle;align=center;" vertex="1" parent="1">
                    <mxGeometry x="60" y="480" width="180" height="40" as="geometry"/>
                </mxCell>
                <mxCell id="53" value="" style="shape=image;imageAspect=0;aspect=fixed;verticalLabelPosition=bottom;verticalAlign=top;strokeColor=#F0F0F0;image=data:image/png,iVBORw0KGgoAAAANSUhEUgAAAfgAAAKICAYAAACc4ugjAAAMGGlDQ1BJQ0MgUHJvZmlsZQAASImVVwdYU8kWnltSCEkogQhICb0J0qv0XgSkg42QBAglhkBQsSOLCq4FFVEUFV0Rsa0FkLUgolhYBOx1QUVFWRcLNlTeJAF03Ve+d/LN3D9nzjnzn3Nn7jcDgIIdWyjMRBUByBLkiiIDvFnxCYksUg9A4E8e0AGRzckRekVEhAIoo8+/y7sb0BbKVQtJrH+O/1dR4vJyOAAgERAnc3M4WRAfBQDX4AhFuQAQOqBef3auUILfQqwiggQBIJIlOFWGNSU4WYatpDbRkT4Q+wJAprLZolQA6JL4rDxOKoxDF0JsJeDyBRBvh9idk8bmQtwN8YSsrFkQK1AhNkn+Lk7q32Imj8Vks1PHsCwXqZB9+TnCTPbc/7Mc/1uyMsWjc+jBRk0TBUZKcoZ125MxK0SCIXfkhCA5LBxiZYgv8LlSewm+kyYOjBmx7+fk+MCaASYAKOCyfUMghrVEmeKMGK8RbMMWSX2hPRrGzw2KHsHJolmRI/HRPEFmWOhInOVpvKBRXMnL8YsatUnh+wdBDFcaejQ/LTpOxhNtyePHhkFMh7gjJyMqZMT3QX6aT9iojUgcKeFsAPHbFJF/pMwGU8vKGc0Ls+SwpXOpQeyZmxYdKPPF4nk58aGjHLg8Xz8ZB4zLE8SMcMPg6vKOHPEtEmZGjNhjlbzMgEhZnbFDOXlRo75duXCByeqAPUxnB0fI+GPvhLkR0TJuOA5CgQ/wBSwghi0ZzALpgN/eX98P/8lG/AEbiEAq4AGLEc2oR5x0RAD7KJAP/oSIB3LG/LylozyQB/VfxrSy3gKkSEfzpB4Z4AnEWbgG7o674qGw94TNBnfCnUf9WAqjsxL9iL7EQKI/0XSMBweyzoRNBPj/RhcCnzyYnYSLYDSHb/EITwidhIeE64Ruwm0QCx5Lo4xYzeQXiH5gzgKTQTeM5j+SXTKM2TdqgxtB1va4N+4G+UPuOBPXABa4HczEC/eAudlD7fcMxWPcvtXyx/kkrL/PZ0RPN6Pbj7BIHnszPmNWP0bx+a5GXPgM+dESW44dwVqxM9hF7ARWD1jYaawBa8NOSvDYSngsXQmjs0VKuWXAOPxRG6taqz6rz/+YnT3CQCR93yCXNydXsiF8ZgnnivipabksL/hF5rGCBBzLCSwbK2tHACTfd9nn4w1T+t1GmJe+6bKbAHAuhsrUbzq2PgDHnwDAePdNp/8abq81AJzs4IhFeTIdLukIgAIU4M5QB9pAH5jAnGyAA3AFnsAPBINwEA0SwAxY9TSQBVnPBvPBElAESsAasAFsBtvATrAH7AeHQT04Ac6A8+Ay6ADXwV24NnrBCzAA3oEhBEFICA1hIOqIDmKImCM2iBPijvghoUgkkoAkIamIABEj85GlSAlSimxGdiA1yK/IceQMchHpRG4jPUgf8hr5hGIoFVVBtVAjdCLqhHqhIWg0Oh1NRbPRfLQQXYWWo1XoPrQOPYNeRq+j3egLdBADmDzGxHQxC8wJ88HCsUQsBRNhC7FirAyrwg5gjfBdX8W6sX7sI07EGTgLt4DrMxCPwTl4Nr4QX4lvxvfgdXgLfhXvwQfwrwQaQZNgTnAhBBHiCamE2YQiQhlhN+EY4RzcO72Ed0QikUk0JjrCvZlATCfOI64kbiUeJDYRO4mPiIMkEkmdZE5yI4WT2KRcUhFpE2kf6TSpi9RL+kCWJ+uQbcj+5ESygFxALiPvJZ8id5GfkofkFOUM5VzkwuW4cnPlVsvtkmuUuyLXKzdEUaIYU9wo0ZR0yhJKOeUA5RzlHuWNvLy8nryz/BR5vvxi+XL5Q/IX5HvkP1KVqWZUH+o0qpi6ilpNbaLepr6h0WhGNE9aIi2XtopWQztLe0D7QGfQLelBdC59Eb2CXkfvor9UkFMwVPBSmKGQr1CmcEThikK/opyikaKPIltxoWKF4nHFm4qDSgwla6VwpSyllUp7lS4qPVMmKRsp+ylzlQuVdyqfVX7EwBj6DB8Gh7GUsYtxjtGrQlQxVglSSVcpUdmv0q4yoKqsaqcaqzpHtUL1pGo3E2MaMYOYmczVzMPMG8xP47TGeY3jjVsx7sC4rnHv1carearx1IrVDqpdV/ukzlL3U89QX6ter35fA9cw05iiMVujUuOcRv94lfGu4znji8cfHn9HE9U004zUnKe5U7NNc1BLWytAS6i1SeusVr82U9tTO117vfYp7T4dho67Dl9nvc5pnecsVZYXK5NVzmphDehq6gbqinV36LbrDukZ68XoFegd1LuvT9F30k/RX6/frD9goGMw2WC+Qa3BHUM5QyfDNMONhq2G742MjeKMlhnVGz0zVjMOMs43rjW+Z0Iz8TDJNqkyuWZKNHUyzTDdatphhprZm6WZVZhdMUfNHcz55lvNOycQJjhPEEyomnDTgmrhZZFnUWvRY8m0DLUssKy3fDnRYGLixLUTWyd+tbK3yrTaZXXXWtk62LrAutH6tY2ZDcemwuaaLc3W33aRbYPtKztzO55dpd0te4b9ZPtl9s32XxwcHUQOBxz6HA0ckxy3ON50UnGKcFrpdMGZ4OztvMj5hPNHFweXXJfDLn+5WrhmuO51fTbJeBJv0q5Jj9z03NhuO9y63VnuSe7b3bs9dD3YHlUeDz31Pbmeuz2fepl6pXvt83rpbeUt8j7m/d7HxWeBT5Mv5hvgW+zb7qfsF+O32e+Bv55/qn+t/0CAfcC8gKZAQmBI4NrAm0FaQZygmqCBYMfgBcEtIdSQqJDNIQ9DzUJFoY2T0cnBk9dNvhdmGCYIqw8H4UHh68LvRxhHZEf8NoU4JWJKxZQnkdaR8yNboxhRM6P2Rr2L9o5eHX03xiRGHNMcqxA7LbYm9n2cb1xpXHf8xPgF8ZcTNBL4CQ2JpMTYxN2Jg1P9pm6Y2jvNflrRtBvTjafPmX5xhsaMzBknZyrMZM88kkRIikvam/SZHc6uYg8mByVvSR7g+HA2cl5wPbnruX08N14p72mKW0ppyrNUt9R1qX1pHmllaf18H/5m/qv0wPRt6e8zwjOqM4Yz4zIPZpGzkrKOC5QFGYKWWdqz5szqFJoLi4Td2S7ZG7IHRCGi3TlIzvSchlwVeNRpE5uIfxL35LnnVeR9mB07+8gcpTmCOW1zzeaumPs03z//l3n4PM685vm685fM71ngtWDHQmRh8sLmRfqLChf1Lg5YvGcJZUnGkt8LrApKC94ujVvaWKhVuLjw0U8BP9UW0YtERTeXuS7bthxfzl/evsJ2xaYVX4u5xZdKrErKSj6v5Ky89LP1z+U/D69KWdW+2mF15RriGsGaG2s91u4pVSrNL320bvK6uvWs9cXr326YueFimV3Zto2UjeKN3eWh5Q2bDDat2fR5c9rm6xXeFQe3aG5ZseX9Vu7WrkrPygPbtLaVbPu0nb/91o6AHXVVRlVlO4k783Y+2RW7q/UXp19qdmvsLtn9pVpQ3b0nck9LjWNNzV7Nvatr0Vpxbd++afs69vvubzhgcWDHQebBkkPgkPjQ81+Tfr1xOORw8xGnIweOGh7dcoxxrLgOqZtbN1CfVt/dkNDQeTz4eHOja+Ox3yx/qz6he6LipOrJ1acopwpPDZ/OPz3YJGzqP5N65lHzzOa7Z+PPXmuZ0tJ+LuTchfP+58+2erWevuB24cRFl4vHLzldqr/scLmuzb7t2O/2vx9rd2ivu+J4paHDuaOxc1LnqS6PrjNXfa+evxZ07fL1sOudN2Ju3Lo57Wb3Le6tZ7czb7+6k3dn6O7ie4R7xfcV75c90HxQ9YfpHwe7HbpP9vj2tD2Menj3EefRi8c5jz/3Fj6hPSl7qvO05pnNsxN9/n0dz6c+730hfDHUX/Sn0p9bXpq8PPqX519tA/EDva9Er4Zfr3yj/qb6rd3b5sGIwQfvst4NvS/+oP5hz0enj62f4j49HZr9mfS5/Ivpl8avIV/vDWcNDwvZIrb0KIDBhqakAPC6GgBaAjw7wHschS67f0kFkd0ZpQj8Jyy7o0nFAYBqTwBiFgMQCs8olbAZQkyFT8nxO9oToLa2Y21EclJsbWSxqPAWQ/gwPPxGCwBSIwBfRMPDQ1uHh7/sgmRvA9CULbv3SYQIz/jbTSWovY0CfpR/AeodbDHp6GCFAAAACXBIWXMAABYlAAAWJQFJUiTwAAABnWlUWHRYTUw6Y29tLmFkb2JlLnhtcAAAAAAAPHg6eG1wbWV0YSB4bWxuczp4PSJhZG9iZTpuczptZXRhLyIgeDp4bXB0az0iWE1QIENvcmUgNS40LjAiPgogICA8cmRmOlJERiB4bWxuczpyZGY9Imh0dHA6Ly93d3cudzMub3JnLzE5OTkvMDIvMjItcmRmLXN5bnRheC1ucyMiPgogICAgICA8cmRmOkRlc2NyaXB0aW9uIHJkZjphYm91dD0iIgogICAgICAgICAgICB4bWxuczpleGlmPSJodHRwOi8vbnMuYWRvYmUuY29tL2V4aWYvMS4wLyI+CiAgICAgICAgIDxleGlmOlBpeGVsWERpbWVuc2lvbj41MDQ8L2V4aWY6UGl4ZWxYRGltZW5zaW9uPgogICAgICAgICA8ZXhpZjpQaXhlbFlEaW1lbnNpb24+NjQ4PC9leGlmOlBpeGVsWURpbWVuc2lvbj4KICAgICAgPC9yZGY6RGVzY3JpcHRpb24+CiAgIDwvcmRmOlJERj4KPC94OnhtcG1ldGE+ClTfzhoAAAAcaURPVAAAAAIAAAAAAAABRAAAACgAAAFEAAABRAAAmp5sm4sFAABAAElEQVR4Aey9fcwjyXkfWAvMrGbsmZVmo1kJY3sleSx59uSW45VtrGJLbklRIp1x1B0s3CW6NixdgI5kHCxegHPAANYfzCEB84cdGsHRUBLQgUQFAWVcuIhBnRVaG+7FXNuiVseVj3syxzbXy9cKx+botkfiq+ULPPdUd1dXdXf1F9l8X74zDwfv9Fd9PPWrj1/VU09VPQT4Y/QjBAgBQoAQIAQIgfsKgYeI4O+r/KTEEAKEACFACBACLgJE8FQQCAFCgBAgBAiB+xABIvj7MFMpSYQAIUAIEAKEABE8lQFCgBAgBAgBQuA+RIAI/j7MVEoSIUAIEAKEACFABE9lgBAgBAgBQoAQuA8RIIK/DzOVkkQIEAKEACFACKQS/EMPPUQIEQKEACFACBAChMAZI7DNljVE8GecaRQ9IUAIEAKEACGQhcDeCH6bgLOEpe+EACFACBAChAAhkI6A0KRvw8O5RvDbBJwuMn0lBAgBQoAQIAQIgSwEiOCzEKLvhAAhQAgQAoTAOUSACP4cZhqJTAgQAoQAIUAIZCFABJ+FEH0nBAgBQoAQIATOIQJE8Ocw00hkQoAQIAQIAUIgCwEi+CyE6DshQAgQAoQAIXAOESCCP4eZRiITAoQAIUAIEAJZCBDBZyFE3wkBQoAQIAQIgXOIABH8Ocw0EpkQIAQIAUKAEMhCgAg+CyH6TggQAoQAIUAInEMEiODPYaaRyIQAIUAIEAKEQBYCRPBZCNF3QoAQIAQIAULgHCJABH8OM41EJgQIAUKAECAEshAggs9CiL4TAoQAIUAIEALnEAEi+HOYaSQyIUAIEAKEACGQhQARfBZC9J0QIAQIAUKAEDiHCBDBn8NMI5EJAUKAECAECIEsBIjgsxCi74QAIUAIEAKEwDlE4DAJ/uSIff5X/zW7zV6D/7J/3/3WJfaz/+svsSevZbuNujg5epb96r94hrHX5Yjpu99l7OYH2D/46FPsQjSg++j55O6L7N/3vsH+hlVhNw4ooXe++gX2G789Za95TVZefZd997s/wH6h9jH2eAnyb4PHWcl6HxXDs01KwTaoPGGx7LKb7O/9g48eVN0rL32HF9I29fvwUqGXaBeCZ5Dyw+iA/231c8Zg+v5FOJnXShucLSJzxk1XzszwhTxGE1ZbxHMuvDhz6DZsHw8TRtsAuseEjpuVAnlVgvw74HHqsu4R9wcyaGyDKqLOn/q1hLL7QGZawUTvUL8LxnRmzgWvbSNAKnvvEjCsx2BtUans7qxwOpxJqwBpYKfFbG3VkSgs2Gl6WC+g16pGcKjA+MAIftKyIjJ6nUhR1sLXHeQvAY9Tk/U0y8mDFNeWbVC4DKaVz7RvO5TdBymPtk1rCfV726hP258oj9vEe3AEz5gJ/cWmUFoeaIJfL6HfqiWQ5uE1MnsnzRLx2LushUo5OS6MABF8YcgO3kOJ9fvg0+oLeJ8RPB9hF1OhP5AEv1nCoF0HI1VL8gAR/B7wIII/L01ggpxE8AnAnMPXe6jf5wWF+4/gkbSs9iQ3/g8UwW9WMOw0MohdqA4fAILfIx5E8Lmr4GE6JII/zHwpItUe63cRMc7S7X1J8IwZ0JvnU9U/SAQ/bpoJ6nhB6ur1/if4feJBBH+WzVoJcRPBlwDi2Qaxz/p9tinLH/t9SvBIVEYDljlweJAI/ryTTrEKm22JvE88ypY1R1EmJ2UiQARfJppnEtY+6/eZJGiLSHch+Id4fBiA9rfT+rvjr7Kfv/xO9jltyPlfVlpj1vvEk6ke7r3wG+zqOz6Z6ib00Wwx58ufYFdCL8/Hwwu/8fPsHZ/Mi2qFjZ0ee/KAEnp89FX2O195mT388MOZgL/KXsfe/TefYtdS1sHvE4+yZc1MMDkoF4GS2qDthDLZyPkye+qA6t526ThbX/us32ebsvyx78LDB0/wHIbObM0+evNSIiJE8EnQHB7BJ0m67XtqALZF7gHwtxXBV1ir+/fY69mrOwH0KnsD+9BH3s222Ldrp3jvN89Uvxm77wmeGXU2n/wKezyh9D5IBP/ib/48e+LjeUfwFptsPsuMlBFwAqRbvD5hd4+O2Gq9YRcvXmSXrz7Krl27svfdAg8Xjy0gDLycsON7DnNeWbP1yZptNt6HixcvI66PsKtXr7BLp5KngUCpNyfHd9ly5bA15j3/bVDg73nkDeyxG9dYcrc8NchyPm5D8JU2W/c+dqZyn5wcs2MH837N8//ExZMDwusVwxp1+fJFduECloXLl9il0y4IKM89x2Gv4N9aFEx2EWXjcnGZULZL5ZXPs67fJ8f3mIN54WBe8HLt/Xh6MScwDy5evsCuXr6613y4/wkeUTUbI/blX37KBzh8KZfg77Cnf+Pfsj/L1YE/Zq//sb/DPvrupK4HYydHz7H//XN/wPK1GI+w9/68xQxFJ/3iF3+TPf2NV1zvXKv9/L/7FPvMM+H0pz1Z9Sb7qeuMvaqk55jdYH/nFz8S2QL2hL3w9L9ifUx4VqPM/Vvo39sC9y579jf/Bfv0xz/N4mIZzK7/Ivv4R3+OPXUThcDf3Re/yD779Ddy4aGT8/Tw2F1WN8E5/7t35zb7g//0LPuPXxqw//CZz7EXMvyZFYu97/3vZ+Z7381+7Imb7Ephwj9hz33hX7HhUXZ+s4ffxv7uJz7IvBz0BDtGeX/nt3+Ldf/N59jnnkmS1mDV5qfZ//w/fYTdPAtV9TYEf+rTdyfszu0pGz8/Zn/4nwfsdwf/N3vmhSQ8dYXCYBXrXeztb3s7e/Knfpr9zN94kl3PqsC6YBLfHbOjF7/Gfu+ZIftSv88+8/QziS7VD4ZZYe9/34fY3/7ZD7CffhLLp/ox5f4067dOjHtHt9nzX/l99syX/xPmxWcwL3SuNO8MzIcffT97/4f+Nvtb5k+zWzfyplgTVuTVLgR/gBvdqFbg4fv2RL8tW6lGds6o0Ba7ZmOcajZRdBvdxkjdRNeBphnGAPO+gBV9klud8ZoDrdxx+f43M6gbSXGE31da3rLH3QzXThMPgN1kTS0WwcfFuA+1irFjnhpQbXZhrq8eQVzhmy3y2w1gBb1Gkd0IvXJQ7+Vf9hqWc4enbYzsTm2Xyw1MB22wctafIvW+1h6UsBU3X45bL9QWJstoQB1lWq6z8vJ067cqjTMblFAPZZtnVlswK1QfVWnC9wLX8Nt8T+eK4Bmrwkyzcq5Ugi/YKFSaGQRfcBvd5jhM8O2KLDQio3e/6pbPOZA/Lgsmawc6Vn7ZWn66drOKLSJjftkY0+EBsJusGRVwPYd21dyR2ONpbPSnGRGLz0WwRHx447waQ3UHQjJq3dPdIrpgXXbr1WkQ/HoGzb3Ua6U8GFUYFtwRNCgZ0/5W24xnt0sGNAdpW5EXKZNKWjMHPfr67aV3A+N2dIvvImGnuTWhO1Hbc4FwsavAtZgvz/U5I3gGRn0QSycRfFoh033TFfgilcuGdjtpe1xNfLgzoVjuuBtpFpFRI0diQ6DDY38Ev54P9tSAemk26/0cRFoESxtGsxHYifjlx7rIBlaxil70xTYEX9nzORWo9art0EkSjX2+awVCCsEc+E179dI7nVFZrdYoQZIiZTJ/mUvqwANsYNgocvhVkTil2yTNcwIIsdcCv9iHHC/OHcHzxIZHuQBE8LIwicKQftUR2r4qF4NafxEUxQed4J1JJ+cuhEXzNOzeqGaNlveX31ll79ROONyG4P3OKBpUwTZ/QUHX3iDmBbRe6TiG8zvRrd1DGsv3m3TEKZQ5w96hw2d3dJqmfZVJXXsHsBjsvzPj5YuNGs98eaBzJfJW9y3r3bkkeMZsmCqAEcEXrZC6Ar+vylWFqdLCPNAEvxyWNKeZL7+5tkuBPtIW7Cu/s2XTN+4R8cp43IbgdyAt3hA3U45vXI0aex8dCzJQr90cO4KuRgWP3N4RJy5ffGS7rzKpa+/mUCshDSrOafdoJL51iRbhbhPAOSV4VNXX+kHjRQSf3aiKQuJddQV+P5ULNyoKlcsHl+BX0Nr3vKumwYpqu2Rm7Ce/w+UsoVzuWw0uEnkmBJ8057qGrp2AhybfojgahgmmaW7VQTCqsq0U0ISu68lep4yiaZHPNZiHBNlXmYy3d8U4owKt/gjmyxWsVkuYjQfQrBZV7RefLhHQCLzEc5HruSV4nujG0JvZLZZZWMnSDGkKNgr7NrLbDynECzxOdBQwssvbUJkwjLR3uxL86eFR7hz8chd1oLGDlX3ids/7yO+85cLyjPaKtFTbuC1Yl0VDuss1sUO1hSyGVYf+eAbOWtXDrF3rezNHpyBIh1GPEGkYzGF9u46DF76BHY/ty6c6fcfboNOq3/nbISvWhgn0FsNiWo9KgQPURBz8KvJRfZf3/kAIftsC4jUUm4KW6ueJ4ItYqouCkH3dE8FHiUgzcshfsThZROUsZrmfjYMgpGg8XvXZTVa1Cm6nDrSbPVz6Juai1jAfdbcaaYWXXgq5zpLgDejORLqEPHu4bkGq+cuMKDvhaxLBF10uy9CGIg2hRb+AkWusHilYr7abNjLsJoznSu9948Acl3xWzTAemXiGjgY/vfqdu25j50haECm4ubdruZII2z6zUgHbrkK90YRWuwO9/gBG4wnM5nNYrlaAGwNFA8j1LDDM5Tji6EAInhcKG7q9LeaokESWs07QyxFgpF7PzQie59YGcEcr9w/NfmDULKIaMmHAF59uPP8iHNxxLFIM+OMODX6lARN/kesGl8/NJ0NUYVWhp2nEc1csd4SiI97TwqO8Efw285vNYUKzgkus6kUbUaujIYtt89uE9nCKjRUvml6no+LmVbGGPYkINQVz+1cHRPCwXsJ0MobhoA/dThuajTpUqzZUKqbG6NLAepuRbExbftyTT+ac94ovEat2wtNuYUmRpAtOReBW5EoQp1O/i7RDvDMzmi28Mq9I6t2ivFsSdyyohBeCyxI+p74+IILHtdUI1KBWfDRv2QU33jhXBB/OvyIFMz4CDocVftqywa/IJXDh8PRPZctfdniq1GWFPaibhTqgmUZoq0FBYz1dR2mb/LZgpCOeLYwHHziCVwuW5n6DnfjVcgnz2RRmC2VkHHG7cZYwHnSgZhUrU3q8i9sFmI1hRCLN47Kv6bR4HUBuS2D5o9xOtwfD0RgWjm7A4YVbVh2MSjluFRkoyc5rxcIRerMFXPbBcAzT+QJWgZYtGks5z/cJwfuN0GZaynpbAYr2SgSvKXnbNPg4MkgYaGoicF+VXWHLDk+Vu5yw57l3+/PKKt9ESJVCf1+0I9yK7QJZPL+rvbBJlCrZoFYG4aghlnB/SCP4bZODGrHFbAL9bqswqattn5bgCxvXxW1q9Mlaw6DVgEYL1dSDIUymM1iggdo2I91y6mBcytW42Py5iqX+3sCOSw1anT5M5svAADwec/E3Ir7iPnH+Ps3TLgFD4colRxmrcavQiIexgqN+InhNthdv8NkW1tBlV9iyw1OBKSVsp4gqlYFZzzFCQiGLzunGN5gpmt/pVsBFVb1awlHBL+O+cBskR2qi7St61ds75E3MBkfxcxgP+9Bu1sFG9X3R+JPca/EupOb3Vi7lTUlZ7kqpgzphcMOh6hZTS0n4xt4bFWjw7XmTlRM6qbTvRNjajxkvD5LgucxF1ZoChFxXInhNsSja4DMQ+8trAkt8VXaFLTs8VfBSwkYjpvxzpYhpxtbHQr7NvJeoBtXVgXi4BfM7ozO3nrQLkZGWcETiyrpuRfAm1FstaDWb0Cz612jBaJFD/RKkbw2L6Qi67QbY1nYqY11e695p8S44go+XoSAhe7sppQ4mSFe0U6rDNftdBfo7bkov4khIRurrgyV42GcPiwheUygKNvjY+21Pi5+mUHaFLTs8FZgywi66hNNqT1URku93bpwL5ndanUEpi6ZTSzjJqd3uyzYEX2lrDBK3iz7R13oB/VatUAdNNPLbXnV4F+0k1gcF5+MSAcj/oYw6mBzbGvoFp5a2w9+AzhZtpZBbxCmei1wPl+AxFUVHBQKIzGtaY1WwUYhu5BIFv1gBjW/Du1t4ctojGk78uWCDz7Zby1wMj2z5yw5PxaWMsIs3ojorNlUq/75oOY1pBgrmd1qdQZHuG4LHdCabuGnyoeCrWb95qsQu2kIdwRed5onbcRRM/BbOy6iD6dE60C9oBCswLXatgL9tS7o4mq8iHs2nzFcHTfBc+mLLwnLOoaU1VgUbTnVHPR3axQroeSL4bPLdHY/sOIrhmx2eKnMZYa9n3UKq69xq0NVoR9U/EbxoOEPXtLZBLRxb3E+7xZekhWTz54yNShWnEIqFpSN4KLgGXmwstkXSt/ZSRh3ME/l82NnL0b2h/KvmPxdAlVmEob7Le3/wBA+4B1PeM8cFEJnXtEpckOD5pjlpPf5RwdOKtBVRyc39FfiCDX7a5hmKvNHbsuUvOzxV3lLCLqpKb+U7N73oiNmKhVswv9PqDIJWVJ6scq7mw9b3ResyJ9CMdG4tyyJ56Vhme4VLy6r1JnQHuKRsJeb4p4U2PdLiXRCf3J3PrUGKeyylDsaDTXyzWky9FQt2ZQ+aFr4vSXGrO1E+EoVO+XAOCB5V9QVHQQKQxGtaJS5Y6JnZCI5CjeNc3FJTWxGVgPdX4As2+Ejw25wKVrb8ZYenQF3OefBFyxMas6V1GIV8s4KjwfghKAXzO63OoFBE8CJndNft9vcw7AYMpwv9kquC5UrbrhRc4WEUGIGuxm2oYMekYtlQqzfcnd36uGRuPJnCfLEEB9eO56G6fdZvXU6F3+HeBIuZv6qhAVU0hDR2POo3Xg/DMeqeBI/pvmW9OxcEzxNRLKMzVPVpjVXBQs/B78z0RXXRL34cobYiKrlYDIciKuniDX4eIlJEd2/Llr/s8FR5ywkbcS14RGhSeZKyLaFRqKHB9cuxqf3i+Z1mUkkEL3MndodkXGQlBV/220raydAPfD0tY9VC0S2U+b4X+rYunOYVNM2MNtifbuAH6Fi15KONy6mDYel2fVrjZkNTPHCm3agW3HCKQXy5arY0DwTBA46TGzkLjQAk8ZpG8KhStf3Cl+g/+t2o4g5f4YI/62+x7S6GWzbB5x9lF2zwM5ZNJRXbsits0fDy41G0U5ncmZoVPWc7YxQ/7xXZh5yrnZsarUDB/E6rM5jZRPBJJR7fFxxt5zlatKypv6IbJjGrrSlL4bQXHdgYtUE4AOVpn/U7iAZ3UF07K1guFjCbTmA8GkK/14W2u1nPIGNVxQq6BSzxzWbxY2MFDwXyFrg5NyN4nqaiFskCmNg1tbEq2PApZG/VUBXVakK1UnDjHSWMcgke11U3lDPBce/wxWyEhyCMNYW2YLpTMUwugUUrbMrx2m4kxcIrgkd5BA/LQfH5PKsJoS263dRuYNItSO5YtuzOTJMh5eY3EbwGYv9VUWzsri6/ZPjracGzN1IGDsvhFgMR3J5av+prA9MtBjZpy233Ub/HXVS32zZYeDiMGT0gS2mLBW905+HBm8wJ7249zo9hvV98qaGQIxpvnudzRfA8QdOioyFNhqUb0hRs+HTh7/Aui+DHhQ6b8dVkZgULsymtuY0mHi0T/RVM94EQ/P7wKJHgEertNm4yoNbs4J7XQxj02sVP6nLLoQ1TYZcVyvJy87soiWWV85Co2z4UHDm7DemW5TpNxKLqdK5xic2o+BEsJ93CamGerkS8d9hvpIplc4inpU3GI+h3WttZoSceZ+wleB/1u1fwMByeH2m0PGrmPwuF5uDTaor7bbX7mcEZlXiy5UEEoqe1yzWxIooKvk2PO9bh0DX65Tb4SdlYrEeerPYW4W81AsmFR7kEj3vLFrJ63qUMqX6T948vN7+J4EWJ1FwLz8Fjx7xSdw3sHDyExlnhnO+oD3Vb6aTHyrDfmU94n9auLAfFbYXUMrbLffg8+Dh2+6jfq1H+EXeQNsOGznAKK3ESJ2pDl6gNbRbKkypM05UBcQDwjZBB+zHj5bkbwbvpQZWnmVCQBRip1wyCL9pYpcZVUM60isjTXs40hY44y23wk8pd2QS/PzxKJngEZHHaDWnqXH65+V20zmSV86TyU+j9gYzg4TQO0MpoZ9LxxnPNi45qM+LL1SZqbUPCObyX+r2D1iJXuhKwydoULZxy+STilG/y351Pgsf07bSPcAbBY1Nc/tr7hEwXmSeu6RURE15K4dStxyy3wU8qgmUT/P7wKJ/gMfNg2Nh+FCbKSL6rDen2C+XmNxF8Uon33m83RZM+Ks9XDrwwWumFgW8bWty4OGebppcTjx7OswxnT+3dqXe22Xajd156BH7pJUz/9dwSPNrtQqfg8iMBVPocvAfUol/cmCkIXyn4Rg3nUNt2kEk6N+q7TIJH8baal1Jk4vE1Y7Wr3AZfX9z2QZr7wmM/smJLiltj7vdgEYarOsaZjWe5+U0En1Ti/fdIoFakDqr1ft/38Y2ONPIuh6cko4XLNvPrqvfT3gF2tvdcD4P8NqAbt5jVZID+lSgb+q/pb88xwWPCCp7UJYDKQ/C8A9HdVW1ld1xjtmmriBFGZsuMA8HpzkcdxjsS5Tb4ScWu9BE8j2gveOyL4D1k+J7kQXkMGoLdR2xGtQ25lipjyWxXCsSXofUigk8q8fJ98WOwk/PHqHZwLXaBtfAZxmyBlOsZtKztVwFllmmzBpO4hW8QvfZmT/Xb62ybe6mHEgcL+nOtlas2qbqXIizdt6x3+yP4whvGbLczWtE1ly5Y2FjloFHEbg2DAhaSIiP41W4Ng6VoRUgtTrz6LOS7+xk7EEN820mnmPFiRoOvl5qTZpFec/4yUT4e+5M1wGY1hVa1CB7JDT4zLDQCmgdBZ98Uz++0OnOoBF9sgxnEN3fbkI2wzoUz7e84Sjag0Z34u8AV2ykzbTlaVNbpoFVwc56Usum3U7X20B3wROPK87yP+i3inQ1x170d2lK13VfvK/UO7MjtrogiTCFvkev+CL7wnI4Nk606OmvoVQv2OC1vZJ0XqBVWymrO0Y5VwzOh5+Eu6qSddwTPjxXMD8JmOUaCyBt2uAJWO9NI8gsa2uCxmuFURoJLeCy2xSqeWFcgknLxANinrCo8Du5/3W3VoWKG80hU7OSrAXatCf3RLOhMquGm3+MIvsgUF2qj0kpm0aVg7cLDuPTUaL8WboMQf2u7cq2NP/GlA6NusxCpGKYNzc4AosfNF1k2XGnlO+dAiu3AdNiFOrYx2w4mTKsK7d4IlmmFR0aYeld2/Q5H5qcV96BPrm/Z9dOs2NDqDmAWnBkQjmWbJyHPNn4f4p4wAO3voYcect+nONH6u19f3n3pBfb7fzBmk+mfs+++5jXsNTyhly6xx17/ZnbLeDv74bfeZNcunX7qT+7dYfM//XM2X7zMXvrmETt+5VX2yvGxK9sjDz/MHnnk9ezRN76Bfd+NG+yNb3gDu3btCrtw+mKeWoznGY/ju3fYn718m/3Zn77Mvnn0l+yVV15hmJPu79KlR9gjr7/BHv/B72dvevwt7E03rt3X+XhqBebMIjphR7cnbPL8hH3jT5ZBPnNxeF6//sab2Q/+8JvZzbe8mV2/cgYNSwiXE3b3zhF7+c/nbPHyXbZardhfvoIyY+H87ne/67t8DXvt9cfYjRuPsx982w+xt7z5BraH5bc0e6/fJ8fs7t0lpvWI3Vku2Te/ydOK9RATK9OKSUYOeO0jj7E3v/kmpvVN7Pv3lN5deJgIPlSI6YEQIAQIAUKAEDgcBIjgDycvSBJCgBAgBAgBQqA0BIjgS4OSAiIECAFCgBAgBA4HASL4w8kLkoQQIAQIAUKAECgNASL40qCkgAgBQoAQIAQIgcNBgAj+cPKCJCEECAFCgBAgBEpDgAi+NCgpIEKAECAECAFC4HAQIII/nLwgSQgBQoAQIAQIgdIQIIIvDUoKiBAgBAgBQoAQOBwEiOAPJy9IEkKAECAECAFCoDQEiOBLg5ICIgQIAUKAECAEDgcBIvjDyQuShBAgBAgBQoAQKA0BIvjSoKSACAFCgBAgBAiBw0GACP5w8oIkIQQIAUKAECAESkPgYAj+7tGL7PmvfJ29hMdc8iMuLz1yg93EY1R/7Imb7Er5pwZuDeDdo9vs5b/6DnvtG9/KHr9+1scwKsk4vste/Nrz7Ot/8hIeT+gd93rjjTfZ29/5Y+zm9SuKQ+/2ENNxcu+ITb/xEvv2q1zGh9l1PNb0Jh5rmvw7Zi+9+P+w+bdeZRfR0etu3GS3Hr+e7BxL1tGLf8xe+ta30Q0P/20YfhyblADoEyFACBAC5waBXQiepR0ijwjws+LTnHjfnCk0KobrVvgJXw1o9mfZ4ZyKCwdahpcuozE6lRjzRDLtNVLwY2BYTZit1ZAOLR1L6DUsbRoMqwGTlSq7d7+eDcD28yJUXio1GC83MQ/OrK91b1h1rftYAPSCECAECIFzhoBoG7cRO5W9cwW8mUEt0kibFQtsywLD7yCIcOqD+TYyluzHgeaBEfy8XwsTo2GCZdtgRTtNRgPmAe8dUjoc6Fhep8nLa8OV3wzlfxWmSgfFmXZCaeZlpmKqYdRgFqQVYD0Lu2dmJYKPBWOn5KJCwREChAAhcMYICP7cRoydCX45qAcNtVnrwsJRWmVYw3TQAtnQV0ON9jYCl+FnMR5Cr9eH0UwzrCwjgkJhLKAedJBM6IwXEEJwOYVW1QwwrvZkJ+lQ0uFMWoF8RrUDcvC9hmHLDr5Z7amPzBIaSpq7U5EPGxi1pXuZ1hW0KpL8a91JgPBy3A46kkatH8IucEQ3hAAhQAicUwTOlODHzYrXgBt1WCQAOG0L1a0B/YVKX8LDBpaLOczn/G8BoT6CcBK5OstFbrcRr7kevfDnsFgsM+URbufoVhmk5ooHnDFU/JFufbDU+9lMwPLdGLWB3s2ObzfO0scf07wsNhQOygCzYRrL3hU0xcjc6rj4rJXRe30QLTULqPlpNZtjL1WrYdBJNBvDWEpnXdEpqBQaxe+UbzEp6AUhQAgQAuUjcBgEz1BFmsBum3kPLFSp2lYVerMwecyH7YDgREIYM6DWGYXIUpACn8/thOZ63w5//33e6M6o6kdww4bfCTGbsMJQu7ZnL2C1xEhwDR3bC6M9mkC3JkfMQqZqaxgbHa6mfagK8vJJiRlVaLeFVsOGSQImQTFQCF7KE3z1b9bQr6MKG6c9qo0eeAjG07GetIPRspBbXA1D2ki0JkoerOfQrvn4iDTg1ajUYbTIEt4Tb9arg8lH5Fbbl02VH7EV6nsXf4CJ6PDhlIMYu4d8YOdtscSO1drrLThjqSHohg0RPG9KB6CZQ09fSr6pAtM9IUAIEAJ7QkC04dsEv7OKfhGaP65AqzeCZZ4hOEo7VtSxbiIUEnKf7W5AGKoaWCTYuxrwa/X/xie2CowU7nIB2UzB9onLrPPRHxqn+ereihghKu/CYXukL95Vu9JQcD3rRshUEqhwz5hGnlguzYMRK/dXqbZw6mAZ60zEvCkyi3Q4k2ZEprD8Qq7GyKdV7FwIbLxvBhiB6pz7NaAzjQIalyT1zVpqHwT+gvC53BvsYPRaDbBtCyzegam3YRzpWEiCT8DTGQUj/FDnRSNYefmmCZxeEQKEACFQMgKi3d4m2J0JHjZzaJhxIjFwxF6tt6A/nMDSH4mpAm4WPUlGOOodzn0iWS+go8w514ee2jpM8AY0ukMYDzpQ4yNaDEsY9NX6YZXvaiSt0zvu6M+BtobgxTsXTLRYnyy4PBtYjDsBebBKy+9wLKXaGUm5OZh5hIyyh0f/+VTGi4GUUWQmJ9eKXYVWpw+TuY7wdenYgLNawUr5c9ZoBxGosDGfcBTtzZJsoF+V+VZtD/20QTjNOMpOmDhQszPh3oGukpcNNy9lB4unUeSbTLcnU11ZdaGScjR/ecSrocTPagutjE6kcvNNFwO9IwQIAUKgTARE27hNmLsTPI91g6RcE/PskjSEYPxq1dEAT5mfHdZNn+Ct+KgbqSYg3Iqn9lUJXhpriSQrpOG7975soOer4zmxeeNWGbYY+fJRfRCfZh45mGM2PYJfT6UqXB3Ve3GqBmH5CJ77W4w6YIVGzxEcDQsN8FSqlTLLdHgSqP9zcpQkWpVTBstB0HHR+V8rhnNZo2I1PnmPHYggjzEt/vx7GGs/jbgsroNGj+2GmEv33gfqeFypUcUy5JUnCwZzZepgOQppIXRpETLtI99E2HQlBAgBQmAfCAge3Sbscgjej5kbao0HPWjWq96cbNAo+42zKZZ5IQmaSoM9mcB4NIaR+zeC8WQsR8hovMftxiXBG9CVa8WCNMupAhMCWzVU3QoDNjtQr+uIUb4z6nEjtlm36pGLT/BSFr3KWI4o8xO8lxA0NpyNodduQtUypYZDwbHeF1b0UuZEUlsOg/QzZoYMHJ2xVOdXWgOYjAX+eB1jfvTlqLgWxBnAnXHjQK+uyI95KJe8Sbl5wTURb6XfByu0ihcFmuEUjaDyWSdM/lat4ZazwK2PUSWwq4iLuL98i8dFbwgBQoAQKAMB0cZtE1apBB8VwFnOYNBtBiNFLqjVmaKzcCMvEqC/mu4IXzbOCcZ863FgaW67cQDMe2J9ORJxYM0l45bEqLxr+ZbbSmIC4zWf4Cctoa3QL/uTshYleCVSfrt2YDYeQNNWyDLQMCgyB7YEiv/1VBn1MmiNAwBcR1JG0dFKvppFNgRaz6ApjOo46XJyFyztxaxoS8Jr3YX0/Zpvz4B4S6nXMGgK3MOy8qkM0yf4VoqR3anlm0gIXQkBQoAQ2BEBwYvbBLMbweMOds1qFTccsaCnqk2jkqykGtUbIUty4sLzTV3shL8K7lLGLdElISWT5iAghiZ2IdaSSOyeMkqUcWsJXkOWQdwxgrekyltJs1RvJ8sqnE97Tc/ArN4PRqvim3odBevJuYaCj3l16RA+cK5ZXTfek8aBwkWQJk6MJm5MlIC/bVWg1uWdshy/iLqcWa3QtIwXgqq9qWnn9wMi9vFWY3bmI2g3G9Bo4Ai+2YYhX0OPhnxCU9OMdGRUv0G4uOJDt7qhSL6p4dI9IUAIEAL7QuDsCF5ZniRV4LpkbuRSKXeOXM6ZJ6/rXoPjOAExS0JKJs1gpI3q6O6wKxt9OXxH4XTEqHsn0xHE7ROOVG8r0wHSOcjpgmRZhfNRw/RV0qgNEC81181Mqq69OfEkmXH5XFVa9Fea+u14pWU67k2gTu0rca8Rf7FUTXmtv0VyF2v1eYGsNJI6LBsYiGWIaMAXNon0gg6IWBnBr+YzdxpH14+UUyL6/BACl5lvIky6EgKEACGwTwTOjuBxdlxsSsKXhPV1rS+mfLPoB2TrjZq5BbcgIT43HIVHkhfjKumcI3g0VVN2hRNq3KgaXYa97Qiep0cYrlViG6/g1r2+uphjkqIxdhMtpxH4fHQKKYq1/EGYunQAjMTGQyiDUZVz2FGE+d4EIg26TpbsLIlplWgIyjPfrjhIM8sc8S8Vq/dgyV4Q3FzmYTAHL43szNgcu2LUmGHxX2a+BeLSDSFACBACe0TgDAke17IrhMIFqTY7MJ7OYYlLtRbzKQw6jYBI+HcxFxzeW9yGgdg2drMKzbWa/gg0GEUHBKdHVO6a5xF8fASrI0bdOxl+EHegMubW+aIDgQSIS/VmC9xZbzqEminf5yF4wOkLoV52M9KsQmcwhjkPD/+mOAffsERnCMMOlurFZZ4FNgdcBlydgDvrLf1wFnjlf3y3wMWKT4rjSF+ZK7ebA1j51m4rPARGjsZV+wWJiXoXbFzjkrwNQzTYGw6H4b/BAIYTvyen7E3AMeqK9+4SSZlWuSSOb+ojcOXufZXDGg+4qctNemqxXfFUKfl9ifkWDZqeCQFCgBDYAwJnSvBc5d0LRuOiEdZf7cga5WGkcyASIq/yAJGAZJEQYpvZqKDi8i8xMuXrrHsxi3s5PaCO4OOb38hAg7gDgsdvziRkxCZlVtOeIasfRXgpm+o/em8rGoFoOpQtYV2ijfpVng1uo4C/kJW98l3xn76uHMNAspZL2PRhBNhgvMJobjWSu9O53zWbHPFuiPipa+G17nEZXq4teUrMNyEbXQkBQoAQ2BcCov3cJvzdjOyCGDcw6bfANuXoSwjFr0alCt2RWN4VeHJvZngYTWgE65NLpdaCqRhSokuxVS0fmSZtieuFzLed9eXA0a4gFBmr/C63hpVb1cp30ocjtoANRs/i2wqPSK2GOhR2s4s7s/lLuvwlfsJ12nWznECrZithqWRp4Ba1XQjPgETTET3RTfUfuVfJ0JnhYTZyFBzkm1GBVn8a2EAkyl6E4NV4MUAHNQWxrX4x/+1mX5NvuKHNpKc5Lha3NW4P8pF7kIjy8i0Ikm4IAUKAENgDAqJN3iboh7gnDED72+ag+ZN7d9nyFYednPAgL7Crjz7Krl25pA1fvjxhd46O2Drw8xj6uSA/H9zdPfbs57/A/sujt9jPfPApdh3l46ILib/66x9m7/zU07j0vMWcL3+CXSkk/wm7e2fJHA8MduHyVfbo9WssC8FCUWgcn9y7w45Wa/fLhQtX2WM3rgXp0Tgv9dXdo5fYCgG8iDE++tgNll5cEB8sK677C5fR/XWWv6jsM99KhYQCIwQIAULARWAbHhbQlU7wIuD7+nrvOfbeq+9iz2AicVc99tmP3ZLJvfMs+/Bj72FI74xVe2zza5VTI0opBN1pEaB808JCLwkBQuBwESCCP/W8OWL/7B3fx/7hC17Epl1nv/CBJ9jx9Evsk5/+TCBNe+qwj90qNn4PPNPNHhCgfNsDqBQkIUAI7BEBIvg9gpsU9MnRs+zj3/ce9rkEB3hYCvuVD95M+EqvzwoByrezQp7iJQQIgW0QIILfBrVS/Byz28/9Hnv2a19nr7zKA3yYvflHfpL9+E8+yW7QwL0UhPcTCOXbfnClUAkBQqBsBIjgy0aUwiMECAFCgBAgBA4AgTMjeBHxAWBAIhAChAAhQAgQAucWgaQFbYJnk76nJXgnK3oRcVoE9I0QIAQIAUKAECAE0hFIInDBs0nf00Ilgk9Dh74RAoQAIUAIEAKngEASgRPBnwL4FAUhQAgQAoQAIbAvBIjg94UshUsIEAKEACFACJwhAkTwZwg+RU0IEAKEACFACOwLASL4fSFL4RIChAAhQAgQAmeIABH8GYJPURMChAAhQAgQAvtCgAh+X8hSuIQAIUAIEAKEwBkiQAR/huBT1IQAIUAIEAKEwL4QIILfF7IULiFACBAChAAhcIYIEMGfIfgUNSFACBAChAAhsC8EiOD3hSyFSwgQAoQAIUAInCECRPBnCD5FTQgQAoQAIUAI7AsBIvh9IUvhEgKEACFACBACZ4gAEfwZgk9REwKEACFACBAC+0Lg4Ah+XwmlcAkBQoAQIAQIAUKAsTM7TY7AJwQIAUKAECAECIH9IXAwBH9y9zb7ytfvMHbRT+xmw1536yfYreuX9pf6Qw75+A67vbrMbt64kiHlCXvpha+w+bcldCEPiOPD12+y/+rWDXZmSJ7cY7cnz7PnJ3/Ejl551RXv4Udez95860n20z9+i125EJL4TB+O79xmf/jiHXaRl8MHvQyeaU5Q5IQAIbArArsQPEO9f+IPBQP+l/c3rBuue+HPvdo92OQN4H5xt1nBsNMAA7EzGqMcqXKgaXhYh7Dz8Q/eGTb0Z06O8Mp1spp0wYzKEno2oTNZlRvpDqGNm2aoHObLgx0iJK+EACFACOwJAdH+bxP8Q9wTBqD9Feo5nLzI/v7FJ9hnYiFV2MjpsaeyBrExf+fzxfFLT7MPvenD7Blf/EpzzHq/9GRGYu6x3/zwVfbxpzOcuZ+rbLb5NXbztEbMd36Xvfex9wfpSZbQYmPns+zJA8jnr/76e9k7P/VMIKrZGLEv//JTwTPdEAKEACFwXhAoxMORRJVG8Hee/cfssfd8OhK891jtztivfeSm9tv99vLkxd9gF5/4ZJCsSmvCep/AsXzqT0fwBrOrP8pG//xz7IWI3+Z4xX7pyWuRt/t5fOmL/4i96UP/VAZeabDRr/4c2/z+v2bv+R+V9+iiNliwf/K+G9LtGd3du/0se/rZP2fsYRQAZxN+4N0fYu++eTp4nVGSKVpCgBC4TxHYheBT9e+IV04V/Ro6VoqK2WxCSIG7mUHTtsC2bbAtCxq9CUwHLaiYQsVvgN3oAVdGzwdtsCLvl1FdxXoB/VYNzJCa24RqswtzVaO9nkED43Pj5fE3+rB2w1pDv2GDxeXBP8tuwJR/QDkbipzNwQzmo44iDwO73oWlPwcx6zWUNAg8TC+N/VlUauXZgXZFuPeu2DHwvjsTqIbU4QyQ4AO/81EXqpapqKQNMK0qtHojFz/hcN5vgmX56as2YTDAdPh4mVYTZh4QwnlwHTcrStg45WC1YLrwQB028JuB8Rkm/hlQbfsy+77Lku3//HwdKr7sbnlRsHSmXbAqoixVoNaZwGLYhmq1BrUa/lWr0B4uXIlm/YbEwG7CdDmDTs1yp1Lcsm7a0B2HS5czH0JNwde06jCcjqFZFXFaUO+l5W0AJd0QAoQAIVAYgfw8HA+6HIJfDsJztGYFiS5MWN25MhPvjKESIS2RiFzXWj+Y11/P+xlhmdCb+iwfjdds+R0PB1oheSsw4l6i7pNkrnryTFphMlTTYjbHcfSDNxqCb/pkuRqDHYnXI3gHulXRIQpjHcSLHSuP2gDGKbLh2BvU7AnEwptZ1w4RfBA2M5B0sSPRHWAnSslb13O5sk3+r2ZYhko76LwM62rnhgFqESDaKRHYp2MgMez5YKxn3XC8kXwQWIjwVdzonhAgBAiBMhAQ7cw2YZVC8NNOmAQsHEVF35lNxdhsPQYrobEUiUm/VmDMCXgzh1qucKow4xwUjRcJ3qP+KMH64UfdJ8bldQiixl1qGtINvaLxe2RTqYTJS4TXRvXCrFuNkI8BtQaOdCMyog2AWy4mLSviXhKa3U0Zga4nsQ6GkEO92q1h0OkqX7YF1CPamaGrxJhHtBs14CmJpjUPBmpaPPcb6NkSI/V79F6E7wJN/xEChAAhUCICor3ZJsgSCH4BjVDja0CPDxsXPan6dEnHJ1kupYY4q50hjHr1GAlZqKofofqeW6SLhDLmEaozaSnv8LtZh8kKmdyZQt1U3TNojJARovFuQfDV9gDGqO6OysM7HM5yDqNOLSSTUe3AdDaF+SpBB+7mmp7gZXqVtFgd7JSsoBlJX8edU8DAUJsSlq0Oc3wdJT2GI/DWYAyjfh/maaKh381yDHUrQ1uA+WNjxw72JFu001AbYH7OOyGsLX+KIJpWQcDR98yowmAygpYdTpvrHqdnop1HPkXjrKbQiE6npGpnEBL6EQKEACGwJQKCB7bxvjPBr6fhRpYL0x6OYYLzoEIwcW1ykuW/KNFyFbH7YRYZkeFI2iWfdWSO2hthR7UEVnvqhsL/m0W0Cm6jHY23MMHXfZW3Xh4e73oaTncwl84/Jv7yETy3S3Dn+6PpQMw5xgbOg4fJnb/3OkNRcjNqg0Rpkj6s5hPod1s4558wFcFtLfYlW2S6xKh1YRjSSmA6/eIVTWsSwdf63gTGOtJRdN1H4mOs6pdR7MKMGqGyLcJPwo3eEwKEACGwLQKCP7fxvzPBR+dAhTDaq1gTHyWBSrKq3J0LxzFr2AjNI/goidsdheAjKmwtweNcrjd4jY6IE1T0KXK6UwaYA1GtQr7GP5o+JOtqFxbLJSzmc5jPFxCa5o6RjzLC98le4m+69gRR0qvjXHXmb7PA0S3aU+BUATei450FTzWOPtdLNEyMqv0tGP9FEfuKYrKllTUD7TLEL5pWkQfR962JP0GjI3gso+HpDhtE6VoOwpomEb6In66EACFACJSFgGjLtwlvN4LPOT8rBHRHk3yUFSX4rJF0AsGvRmHjK8Pu+nPqa+hVw2rX+hCto6PxImH15ytYjCKqfnzvEnbUfaaccYLPZ4AVJ/j0kX+0Q8KgNcJOwGoFy8UMhkOc7hijHcQMrf7nS7cTEyM30SNJLTU49x3pMJg1b3UD9zbvh4mOuasl9ifbZp5s9NZRlgFE0yoIOPperEbQd8pWEcNLBlajC+NRD+zQlBQDEX4qlPSRECAECIEtEBD8uYVX2IngoyMZLohZ4SM+8WeGVJn8u2vQVZg4owToE/BqGBll4UjWxOVLkTnSoGORe+S7A8GPo50FHI3zdCvahXhGRdOXTRpRsmJmDXpI7K1aRH3uW5xH3Qtyi8sSfjNqxPOQ4bK4SiXcgeJ5K9T+0bjKky2Ok1v4A82KJ3s0fkHA0fcCAz3B8xUEUUNGvaZEhB9Gjp4IAUKAENgdAbeNw/Z1m1+qr/SAnfjad1wuFv5pLJFxlLdEgg+pP1NGxkJF3wqRtjevzONaDsPzoUJm9VofeDP8OL6OqPr1DbaYt+Yj/qic3jQvLqtLkGcz78U6NVyWdBKIhpflHhOuMQJT0yzuO/4SwSRyC+eX5mk9jdhFJGBm1Ly9A3gQe5RNl9+udkYRPbpcUWCfhEESwaPKB/p1TQcH81Pgm523imB0SwgQAoRAQQREW1PQm+t8e4KPjsKx0Ys2tDyGRWS+0p3HPYosvQrWNUcJ2IaJO0ke7UzgXK83feomYjUb4GYkmhFlpQaDmW955brE/3Bdec0MN9B2qw+DlrrUzw8fpyBCy/kUOcMb+4TlGbfjI79Kaywk0Fwx3ZGNgmzFYFDjwXuFqwVa1ciI3ScfviHLQNm3ftpW04cqfRXAxAj8D+s5dOph/6LQMYYbCqHqeuHmkxLQ3mTDpZGqihw7FqL7JmKPGl8K7cmkHbYZEHPwccNInlcbWKL9w3K1wNUdbWg0mtBqt6E/WcBqEjGkJCt6AT1dCQFCoGQERFu7TbAPcU8YgPa30xZ52hD3+/L43l3mvHLCNvjv4iOPsutXks5eO2F379xlJyjOhavX2LVLe9jYHU9fu3t37cVx+Sq7irLsIRYP0JNjdtdx2AlPEP4uY5qu7CNNmJp79xy2XiPGeErbxcuPsGvXrqSn69Rk89Je3v932a+/41H2KXefYAM37PtR9r/9H/+SVfAQgC/+ow+wD/3TZ4KoUEOQ47yBwDndEAKEACGQG4FdePi+IvjciJFDQiAHAs/+4/ey93z6mUyXuAcB++itpM5kpndyQAgQAoRAIgJE8InQ0AdCYHsETvAkvZ/Dk/TSDvmzmiP22V+ik+q2R5l8EgKEQBoCRPBp6NA3QmAXBO4dsd/94u+wr0y/wf5i9VfsO9/BwL7nr7GbP/wk+5sfeD97kk6p2wVd8ksIEAIZCJwZwYuIM+Sjz4QAIUAIEAKEACGQgkCSOZzg2aTvKUGynebgRcRpEdA3QoAQIAQIAUKAEEhHIInABc8mfU8LdSeCTwuYvhEChAAhQAgQAoTAbggQwe+GH/kmBAgBQoAQIAQOEgEi+IPMFhKKECAECAFCgBDYDQEi+N3wI9+EACFACBAChMBBIkAEf5DZQkIRAoQAIUAIEAK7IXBYBH/vDvvq8yM2+aM/Y6+8+jB7+GFM3KVH2JtvGeydf91g18vc8OvkLrs9fZltLl70EMTtU7/n+9/KHr9WZiQpmXPW8aeIlv3pmB29+MfspW99m/FMuv7Gt7GbN65kexMucH34C3/6V+x7Xvv97Obj18Tb4Hp87567TW/wInRzgV3a59a9objo4TQQOMF6P31+zF64/U32yvExRnmJ3Xj7O9i7fuLJcuo81rUX3br+WvbWW49j6OX/7h7dZi//1XfYa9+IbUipDdU2sh6zF5/9HfbcHx2xY0ztI6+/yT7w376bXd/bftfbyJjh5/gOe/GPv8mYaJ+TnPNtrxHzm2eG+Qk7uj1lL93BthB/D3/vdfaWJ26ya3mx3nNbuAvBb3/YDNrsh38r6Dfjh6wgXqGTt+xGDxabsM9tn5xx+Dx4HpfRGG0bXGF/Zx1/YYF9D8tJFyz1wBaRR5U6jCNn8+jjwLPSxWl6RhNiXqKn8InwlWuzyGE3eiHo7SEggAcRdRtJBxF5db/WHuI5jrv9ZF0zwTthcrfw4r7xREe/TpxmGxKXg79ZQ9cOt5v8UKf9pFsvQRlvZZ5F0xJ/3hXzxagNlt0uXM6Wk56+LWQGNHrTHDDsvy0UHJpDmJiTcgh+OQJbabyFQIlXow7zEkg+eswnj08cDRpL6R5enHX82yRpPeuEOlymZYNlqhWuKo99TYhgop5MFzmLnXtZz7qhOHTloDGKdQsSYqPXB4uA5ihhw7SgWrWhEipTWL6qPTyfb/ufrGuV0EmS24cY9elA80AIPlxHDSSuClTsTmHyiqbwtJ9lnqnti/7e3OFExiCe4NjxfCldT8NtoVGxwLbMUNtld9NJ/jTaQtF+5ktV2FUJBL+Ehm40mEH4ZRBxkLFKXGWEG4Yo+UkXv9FIOxY2OazT+bKBflUcq2tCd7IMop31G0HBtjrJhXoTJW9NpZJHBFegN5nBbDaF6VT9m8EqerxsIAndnA8Ewkc4G3YLJovwON0dHSl1s9ARxREQZF3bF8Hj0dbjIfR6fRhFj5iOyLLvR5lWA3pljIT2LXBC+DIdJgzwPOnNeg1rzZ/jOLDeofcXxKMZbCSIhq9RYyO0kKgd6YwXgdP1fKgMWC2YJsh2Wm3hmRK8bMzjPTOr3oRmowqGUsmFsPxceO0gbrOG1XIBCzyLez7H62IJq5Wj7f0HGauEn0bw69USw+ThzpF08KxvJyHngqyO3KxXrlyL5cqXZ+2eGS7C5NdVUkldO36a5pimBZ4zrk9TJEY8llyDh7MlO6Lq3PSxiveYV9A0vTxMxhDPYlewdvNSQ/Djpn9GfaEKF0s5vThgBFYjZXoMR5dJJTLUCFb0KtS1g/Vq4dd3rFu6KiTrup7gNzwMv24vluGORhKMDrYzvI3J1wxsYOnK6MmZ6Qfr+xLrOQ9/ifIUaWlWwdQjtpFJSdl47Yk+rRtYuXHnlJUDhO2Mlz6UN5K4jSPazUWhjnlWniXli3zvtX28XeVt5iqh3VuNW97gBNui3HpBZwQVvy2zNQMaRynf7akuE06vLRScKXHJf7fjCN6BdtALUgmejw4VqFdjpUck3TWVCd/lpA+1iHpEJExcrXoH5kpLIguQDFNHTotxF6qmGLlKtzxc027CGHuX6m89bQejWS9uG3r9dkCO3rsqfO2POm7nxTAM4H/8vdWeqEEBrGbQrlmR8IQMBtiYJt2AYbOcQLPqE2WUVPmzaYdG4OFIk54cmOIopdtqwVAF0nWOPVrTk0uHIXcyrJteOgwbmnU/TTGCl2Wi0vKx2GwAz49PEorenzsENtALNEEG9OXgR5MSdGtj3TBMsGvt0NTcEuulnVAv7eYgpJKWdT1M8G49sf1yqdQTo1LDMh5umIVK1rAa0GmoddKAzvQOznv7dViUWz8182E7IAOv7vN6YkCtM4p3bDYL6Ii6ocjD59Dr3XE60a8n2naSx9me/AV0LC/eRgfnm9Ww7a6P1QYmvWaknfJljdhBCCyYhW1BvxUbhFXqPUzbBkatuF1VvrlpHCNPfOLFwVwhkxvEkNt1aAeGZhX6M5GvYS1SkDcJHclQ4cTppXrFdONoT0R40oXKAU3NSPQ020KRLild/rvdCB5HhKGC5hc6qz2NSbAcNqFi1aDV6cN4Gh7phkYDasHV3RsNEO2JLEC8EHt/YXJyoFdPIUkl/EZ/FsisC1eEH1yR2P48KMD6+Ffjtr6QKvF64VVguJQEuFkMNJVUxhHIgOG0lE5SkIDCN2sYKfPqdldiIYJS86iFnbdZJ4HgN1PZSGFHoKp02vj8bKsfLxsiDrqeEwSwcQxsbqzk0btMjSzb4h1vD9RyzNxOcriMV5TOsqyTkiw2836knmBHO1K3WiM5DSXDCMfDybq/uBuobNU2ZKzUC1deHYPEqwAAQABJREFUvyMfyB6QK0/ZCtouCcvwzYj7qqZuCUwACV7XnvK4WkjwUqUsw+ffjNoAg8Dpt7oZwlQMOgJZkcwFGslYhMMO/EZw7UzDg6IgDcqNjMOCSbwIKC7V22WgSRRxx9LBMDw3ejmYEG7da2zQoYaf737aFh1AE4bKWJX7Pu22UKQtn+RhVzsTvFBzCCH4Va/SCEcsn5Ln8OMZ6xW+hl9pZQGShVKtnNNOunWvKjO/F4VWF27UbX24VHqomvgVFVDYr16TwMxmUPkmLVG4RLh8pN9I0HDUgg6PxDTf3XrWh6pthRtJVLdGyjN2xWVHzqzzxgQgkDFamRbRRlekQV6Nqhhx5JOTXB0YAlgeRL0PtDSFRFQbcQsGigorNG+PZUuURVknBcGj9bIpy5QcTW9gNlBHpFWY+eQiw+D+0Eq6O4TxoAM1XNmzxjGw0EaKNmSz6EnCNKpSI7DGUXrVDL7xtsD9rYZBXap2xhim91svRlAVdkq6VSe+O37hiq7FUNjDyLlrPmcs5HPbE9RCDMdj1ETUoIcqZKnWx7SZNRj59hAb1CC2fM0E9yc671EsWoOZK68zG4Q7GTzdbv5wXIVcqPnMYRSnxlFttqDdbsf+WqhN7Cva3tVIxmGhFmclOgbrJfQUrUtI+yvU6diGLhDA9Y7awvW0KzuKZiNol91sOoO2UPCHUkxy3+5M8PEepwVjUbLziMHVUqLwYwF0E2PUQEx76Ob4ReFSC5AAQVTOpN5wBVXi48kAakrjIPwy7I1z0XXhem5QzeiqA2swT3An4g/moUWa8Gqi2stVBqEKqq1UOhG/MEIKyDPwa8HQrbBrGOBSxCqSfavdgW63B/3BCJTBfx7EAzfLYT1opIQMXGUXXsaoLtmpBY1lIGOE4NUKyrCn3e6PXJuHUa8VNH48rmqPI0i/c4mAorkT5b1QOhRVtK4czMToSbHhkHXSI3h1br/Sihu2LgeybNcHns5PhsGn0qYRkSWBijQFalgsx/G5cOme+SrhQO2N5bs5FHpGL5rFoInW8FVo6tT6UUkCzaDozHAHSnzM9kewwuMap0H8thNljavDF1AXbSyuYOKSqVhE56AnLan17IrekRuVNEwTGAkJdFc1jqB9Cdo0IW94abO0Sq+6bWw43GnQ+VAJPohHKS9hf/mfolqh8GD1bNpCgV3+VEiXeyD4uEpDRpdxxw1H0OJ6MpnAqN+FejU6kvUKhShcQcYqhSb4JgwvlG9MVScqjZQAkBMSrxy6cLlRoN9OcG2Y+9O58+IPjy5E+K3RDA2B0KocDUZGohFT5BOyj5UKJvyKq2FWwK7Wod0bwjzo3mbgmvB5s5rCADsIE5yXb6rzmIo2Yd6Tc3BCw8GDCwg+UqkWI8y3WhUsqw6xqa3lMBj5cY2FGJ0liEevDxUBpe6IMruLqBs0SOOGtdPJCHqdJs7L+42/0nmUdc0jPakmTWpv5gGpxQcEBnRj1umSQON1GLUM2CaNR2MYuX8jHCSMpSqZL/vlAGDHRWg2eH3lU1KNdhenJBeiycgFUzStnicpX3zJoTSQNRtDbRyLfs3vzHuGezIOBt1ZeEQW1G2/MyADlDLkyXc1Dt5uWRVc7hf9M9E2oRefEvTi3ICz4saTUxgNetCsST7QErxSXqTM+e/Ws15oEFKLyHVWbaFo+/OnRLrcjeAVVZ0Qgl91m5jwtdEmqsWq9RYMxrOI5aoDo24rNF+rhhe9F4VLLUDCTdq3WsgaSBZW4de17E8ieDu+jjc5fl3Ysscq4wu/E+pOdSSQ5Fa8T64cMpPz3W1gUDeDEX2Ls7NqC4DzfFz15S1pWcOw4ffy0SZi7i59Ebq09NhGwh92mOKjonS/9PVAEFDqvbn1xlIODDsNqIiRJbYbokwHV6XBlnXNI3g5/ZZUjmQdjLcJOi1j1L18DuTRyei+k5vQTLuyQxz25xvUuiq89HyMptVzLeUR7UQQimITITozwTf/Zh3RCsg44lgEBB/pvKtaBIFpNB71WcaBeRbuQ6jOYvcOLlNr4Nr/MH7h8lE2wc9Rw6LGFyX3s2wLhVwxoHK82I3gVYMqpfDrKr1Ud8mM8lRDyk5AShgiUaamARCFSxYgGWbat/pAmJhwZGSFEXGlEXysUvEQgkoTjV8XtnQj44u8U6w/uYWxdre5GEZoILStjj5aQBS7Aa7WLLITFR+R52i7YN6TI4m4KjEqED0fJgKKhiqHJmbujx65ke3AXb2B1s+BSlnWAT7KqzYagRqWpRC8Wo70HUVZB+Ntgqr6FghH3ctnXl8t28bpOf1fhWurFAJzFhPoNGsJnRc5zSVijl5lu6LKKeUR6Qn8bWbB8tXiBK/G4YUYELyCv/clRYZAGHmjpkOfR9KtuHMim894baXhGmg3E+bgg3hi8opQ06+jVthWqxWZXuG+z7ItFHyRngr9190IHsPUETcXqN6b+GqpNUy6cj5MCOu64SSiIUlOtK3+GJa80qziFuWigOv8Bt90Knp1FL7RLUmx3V3c0sJVYUx2J+eq1PQ2ME1TVO2NxxN3GoJPRagbwMwWUaU1rr2dTWDQ70On3UQNh75Xq1vGocoZ3KOK3FuWlLCBhmLFy619CxVq33ho1MaGDZefVNCQTmnzAhGkbYJurjBwRjcHjkBAAljX08ufVB+7HWgs4qF6g8Zi4/kytPZ9LoxjlQZb+vEIST4nq+hr/uBAkJ70Eyc1tcPvtSGyDntW6roMQdM83KRF6q64ShnXjCsb/jjLOU43tuW0A8crY+WLXs40cpXfiqvo41gEeavg76VexiPaWR0q4p0+HeKr7irD5+1mo4ccEFr7PgtWb6gYBvEoAyRd6Lp3o5BBcwX6seXDnq+zbAsFh+jkz3q3M8Fv5mnbksaXrQhhmW8oEmQOZqj4VmmKteQrtFaNW52LwqX36xvcKKNRES6/2s0eEiyqgKx4uGKOPjVcBdE0d5LIZLq4VahHeg4ay+E6Txyx2Gh4U0OjuSZak/b4bkrrGcpWAdNU5FPmwnTqe7WwK+LFb9HCXSwjEhiqjtQ5JneahdtEoL1A9G+5WihLcmowWS7dzTx4WL2qSK9GdYojjarI5y0qoyor3Z8xAku1420nnmEwCzQ2YjmXSvA6ckYLe7G3hqIilnXNIyR1nbLVEu2FxEQ1smv4Vu7RMKRrfifJxasb4V0fQ7N7rkfpnrdlfNWYOs+tjuhd5zhQEXUvq77q5ZTxxeuuuh48rnJHyQJ7BIZTalyPqY/DlVTa15wBwYulgGY9bkugLq0UBslcYpkWXDHhJSHX/1ILhG2WWU/fovsM20LBX7kSFXG0M8Hz8CYagzEhVNJV7PGb1DOqRJdvCWLAq1CXy4wVpBLei34aXcOqhKGTSxibZIUrMEx1h6NlMyO+qAw9t/eIlVHrD9WXaLwWD5Ov4ZVjCCGb/qouT8KRBK5J93xuYKpsVctYthox6OUrjTCPU21YGY7Opv6etNygryEabkxfsLRILyi9PQcIBGXALa+47KwzgDnfiQ6N5pazMbSUpWTeWnOvtKl13m7LzV82zjy0/IwbvQqilHVNjDiVaQKMv4abyHid5w3Mh+oyOWlxHg9DBTlOoOE94W25nG+zwg66NPgym94BV6p7s4abcokd4TZL6Cvq5U7EqE2Vgt/r5YzLp/pzVI0lLpMbu+pPtAdGTNUVO2Iban0cXohBvp46wat5WsU0iHYN8xQPkxEdJN5uqhuKybRgmzaY4C6hOt2hihbeK9pKHp7dwSWToyEMh+G/wQCNmTPmHgO89tQWCp6IpCDXYykEj2jhiE6vPhbCqddKcyjVWo5OVS4JW/UX3KM1PMdczVjxLdy7daBbMwPNgHCju9YzNroJh+thmxW/2uPUxam+U5fVLIN1sBk48ILuNy65chsdcWNHtaLwhjf8zHfNyijRGE5QqLERCE8sxOdXDVUbgTKb9b7M/7yCk7sDRAA1bJrlnmq5Fvdq/VL3VXC/4y53fFpHuJVXXAfum83IuiY1Q9ElTdKfrDdN7UY3MgwJqlTJq3V9KLZdxnKrC1+svPHCkSSsd4thWO1IfZESiDtdWrG1Cza6UeUTfrw2WIehIjcSkLBC0sfhhRYsk9MQvBhh62WQ0vC7tDjCLuXTOKQyx7YCre5NDfbqCF/tMHq4i06gDDd6N+uG590T8wvjzjoYa99toZAtmoY8zyURvBfVfNRL2IzFK2RGpQrdUXz9M98IolZRVNIiQ40KtIcT7P1GOw9ez16nrlZ7dgKAOS7dStoSs1LVbFU7iW5Vy3t4UxFccM0T/2qavgVvpYobVigbfYjA3e11dZj42Bi4VW17UEQhJULGpgDxrmvCNtBYaBTZtlf6Ct8F61X9zlb4K1pI41x8tOPAOxP1rrDNCPugp/OKAGp/hh2wNeWJN0yVKh5C448m1RTyDVWqpkI+frm26l08J0JutiLWsEuVvByRu+GtcEtndYmnqB+4VW1/Gu56yvqqU2Ovg85KVOXPN85Rl7+JBrdSa6GGSowy/dTx43PrevLgR2ULglWxiN7r0yrV8Lo2zgsjZavaVj/UsQhhEenPBysUYtNofB24105HMYqmgT87QTtaxN4Gpy812+Myw4Iurr4aCs2JMm3JdxDs1lSO0HXgwhLOElc7xMtk1oBn322hKG/hFOR7eog7wwC0v60Pmj++x+44r7D1mrHLF07Y+uQCu/rYY+zapQvaeMTLe3eO2Gp94j5evvoou37tivhUyvX47h2GRht+WPlkKiViDOQEMbmLmGwwfTyFFy5cZo8+dp1lQOL6c1wsPX/ok1199FF27cqlnUVz8d5cZBdOEBPE+0bJeLOTe+zoaIXp3bDN5jJ7w5tusCvpRWDnNFEAZ4fA8b27DA+Gcsu3W05z1Pm7WOcdXuf9+rBt+ZB1+wLz2o7d60cYyRN25+gI2zL+ltdBbM/ShOVt4ArbwBMvbY/lqOvh+HZ5OkZZl66seduZXWLbi9/ju+xo6ZWlvFzA21hnvWEXL19lV7Ia1r0InRLoDm3h1jyM4uyH4FPSSZ8IAUKAECAECAFCIB8CRPD5cCJXhAAhQAgQAoTAuUKACP5cZRcJSwgQAoQAIUAI5EOACD4fTuSKECAECAFCgBA4VwgQwZ+r7CJhCQFCgBAgBAiBfAicGcGLiPOJSa4IAUKAECAECAFCQIdA0oI2wbNJ33VhiXc7WdGLiEVgdCUECAFCgBAgBAiB4ggkEbjg2aTvaTHtRPBpAdM3QoAQIAQIAUKAENgNASL43fAj34QAIUAIEAKEwEEiQAR/kNlCQhEChMCDhsCd28+xL33pD9jLrxyzRx67xT7w4f+a3bwW3r7xzle/wNq/PWWXbn6A/eJHn8J98fL9jl58jt3+FmMXNc4ffvh72et/4C3s8eu77v55zG5/9Wvs6FUvng17HfuJp26xS8x7fwff85987z3v8v+9l15gz8+/zS76CdOHfcJeeuErDJ156d9s2MM3foQ9efNa7qiP77zI/vDFb3nxoP/X3foJdut62Tsepovz0rOfZ//mmZfZEx+w2EeeupHu2P+6C8GXuhc9zhHQjxAgBAiBBxKBiTjH3t8PH9tn3AbcgM5U3ex9DjX/uzgVMx9YDjT98+29cON7prvv8SS5Ue7TJTUxO+PI4S4mjNyTvUb695ogir6adeTJfCJt/dim/fIseOHG1BwTnBb3uGmGDgwyGt4pgGl+yvq2Xi7cswCm/smrXt7jcdyacxqicYr0Rt/neSaCz4MSuSEECAFCIA2B9VgeSGNUodNpyMOW8NAWcYCpPMUMzy6PnFOTFjw/Ta6tHLcsGn39tQLDGEGmhx58dRKIHNNnhTou2Se2BWFm3WCc0cN87G74IC15AI/o2BQ5JtsTIDj1TXSwmuMsyUr6jof0WFxupYOBh+e4abZ7mSdrijzeRhgi+G1QIz+EACFACCgIqARkNjhxbILjXd0jZTnDK2eQ1/oLxXee2yIEj2RSzSYOfax4EmS3gx0U/6879E6h2yfBI1a9auQ00chJduPosb2R7/q0hN+eGcEjdmaocyQ6KfxagYno/YXFDZ6I4AMo6IYQIAQIgdNHQB6/ysCoc9XvRhlxYyOOo/Vpyz/S1GjkOjY2nIo4wZv1AcaygcWkD3ZMfa+OsNcw6behalXAUN0ZBlQsG1p95QjnzQLatSrUajX3r1prw5xrGhIIftZruGHYtg22ZUGtMwnE3izwSGB8F3xrJ4+YdWe6j4LTfpfQUOVGshQdpPViDO16FSqm2kEwwDArYONxvpOlVJMkETxPg4U4cDmtig29mce46xniWpHyN3phrQI/hrxqKaNynI4xrSq0eiPUt6i/DayWc+jVPGI3EHeXtOs9mC2WgXZH9aHeE8GraNA9IUAIEAKnjYCq2q40YDTqyFEbH23i3LZQQzckcxWQMk7wFUXFvJl1Q/PLnBSaY86QGxjUVRLySEaQhrhWWj75KnJ63/yz1RMI3hm3wvEqnRc5HeHFWY2o3cOJl7YJQqbawNNybBY9Od3hjoTxfHnk4M2iH3mvS5vs6CQR/ER0vNywBW44KRJJmxng7UC3qnYoNPGaTVB1NM6k48pq+HF4abRyTaUIPMJ45XsiFX0+nMgVIUAIEAKpCIyiamS/MW9PlzBqmB4RbqFa9iJNJ3hV/S8IwSX4ZT9MwChTpVqHZrMmOyCunJanKk4g8qQRPKAuomGqBGdAzxvyQ8eddxbfJNEmgRhTw9td1+ksYrxo1Pru+35VhC2uFag3m1ALjaoZWG1Pq5BM8GEjP69jhAQ/CXdeRIdq1q1GMDWg1qgHHTiBv3DPhV3Ph1B1tRA1mC58mwPsCIbsL91Uxf8T4cW/ZL8hgs/GiFwQAoQAIZADgQ3MRz1o1lG9XUU1d6MNY27RjiQrRm4dblnnzGHQbSPJNqHZ6sBoFuiiU+LIIHiNoRonqs1qBoN+H3o4r95qNlB9PAZn48AM1ctRoznXWr4wwQPMe7UQ4VkdVGVvJmHCq/ZRl5D+28yjI3UbDREd6ESMC1tjrgDfYBoG0O/1oNNuQaPRQqwdcJYz6DbChC2IthyCX0Ez1KFhuErCn0RfDoJ89ki5DnM1yZslTP28XkxnETW+6jB8TwQfxoOeCAFCgBA4EAQ20LX9ESaS3CpBrWwrc9d6wTMIXjHgE4QgRqLYo4DxoOt2PKzQXLUY+fKrP8LeguC59sB2tQB+eFYHZhH1tpRFnzrv7UoxTPTCamDHJNwRqYVIc72YQK+No3bbipCrTFupBB/Dx4uHz6uLTpzAn2PqdprSkpzjmwgvh9OYExrBxyChF4QAIUAIlIOAtK43YLBc+culOCkY0EBL9WowGjRhmDqQ1xB8Sxq0OZN2aBTNSaE1wZHuahQhSJ/4IkZrOxE8QhWdnggZ87EwKachu+iHtQGC3MQ1sBXAQMat8EjdcxOfGy9K8C5uGP5q1Ahh6oYTs1GQHQkho7z6ewikJTjHNxFeDqcxJ0TwMUjoBSFACBACZSDgBCNSoz7EABVDMjRG44pdsfEJb8TTR7lxgmdWE4ajIXTbjch8Oicdb049RpjoZ+JuriJl8whkhxE8hypBM8HDFgTLnWX+UglUzO/zUBQsMQ4eT8NfDRC1yBfx51XRVxoDcNa4msAKdxa8cOIq+tZoAc5qBcvFDIbDIYzGE1TFz2A+z7aQz8QDHXj5k0rVicGk+tol4MQY6QMhQAgQAg8AAqtR02+cceMZd3Q+C3axY2UQvE9sop1Wr1Z76iIcNVwz7DZM5xNcCucv2QvCQMt0PrUdU0FnEH+Qj7iZi5iKCMLkxKuScuA45WYD/VqYWIN0VVremnzuO2ZzYEBrOIXJsB2e+0dZxKg/ieCjGAXxhdIhOyrRcBjuHthDYm9FMd3aoDIMj5An/DbfExF8PpzIFSFACBACBRCQa7cFwfC58HZgMGZAs9uFmilUvNkq+lbgV/jRX41qNzDgilqCC7KIX/2d4WIjaH8eOem9gkh0WZkbh6mQsuI27TZJ5mpPNVmLaiD0WHAZuNU9N/CLLocTI/uk+KIYCfewUTpqkU6A6ie8RXFaitO/iTDTXem/EsHrcaG3hAAhQAhsjcCsJ5ZS2aGdytaa9eq8Abf9pVzJEaI1eWjZWZjQDMMEC5e/dYfhzVi4tfm4Uw/UvIIszGoTep3wfLe7Tn09DRvMMV/+pPchgWWnRsQTJuWQ45SHBdRjNgJW3GBtNYZ6JTraN7Hj1MP3Kj7etsDTyHI7u+NpOTyMwlgww4b+CDe6UQjcUmwewJlCqxrVgnhxmlYdBrPwVjcpic38JLDMdKhxQOfBI3r0IwQIAUKgTARe+MKvs38//f/YD5i/wD727sdDQZ/cvc3+Y/9Z9o2Xl+z40mPsXX/rZ9m7b10PuSn94eQeu3N37QZ7+eo1duVS3jPssiTBU+Ze+GN28Y1vZN8Z/1v233/oU+yFwEuFjZwee2rXA+6C8PQ39+7eYesT/HbhMrt27Uru0/lioR3fZXdWGNBFDAdP5cuF0Mkxu+s47ITHj79ysfXC3OU0OSJ4D0P6nxAgBAgBQqAoAveeY++9+i72jMYfqsbZ5J98UPOFXhVBgAi+CFrklhAgBAgBQqAcBE5us//l4g+xfx4LDUfvKxy95z+uPRYCvfAQIIKnkkAIEAKEACFwBgicsOc+/6vs3/3hX7DvfOc7+MfY237qZ9lHrQq7uWfV/Bkk9kyiPDOCFxGfSaopUkKAECAECAFC4D5BAG3ktCkRPJv0XevJf7nTHLyIOC0C+kYIEAKEACFACBAC6QgkEbjg2aTvaaHuRPBpAdM3QoAQIAQIAUKAENgNASL43fAj34QAIUAIEAKEwEEiQAR/kNlCQhEChAAhQAgQArshQAS/G37kmxAgBAgBQoAQOEgEiOAPMltIKEKAECAECAFCYDcEzozg7x3dZn/6Vxt28WLBBGwY+57v/yH2+LVcmwHmCPyY3blzwq7j9oKl/E7ustvTl9lGJGyzQXnfivJeygz++O5L7I9f/k5OTBCIi29kt26Wu03lMW7deHL1OruyA7wn947Y9BsvsW+/ypP8MLv++FvYzRuRXStwm8Z7x/4ejWnIXLhUYGvME3Z0e8peuvNtN8SHv/c6e8sTN1lpRSVNTvpGCBAC9w0Cd776NPutPzhily5hu318jNsCv439Dx97H4u0YozhNr4vTb/Ovvb//gk7+stXMP2X0M/D7FHcfvctbzXYE9g+65rSY9xy+Pee/X32jSPPz423vZO9730G07HQvdu/yz73299wsf3rH/kYe+pGNpeIjNiF4Hc4bAZP8zHVDf2L3RuNEVr97/6bj3tgczmMpjxKcMdgo+cJI9CQV95x04wd7MD9J/6VKDc4c+g1bTeuxsg9n3ILJJbQa1haeQ2rARMl2LzHLPKzqcf88OuM33LSAyt2yATHzoBGTxwMkREIfSYECIEHHoH1rAdGrN01YwfWLIYtjbtIe21UYbTk59HJ36wXP8DHa+NtGC7CbgGW0FTatX7suwxXdye4Q/ct691OBC+PPowAEgM2/j04ei9LwoTvCyT2qqmEi2cFl3V+j+74wLzyxs4KzsKiDLnXC+i3xOlVHibNscLECRjGX0dPrDLAsm0wQ2mowtQn6/ydGf/IyXiEwZv1tBPqVBgVC2zLDL2zu0TyAWB0QwgQAnoE8GhbK9RmCZ7wz7b3fa3GrVD7IohUf8XT7PwmdbPoRfxFTrQzw4PN5UB2BswtBrZCHn1i09/uRPB5zycWAqrXvISpFX89jpAOZmAZROlHdqoEX8IIXke02xC8mm6j2gHZaV3DsOVpBngeWm2PaNfLOUyn08jfDOaLaajHWs0kZvVsZxM640WQ7ev5UDmy0YJptHMcuKQbQoAQIAQW0DAFoUevKsGvoJnoLurPe674x8WGB3GednI1bCikb0BvLhqqOdSCzga63WIUKnhzm7zdieB3GcGbzXFI3vVqCfP53P2bzeawdARAIWfegzOCSgCanxmRXlPY1wbWzgoWi4UbPr8ulytw1vo4VKIT4ObtkIQzXxaUWrMJzdhfA5qdEfgDYinyZg2r5QIWLh54XSxhtXLwZGf9T6cq30ZFL8OxNUSqVAirE5dZEW09aQeFHU+USpQ78KLkpzyjOfgKzqgZhNeexmuIg1i5ZQdximEpg6E7QoAQuK8RWEO3GhlNh3hCIfiVhkMYH1wsEaENTDqR8+F5ONju8dZn2paDHcYa7tTwZtYN2ijOGWKANetKzaoYGBXNAsFBRf1x9zsQPPpeO7ByHHD8v/V6Dg1lrkEIZtYH4CBpCXcOkpXg1sW4i6p2faaYdhPGi3CTPQmBKwlUxMWvHUECmyWqrmvx0b6a6aYFneE8hF3pBF9pZ5McSrCc9KEWUUur6eL3Vr0DcwHJeqKMbvVYMDudjNWE83klk+ef1dZMd6yhY/lxpHamZkqPFTsKQlY1ouj9egr1iunOhbUncQJfT2WHoSn0ZBjGatoPT9PwfMX5snZbqMRsmOSJPyoPPRMChMC5Q2Dc0tsOyTZUEryjU8/bPZnmzTSu5jdbLpmHBnGGT/CRKcama3Q0VdrnKsySRmgyVu2dkF/7MePlbgQfC9wB3ai+0gqP1j1vDvTqlVCvRyQkem30Z0FMIXBVolbuvd7TEopMIdQHUi1cOsEbNZiuVqg1WIb/VpJ9VsooNZr+2DMWKldanKqIaTIUHFx/fqEMANz2BjsTYl7LrA8TQ5m2ZSWrD3hvePefDNOEoT8Pto70mLkhXgwnlj33v7t0FAIhQAicNQILZZ5btAOVSrRNkATP5d2scdCJ7fJiMYfZdALThRxczLr6ETxvsec9OSrn7U5nsoBxW31nukbFst1iUOuHB5FF8BLpKeJHuD0dgo+o43nk046q5kgYfSpk1fGHguNWdqeAE3x4TkQN39BbTSqj0tIJXkmHyCz3ivPvXpFaajUf3I1hRAupl5bGCMkTjUmyCT5s8CEyvtjVQdWXGRBoY5hA3IqqnaHWQlaXYrGprtfTrswvs4H2qPyHVqmmzNPmYOZpSNDYsFuTcjIk+G3mvNT46Z4QIAQOG4GogS5vN/mUqjMLG+7mbQ+SLORrYhCIGsdqUpvO22w+AFIHX0bdG5BtCaPgjG28nw3BK6NBIbybKah+Hk8GUFMa7+C73XXnV2f9JlQSVPrc4tuyqjBAtb5OlV8LjL10hhhytHdqBC8MA7mqPTq1wUf9PkPqeqeuDcNmBk3bkgSoFjqcerDxW7U5yDU9kFx4NtCvK6SZMv8+UUbvOlV7chz6L5t5PzS9IubfVZV9tSu1O14oK0VzQwSvR5beEgL3CQKrYXyQg9OSvOlcT6JW8rKN16fegX5TaiAD7uHtKrbV6rqkzWIItZiGgIHd7Ls8NVLaTNUeimsN1vyvgLpeyKGXOf3tmRC8dv5DJQ7s/Qh1sEicu5ZaDAk3Ul0cfMcRo1R4hxPtrBYwnUxgMhlBt1UHy5Sjv8C/Mto7NYLXWdBvHFjMpijrBEb9LtSr+gKnGv2pqiCRnlYpk898GkUhd+yJJs8jKdaiJUwL8HWsJq9Y/l+tJ4lc5o++wkrtDRF8uCbQEyFwHyGwnkE9OjBCLZ+YbJXthGhH9O2Fi8hyBNVoWKL9wcHWLIFcVOPwlTAMX/TloMvnpWkPB6aR8O1GF/IsiRdt4DY5dzYEH+tZ8TkKkS08Gbq5fCVzdOscNaTizEfQqlc9wzGRWYlXSQbxguGpfPIArLcRMNFavgudTkf+tdvQ6U+U0bUDo24LqhlGdiKzVYLXxSmsOPPIrHWDlacpjOo4ZpzcEwo596+OqneZb+JhzQfSap6nVyV3/l2mV2+4IvNP5in3Rz9CgBC4fxDQbUjG24uKiQa7/C+hrTf8Eb5AIjqYEG2se7WaEKx4Ex5SrxvoVeW0agcbzbliSR8K221XZYckKVjhJ+l72vuDIfiwQVYGwetG+EjwYoDPE5y6iYGhjEqDQiDJQBKE6PntSPAp2gUvc1S1soxTZKxr2R7I6X3fK8Fjb9ZW47NamT3NUVPYRigdsbSSl/BtpKy35+lvDdWOn+dJEryltZKXqjmZpwnR0WtCgBA4pwjo2mnRZqZelcFgdBpQ9VfvTQojs1bn/V2r/LA1vlnrwKArVvl4bXl8mjEcrZAp/Dbf09kQfMIShWBaAlXwIYJxyUZZcqUzLguRqK6DgCRda8F45plpDetmoP71AJRkoCs4KqGmQSvJRyHqSOcj6l8XHzcIafXHsOSj5tUgpK7m8qryTDSGh1ur6JHc1emRSsObU4rKHH5W1PO+rUT4e76nUWiZSwX6wXrAsH/ZczdBZ6i/6AsLWJmn4RDoiRAgBM47Avp2U2l3Xd7QPAvbJ+SROM947vlmWxu+tBut7Ffiz0lRYbpgqryDm93wsYlK+ChPa8JZbhUyqlbbcl2enDuCx51L4oYRmHi72YPxeAgNS6o4ROL4JgMBvLhGMW7FiITY60Gr0UJVsrozmshgbOz9HsRq0tGobyQZ6ApOViaIjCmL4CtN0XtcQUdR+Qg8VHnUzRTEdxM7M31U+beUJYZCxsQrGu3JXZdQNR4YJSb68D4o+Rmeasnwp3ye9wQpY36Z9dT18xtljqvSiC7ZU9Mg81SJim4JAULgPkBAnRYU7V6uqzvgUvb1SOoIRN/rbKYUHFdjObVo4N4v/Mc3wFGnCtruarB1aDm52pYrwQW3Ik3BiwI3ZzKC5/KFdwMSJJx87YYmgNWeUtSPAX3c0Ux7EI5Rie1vLsBTD0Q5dYJXCoaUB0fpaAVvRguZ/yy2TeRYSpV0FAtcslHzChp3l/VTreAZw0MTxmMYDofhv8EAhrjuU/2peLU0G9WobjeLAdoZWGBVbOiKZQKRVRV2ZwjjUSRelGMwGMLcnYfBeS5bptVq9GDGdymcomWrKd/nXRajykf3hAAhcH4Q2Gw2ONLW/GESlrG9RbjGD0d5fKC3jGtF1bZXey9G/lp41KXOcr8Ovm+9SvDeBjjz0ADVbKYfvCZk0Uab8bJ0gtdtLqPvoeDa6tCaZbVhDt/XY6PQNRoyhN0IEPiV73YWJqtkt6o/sQxLJSzxXZ+GOLpJI3h1iUXMl6ObksiQGTUawuZgMw9vkyhkdq/K+v5YvOoLrVYkQYZIT1bilT1ilup1dTvH/HsiBEtOELO4Ficq7272ACo8dE8IEALnCwHZLol2QbYHi354HjzUZiYMqljKVKu6lDm8sdss3E7h8uWaLeyVPLlaGQeDCdm2Qb9kgse9gO24et1qC3VzXMT5qIvHvcb98ERVqvGtaoMQUJ3c0KxD5P68UeQaRm1F7atkWqXWxmVovdg0gZBTt3GC+BbEn3Cj1Uyo0wsJ/taLkXZdJUOtQ3s4gX4jXCi4xkFdCTfvq4cdiAKN19RepyJMEYJXOhc8hGVw0EL2YQqqEUrL34VGN8UgCnX0Gl5fv8KjbatKD9nAaZ4u9IShHlr+b79/lIIN3RIChMC5QyCuwpcnYW4zAExsS0NtZ7hd5qA5OCUcbcfEc6WRvU+JcLtNBjzEPWEA2t9OB81rQ0x+eXz3Dls6a9/BBXb1scfYtUsXkj34X7i/1XrNTk4usAuXL7NHrl5lV1R/J/fY0dGKnXD3Fy6zRx+7zq5kB5sZ774c3LtzhOlxpWWXrz7Krl+7kj+qk2N25+6KrdH/hQsX2OXLj7Cr6P+Ak5s/bSGX99izn/8C+y+P3mI/88Gn2HX8xhET6fzqr3+YvfNTTzPscTPny59gBRAMxUIPhAAhQAhkIXDy0hfZx3+hxdgjuHHtJ3+V/fIHb8a8HN95kf2H33qa/efnb7Pv4D/21wz23/1di33QuBFzG32xCw8fDMFHE0XPhEAiAveeY++9+i72DDrAE5rYZz92Szq98yz78GPvYUjvjFV7bPNrlYD4pSO6IwQIAULgfCBABH8+8omkLA2BI/bP3vF97B++4AVo2nX2Cx94gh1Pv8Q++enPBLGgTQX72C0avweA0A0hQAicOwSI4M9dlpHAuyJwcvQs+/j3vYd9LiEgNMxkv6JRlSU4p9eEACFACBwkAkTwB5ktJNT+EThmt5/7Pfbs177OXnmVx/Ywe/OP/CT78Z98kt2ggfv+4acYCAFCYO8IEMHvHWKKgBAgBAgBQoAQOH0E7huCFwk5fQgpRkKAECAECAFC4OwQSFrQJngx6XuaxAdlRS8SkiYwfSMECAFCgBAgBO43BJIIXPBi0vc0HA6K4NMEpW+EACFACBAChMCDhgAR/IOW45ReQuD/Z+/7Qh25zjxPoN10h25PurPdmHamSdaxac+mTMYegvPiqXgY8L7IDGQfZtAS50UTs7DRviRoIXnQPAzKw8wqLCjrfdBCrIFFmQeFCRoISjJqxkpglQTZu/I4uvGq2bok6kQNXTepS+rCt9+pqvOnqk6VStK93bq3PzW3q1R16pzv+53S+Z3vO985hxAgBAiBRwIBIvhHoppJSUKAECAECIFHDYEzS/D39t9lP/lf77A7+79ih1irFx6/wZ6y/g37w2ef2unlZk/DC3h0sM+m7/+aPfZ7T7BbN/lir/mfu3vvsl/4jD2Wn4z57IPs6Vs32YUV6R7E7X2U+de/fYx9BN+XK2Id24IFH97bZz97/w77DU6/O/+ha+yZj9M7VxA6SkYIEALHiMA2BH/Mm81gGMBxfNxp5kYyiBuunW9BM7XD3AYFe3Pca70M8Q1MNsjnuB95AHKNm3a4AUJiZzizKi40LW0DG23jnrA+9Hs2jMQ2d+bMcq86ozaUK225U15u4pyb7rglN3horNitKZaNv8ANbMryWaWfBfXuOJaUvhAChAAhcNIIiDZok3J2L8juaI/95+c/zv46WoYUlWN2qcyewYX8R2++ybTLrD6Ys6+8fJMn2eBzwL7xmcvs9R8w1hwv2X98/soGeZzEIw9Grre/8e/Zc6/jOnAl3JClt2pDlgP2P169zD4fLPC+SucSG7k99uIGC80cvP0Ndvm517ffJObwbfaXF59jYtHa4vV7yL71lxfZvxMPMptVKh9hb7yh1surdKbsv/2Ftvb9KjjoPiFACDwQBA7u3mHvvP1T9vM7++w+unwvXLjAzl+6yp74yMeY9Yln2bWsXcZwQ7I703fYT//l52z/V/dR1gv47Hl29Ykn2MeettizT10z7mdxeG+PvXX7R+y9/fCZG8+8wF5+2TJubnWw9z325nfeC3D45GdfYy/eKO7jPFMW/GKg9um1a11wXF/ruHgwHbTAlhZkFWb6bS3l6lMX2qXQ8kQCWJ38gaV4MHLJfetz9jhWKiuZ7MYQPN8Hz/MMfy64eH3Tj9y/uegWt8aC+JbFukdB7TtvTK5d9J2etNz5u7cQ9wKPksizAtON3zmRIR0JAULg2BDw59Cq2PK3iyxqPK+2R5D86TrDlrbdtPk5ZlVhtIg/OespnoqXV4GhE0+LG2rHPKD91P18JET++anMd3fORT9uRvue417ejllmmLaFC9UCM1geLBcOzOdzcBwHlq6JdJbQOgmC911weLkLk5/6uOTyYeHMA/3mcwdifaAMzFyBxyLszEgM1yT4UnMTN3URvQGWwq2OMm3a5Zr3a6kfd9EO3KQlGon0MIM7akb5lsxDEB7We1Qni6XpfcuoGLpMCBACWyCg2nFBhHnHcmsky5LtTUaHIJ5PGUZRo6QbAmEaK97m2M1Y+xUzWhuqfCnIihMhx4pkxtu7S/CsDOOMdtKf96Bsl6BSrkJvphGp70C3UTH3yOwq9KO03rQdr5CoglsTnpcLnXLYkyu3JynQpp1K+GxJjBOL9BY0Ojh+rL8slW44lnwscoWizIdtKOllBOcW1DojMMG1nPahasd7phbiVo06N7hneoHxbmXBr0XwBfXWMRcvc3CUGKeqwXxhMZDenUqjIeuiKMF7zhSG/S60OuilSJTgjrMIfgn9ZjX1PlWabaiXwx8+uvUTudFXQoAQOA4ElrLjHW/jYu1IrL0sRbyyhGaiXcx+Jsy71Ar5QHo/g3xDnloOG1obYEFvLqz4OdRk+ZhWo6ui+gu5iqbX0+0cwTsxC6wErd4IFkVMVO4GSVSYZSV6VthpmGDLLV3BEviwAkMicKVlbyKzSSvyMEgrU6UXFSGOVm2AWB+XXADjdtS5EHIn9RMdiqiG/VlXe+lQx2R6ns+6BB+95PpLZD4vrjcneDFcIrALjoVkE6Vr5WHHYOlN1yZ4kVPy6DlDqMogQ31YyINeNXx3hNyWTKeum96jZBn0nRAgBNZHYCQ8vqJNxKNV7QD3qPuLMdRs9TsUv1HcRhrdhSODoWRDZ8wH5nyYdNKeQFbuBMbQNNYONwJrPdnWCqNi1lWd/3J7s46+kHt9dAB2juABx1Mahkqx0GKv1lvQH05g4YnekVJ5OVI9qHJzAEuRxItHRQvgAa1L0SFoDHEwAMeVw0cU2ZgaZtl7k+Sj0gcVUW7AcDyGTqMGPXyRjkuumFsIx4SG86gr6Dk4E8CWRF4fipFjjfDwpW8OZiFYGKHfrmgdH6mHwjJ9pumInpB2u234a0Gr3Zfj1mvrjYUuRG8cXVwOH+fHv6KfiRy2sWHAIfDG8gcs67xoZkE6Dy3zGpTLCltev+2JGjyIWQ/lJsyijqgz7oSehIjsTe/RWqJQYkKAEDAggMaVgSt62tiuHIrE364gSt4e6LNsxHVW6akyfGUgyPvYVvJfv+QAnqcVEfy0I/Pn6ZuB+3kKFVmubhioYoqcifKLpE2m2T2C5xIi+XZqYpxdVYxQlB/LdQzA09r/iexVVWGe1BJUZanGXpFWM+Y3UddNDbOsXEmMKj1jlcBDoBd/XHIN64JocCwo5ebRZIjc2v5cWe9pF7EDdWFpSj10qZPnWv7yhTXViwXDSLb19dY8K2sG2Xnaj6vai2rfHW9pwS+gbtC1NRKthyeHchjDH28CMuXSZ2B6jxLJ6SshQAhsggA3BFw0pHiM0WwGk/FUDTkiSddEO6f9lgMLHsvyMSDYXS6D2JnZdAJTRzWss67ZgudDd/Oessr5lO3OxEHvqn7NDoYB9M5FrZ9mpaLqCt4rml5Pt5sEH0nouwsYD3rQrFfBNlQUsxsghzp0rdAWDypuPoURf17rLJgJXlllurvY1DDnEny1l4rSjIm1sVwYSGILQi3DYDKB8WgMo+BvBOPJWHojGAYn8ldJDUOUYKirFwkk3UxrE7wFpXIZSqVS6s8uNTJmNRSpD03mQjJFivgzNcaFQxT8Bxh80IIX8RDxDpxIsOrow2w0gBFiPew2Y3EdjRF3EaihGdsYOLOQnijTe7SqdLpPCBACWyCAQ3TSiNHInbHs4G1RWlaEfG0Qde4x72osT9E2h0erPox5EHmbLMwCUcY6xzNL8EkQ3MUMBtjY2hq4ZS2AyZ0PoVGJxsi1NAIgfjxJghdBGCm5t5arqAXNX7AwAlzFMlgwMBC8N4kWgilEpqr8LB2TOvPv69XHJgTvw6BuR64xPqPCxV45TtXDWROeowLucL2EoLeuOXxM4uZf0/Jj3EuidSCk1yCWg4bZRjMPYpnRF0KAECiIgDvry8693vbz81bulGgXh+UyPMfoVdSbUR/jcmolbagz4ptKsx8YGSPZLjFoiPB7lJ97DYIpxms0RkKHgurHku2WBY/zjZvVKpRLZYxClLZYTODgCwZIiLENq84D2ZAcNDetAIS7T0rlGjS1lclOlOANDfnxyKXIgutWrlSgkvFXKteDYQI1XSyL4KOZBOsSvEHHoAIS/62v9yYEbx6DU/Uf71mruk8IW/CrmsLZAEcjeNNsC9RGBg6SBV8QYEpGCGyFgJ9wlcd//7VeciBNK2wx0gJp488xqwazDDrylotouvIcp2NHrO30lccPjQH+6LTXhFLCC11pxIeZNWlip6I9i10s+GW3CH45lNZ5pZtTGejqFlPZAmtKa0w5GI3eGCPv9RqZyQ6BauRVAxxOjxOIqesma1WOq0hi1NKnyE/d204u5Q4OI/OFrPoRx5NwLEp0DJWL3ja66OU4ktRDzyt5rvQoRlYqfXG9NYKP4giSUqS/r7OEbrwnnc4LYNSqBj9MK2OoRQ7PMPzB+2rYJHDJpTLE6THRD7oYZqkM6AIhQAgURgCDYjWrWZCiODbRi5f18WY9yTsivTxi8Kx5GDgrNx9n1ijLvoM9g7kWSS/zRZ4KzjFIb5X7XjyTVWLe9d0ieBw9VnMGS9DPsOJ97CGJueBh46kI0ObjH4nPYijmMHMXjQikUCQU70yovFiqocfI9NT8cZVPuiFXeW0nlw99+dLY6IpOKBjr4OBKa9i34VH3VvQSlVNT27Q5oCdE8GIRoeJ6awRvCFpLaiy+8wV8+GJG8b8FLKbqR1vt4syLxWLlgkD9mvhhmhaz0cb6A8xweEBLLycvRILNeypIJ/1eCOnpSAgQAtsjoA/VJaxvjAuayClV6ZL8eT+T3Ou99Doo6RziV7yZFk0fROWrAG9O1Hatg8PM8VXwqrnGLE51i9rxeEnFvu0YweNc78S8xmqzA+PpHBY82hGD5gadhiQurng4pqKsKR7RPJbLCvowx81LBNHx9MqdqoiZlVswlSvC6WSKVl9/GljF3nKGkf22BFvNH1f5pBvy45Mr9uJgtP5gFo0IoSU50MaN7KZYKQnLFp0R1LveC/XAyaHQM+qR98Lk6Wh6bhO9dYLn0/qQlLdZEc6byHG4uIeGy+vDEBenKWOwYKXew+5R+NGn9jHsuU+jhsFf4tBRtPgRf4eqkatPn6nAcI2FLkbw8tXshok5tOn3IiqQDoQAIbA1AmrGToLcKx1c6hzHvHmUPfKH+JOzrHGmjRjqFSQqjp2xgzOnwyh78Zx5RVRdfNVO8uHhYLqeTvicrybcx7qEhuauX9U+CJn0koqe7xzB87FL3cUhlDMdK9pKc+NWPDjCxihvGwFNPqcsSrSu7fh9O3KxG+dIJvOSQRfKSjdV1HHKNUx0fpK6cZKRDgr+BizUkEc6baQ7WqN68Ij5xcnX0fTM+npjzcvV4kS94KpTgn1NheRdwzFy4eVRwzLiAa0DEtOfL1wjrPhQBsuOf2fYaOgiTfPcb9E7I94rUTodCQFC4HgQ0KfIZrZxibY73F1Sn+Yq2psVxxU7by619kvEhvEFcHQDs83dqzgq39aMLxNv6OgIvfRrRc93kOC56LiSUL8FlWTjGlWUVapCd5QcU3FhgGOoAgx5tLhlNUOLLeoAaFMWltOuJAGeXm+IZ/14tD6/b1VaODUt8gjIcWKxVK3uHdDhP2a5cLMdQVxSR5StVEMvhMEV5TkjqCejPXGhnA56QoLnpR66zMlz7JmK5XtT7v5kWvF9fb15z7Zb02dBmFzlIv8VR82CF/Ne1RN8Q5qIuFP6ezDq1GM/yhBn3C42azngSS/2rlq4GFAXp2dWol56LT2mokShM0KAENgYAbU+yApyjriD/5aDDr+2rLXejuae567PgdNipVWu4p70odKwbE7w89g0O+V1NcMgZDLfzb/6AX4bMzB+ttqmzpjj+hePDu6xxX2XHR3xZ8+xy1evsiuXcrbaO7zH9heYHlNfvHyVXbuyat/SI3Zw4DKfPcYuX7qU2BbwkN3dXzKPF37uMrt5Y4stZY9VriOUax/lEphcR0zO8S+Zn4N7dxm6mFDPc+zJmzdwQ8QH9Flbb8aODg+Y62GNXLzMLl3I1+vEtMAtJPex7h+7eI55HmNXb9xgSYgP9m6zb93+Jbv14p+wF2/huxG8J5G8hz9mr158gfEddnEePm5HvOo9PDFNKGNC4IwisM/+6rkn2VffXk89JHj22cV/ZU/+26+u96CNW2t/37y19v73/oo9+SdhfqXWmPW+8HyU9x77Tx/4OPsvoiS7zGrP3Gd//QZvGcIPDjOzL+RsV74VD+fxPxYfWHl5aegeIfCoIjBu2JHHKLmCIY7xN5QnQm088agiRXoTAieAgOalE1xV5MgDrdXS1sUtf5ZlweOKeWrhm3C/E11bd6IF3mmeBC5rqTGQM5/0Z/RzoZN+rej5zlvwqBx9CIGdRODu7a+x6y99OZLNZvXW59izjx+y7/7319kbP4gulzvM/eZfMLLfd7IKSShCYGsEju78I/v851qMPY6hda//DfvSK0+l8jy8+y77h7//Nvvnn+yx3+I/9mGL/dmfl9kr1o1U2uSFbSx4IvgkmvSdECiMwBG7/fX/wF764hvmJ0oNNvufX2JPPbDxELMYdJUQIAROLwJE8Ke37kjyM4DA4d099tY/3Wbv7N8PtDn/rz7KPvn8p3Fc/toZ0I5UIAQIgYeJABH8w0SfyiYECAFCgBAgBE4IgTND8EKRE8KJsiUECAFCgBAgBHYSAQycM8oleDHrvvGh6OJOjcELRfIEpnuEACFACBAChMBZQyCLwAUvZt3Pw2GnCD5PULpHCBAChAAhQAg8aggQwT9qNU76EgKEACFACDwSCBDBPxLVTEoSAoQAIUAIPGoInEGCP2B7774fLB9bqDJ9XNb0wx9jT904ncuJ3N17l/3CZ7hYbv7HZx9kT9+6+eCWmU2Kg8vO7v3sfXb3N79j589/iP3+Mx9n15LrtyafMX0/rnxMedM1QoAQIATOEALbEPxObjbjTVrREqBrLCNYG2AMwmn8uNCUmxSs0teGkb6V2ZrqOrhRTrnSju2GVjSLaS++TS/+foI6qrZHK5da1Ms4rnz0POmcECAECIGzioBoazfRbycJfjGMdjpLrNsrFDUdq93ZJvrvwDP6HsKrCH7z3dVc0WnC7VHX7SMsBnWtw2VhJ6Ec222t0pkWwvG48ilUGCUiBAgBQuAMICD4bhNVdpLguSK+78s//n3cEpt32DBY+DyBvM/Tnt6PIni7MQQPdfE8z/DngovXN/1Igs/aMCEz4znUREcLt5kdiy1p3SnUbdEhSexDb8zruPIxZk4XCQFCgBA4kwicSYKP15QPvWq0f7e2n3s8jfrmLh2Yzx1wE7zve0tw5nO8NwfHWRZ2LXvLRfjcimd8V8t/UdROVgRfao6VEmucebxch+vlgLNYYich/fByHA17oAW/TN/OvOKK55DkW5NEB8PpS0t+1Z7n2+bjLnidoo7OAhJSZMpONwgBQoAQOO0IPAIEP4e6GKeu9hLE7EO/Zgcu5Fp3CD1tm05mNwMy8xcTaFWFB0BYnfxoQ7M3ieXnC9KyajCeT6FVCfMWIDO7DpMkd3tz6NTLmhs7KsOuQG+yik43J/jFuAsVO+r4CCs7Olaag8gV70KnrOscnZeKjcVPWkKvKsxSHYcltIQVX+nmEu+m+SynfaiKMoSO6Elot8WwQXKr1tP+cyb5CQFCgBBQCAjuUVeKn+2siz6mwnIIdtS4l9vJ8V4HGoL8BQFER6s+BFgM5LMhUBZYifT6+H18nNhAjDzvWCfDixOoXYJSgnS7szybUyP41iSmdt6XxbAZ71BYab1KbZ6fyl+8KMGx0Fi8B91KhEFGekncuZ6BzfLxZt24jszUmdk8LiEPX7pHCBAChMAuICDa7U1kORUEvxwrMmslzeflCEoasVvlBoxmcxgPejBe3NPI14LmYCqtTNcZQU0QvUZOo6Zu6eMz/Un0zBI6lYhgtPTgqvIbg7msg8WkKzsWdmMkr6dPNAK2uWXaNvy1oNXuw0I+vICmLTofZRjMlJdgMelBWeChybkYRRiiV8Ph4/yF4hZcaJXCcmzeWTJ8dIJPOjZU8k3y0XVkWHez0NPiOdCNPDbhi1+CcXbBSgQ6IwQIAULgFCJw5glekghLW2syeAxJzcIpYIrqsCa9CVQiEq900lH203bkfo5c+dzaFYTG0FrsTuOWt5RDpsciNCuzOVQEz9+jvogbyHWHawQviNl4tGAoiIzrFSjSDn0AABpSSURBVKWp9uJl8nJnQi8toE7ipF3jafM/yvLO6qQoTPKi89fPx5u2pfWue1hCeXFoIOp4MHwniODza5HuEgKEwOlF4IwTvOYCtxqaFRtWmCRpJOS+k1WJHix5kNZsCpPJBMYjHKvvNKXlbwmXOxKntH6r/URmioitujbnHp+JexDq0B/P5bj+6gh/lS/vVJTKZSiV0M2f+LNLDcMYeCii77mBftPJKNCrYqfd6pLg0aoX/YSEgoavavzezggALEbw6+cj5TV06rigSzmVkgjeUHF0iRAgBM4IAmeb4P0ZVCNr1UotZqMsQ2a0kl0YtGoy0lsAlTyKcX1v1pFWY3MU8wUE3gBB/kmL0hmoIQSZt8UD7JRTPftdUwRfahUfg+fehmGnASUxzGCy+jUyl4SpXcuWSdxRHg0+hc/0kQSf6xlYPx+ZLzMF96H2Yl4/WfCmaqFrhAAhcEYQEJyyiTo7PwYvo9qRwJLECqDmVqdd8B5G18eDskrlCtTqDWi2u9DW7rWjcf15rxYRfHpet07+nYTrngPvL6fQaVRkB0FUSmOY6VaI6ksj+AwrOV2xaBGL4DeN2C27BNVGQ3khNDKXhKhdS+ebvjIWMQkZz+n3E12iWGZ6OpMHQb/P81EEX4bk7DyesVrtkCz4GND0hRAgBM4UAoJLNlFq5wleX9WunSRWLUI+RboY/GZH5GdXu8DXxtE/8241RebDuh1eQzJLktW8r5F/NDTvjPvQbrWgo4+9ewvoNzWizyBGJcv6BC/JmuuHQYXjOc4N1/Sbd6LytbLlM0ZPh5ImeTaRCwyZLOkFNOwoCC83kJATtgheLJaPKwMr+cJGSakAHFkfRPBpdOgKIUAInBUEzjTBS8uOoVUdj3mDpYgMx3tJK09fWKWXNKLdsWblhnPlcVRXRqabAsrS5I9u54jc+LS55EfKrZFsMk34fRuCt2GY7IlglEJTBKBpbnNJ8NzlbRbEeNWdqGC35LCFrw1p1AdJkOPZrZuP7rkppYYHZmp1PXLRx4Gmb4QAIXCmEDjDBK/Ijxmsarl8rYFEfacnx94rLbUhijvXpsehBSynfyHpi2C5NFmpKVtqLNqHgebmb+A0LvHx3Sk0BMkaZBPpwqPSsehKdsq6ZVBpj1VAn4sL7lQjLwS37rWOjyJ4PuVsAotlorcUF0r75kA9yIvnV4LeNOxReM5QRvKz2Di5D8NmFcoYLFip97SAvvXz6WnDEOVGD2YOBkpOh1ATHatALrLgtcqiU0KAEDhjCJxdgtei2hWxitpTxGiyuHGFm/gCOJadWoCGAyeeVQRoQW+u+bt5cdpcd538/XkvcvOHbmqGZZRLOsEyaKywbPWpeUUJHnQPBCc5rlui3PClUO5tvVMQ3itOjHKZ24BQcTqiHY9tqPX1qXra6naJTtl6+XDcJzLAUrzk6WN66qR4Q+hICBAChMBpR0C0eZvosdtj8LiCXZ5VLcZ/G0PDIC1HYzFOWHucDEvQGU2hL5a0LXeChWzUWH8Vpgl+50RuBeSWJn93NoB6OU54QYVYZWjrY/OZtYMdlWgp2fIaUfS83NQSrihjud6FGd4TEf+qQ7LEBWLEODjvkKxHjEtcuEfkKV44vtRvS/NchCrymQ0RHobx/uL5CMCWuPxwVXpj+FTCSrMLvVYUZ4B7E+jdC/EUHQkBQoAQOAsIiPZ2E10+wB/CDIyfrTaaN+b4cC7e27/D3CPGzl28zK5fu8LOnYAYhwd3Gbq9g5wvXr7Krl25dAKlpLO8d3efuV6gHLt6/Rq7tEK5o8MDTO+zxxCLSxdWJE4Vd8ju3lmw+3j9sXMX2fUb19iFVJoiF4rkc8Bu/9232C+v3mJ//MqL7Bpmi1rKuvvx119lL3zx29jHaDH3+19gDwbtIrpRGkKAECAEjg+BbXj4kSD444OacnpgCBz8kH3m8qfZD7BAXKeAffO1W6rou7fZq9dfYkjvOPzfY/7fliTxq0R0RggQAoTA6UeACP701yFpkEJgn33tuSfZl98Ob9iVOvvcnz7LDqffZa9/9Q2Zuj112Wu3yH6XgNAJIUAInCkEiODPVHWSMgKBo/3b7PNPvsTeFBcSx3p/xr7yylOJq/SVECAECIGzgwAR/NmpS9IkhcAh2/vhW+z2T99h93/Hb55nH/3Ep9gffep5doMM9xRadIEQIATOFgJE8GerPkkbQoAQIAQIAUIgQOChEbwomOqBECAECAFCgBAgBDZHIGtCm+DZrPt5JW4VRS8KziuA7hEChAAhQAgQAoRAPgJZBC54Nut+Xq5bEXxexnSPECAECAFCgBAgBLZDgAh+O/zoaUKAECAECAFCYCcRIILfyWohoQgBQoAQIAQIge0QIILfDj96mhAgBAgBQoAQ2EkEiOB3slpIKEKAECAECAFCYDsEdovgcdOVH/9kxCb/+//iwiTn2fnzqNyFx9lHb1nshU9a7Jphd5K7d95lv/gtbmAS4ODjyRPs1lN8e5GT+xzs77H37+OmK1ERPvsge/rWzQ03Tzl+OQ/v3WVHl1dvHnP8JW+e47FieniP7f3sfXb3N7/Dd+hD7Pef+Ti7tmonnc1FpycJAULgEUbg8O677Af/9EP23v59bG8eZxcunGdP3LzFnvvUc7iglnlTrsN7e+yt2z8KnkGSYzeeeYG9/LJl3PjqYO977M3vvBcg/MnPvsZevGEgwgz8tyH4Y9wudgn9ZjW+P3q0fzjKLa9XGj1wYtuxutC01P0grdWEJc4JOLmPC61kmbj16cg9uRIL5+zOodcMt0JtjE4WhcIyFUp4fJhOew1te1j1blTbI4i9OoXkokSEACFACGQg4DvQrevbaKv2RvBWrTNOtTuzXl1ymkgXHiswjBMcFryIcVw/dT9DtuiyyD8/lfnu8RD8YgQVjcSFQJlHvoe3bKlxP/RSAtRSC06Waw1l4v7o45Mt1FwD4qrnQL8V7yA1x6eL4FP1uAGmi4H+w7GgXCnHyL7SmQrE6EgIEAKEwOYI+HOopwy9BBdFvFZuT2Q5vtNLkLsV/27HDVS9TbMbI5lP0RPBo0XT6+mOgeAX0CgIkhCUH0vNcSSHgWztR4/gx007/pIgRo8ewc+hJjqKVhXGy6gX6E6hbosfXvnhdsT0Xw+dEwKEwKlFYNYNPaU6L/Fzy8hnNgwWoaqTVllrq7E98gCWw4Z2zYKetGC1No1t1nYJ+TYBemuCd2IWl2iEw2O53oRmoxqzwISwDK270AOdR/A+LBcOzOdzmDuLlJskpbDvwsLBtDz9bJbzjKHMPGvTc8HheeKf4ziwWLqrZUHhPHcZpJfPLZbgSc9FXPpxM+0mWumi31AuveQQXweWGYJ5y0WIJ+o+m81h4WYogD6XbS14d9ySP5LWBH81+sfpy/eo1nf0O7FzIa+Tel98+W44WA95H1d75xJS5D1G9wgBQuDUIOAYDdNW4DX1oV9PG1yV7izQbtrWOwaNYDjZn3Vl28U5Thhns67yypbbm3kfBWduAu2WBG9q1Dm529CdaI3ocmx04YcgGPIoNWE86kAJgRLKBUerAoOZwY/uzaGLHYlYWvmsDc3eGOINtaFME8EvZ9Cu6b01XR4LKvUOzDQ1wwrwYdJrQsnYCwyf53EIUWcQewETIzYxXSqduPxry+VCp6zLzqDS6qFudgyzqub+dsZdqNoJ11OEqV3B+nHiiMIxELzqGVdhlupHLKFlRzpUuhEeHnQq/JoFzcEQWpW4PrwT2ZuhnIshVJL1UW7ANPEqLad91DkqQ7w/6Elot8WwQQWS/Y5NfnT0DCFACDxkBLxxml9KbdXOukOwRRsgjnifNxmqncK2wooIftqJtaVNbtbDVGvbTW1aMQwEFxRLHU+1HcEjSGWhvHY09VQWQyS9cg1anT6Mp3PNYjSRbaKR1fJm6ObQG1lv1ktXRCx9lFepAbytDz+mMuNj8MtxW1qMAmDzsQTDhWAjHwYNO1bR5mdQJnxZgr6B6UVLyo9DFqIfsZlcGACXjHNIloHfm4FLxYXeiqAToVOjH/Zoi2Iq0DcfPegGZI3YZAzRyB+WxKOYXkLe1LEsOgrYz0r0wHmnIZWee50SnQKzLnSVECAEdhkBPo5uJdrAUksMG3PJnfT4fNQuzXu6MWlBZ+LAuK1fswO3/bStjMNaf74xHKId2iSDrQk+ZWUjaO2kaZQrmYlsI1JOVIBQtBq5SgpZv3oeZWEJm8rUCN4dpXt3QT6mRp8TUjO0yA1kbZWq0GjUjJ2QKnc1u4aepC4zPxdBG5vKZbSuExhjT5R7FaYd3f2USJOUC793pqLXtALT3HeA31RkbdeHxtQ6wYc8Gy/TqrTQo8LlcbGjpX5c/L2ptIbAh/R9dwZN2dkRhI1RrrbStTmYhUMwGPjYjXk5tHfEKCFdJAQIgdOAgDtupjrwcYKPty0B98h2fgpVQ1so+Mni7ZfOBRhUnj2ouBotke/qlOkUWxN82oIPgw7SRWVdMQAZgVcqp8elubIiQG+i9ZAECNwt2xmOYdippSqQp+kEZrypTNV4m8bD7XovcM8ATqtoV9JE3+Ih+HqlCh1ao8Dt483R/VtBsm+2oNPpQq/Xh9EU7XIfCScRKS51sctQwXvV5iAgnI3lyiF4u1wJOjPVHvYwcbggXZ+INw5FjCcDqNmKBKWM0l2ej2lW7avryoLPijTNJ/gKTIUjhWeq1wXKGLs1EWP9YZ1707Z8V2TnUQqGQwNah+ChzrSQMtEJIUAIbINA2mOHbVulr2Vpbs+EB893hlArpXmg0uwH7f2obss2RY+l8j0PPP6nN0haqaZT0daa7q26dgIEb8NQ+JNXlR7cNwHJ3cXhKLUpiC8keGXxCQD4UVmUibESSbh8uoOpTEHw2lhv9AzPtzWaYaDdDGYYZDcydCwCmXKtcQuHKCpQb7ZhOJnHCIfDoLtzhD7xQLMt5DLqy8CuD4IaEP/pQW5CBia9HpgKSTPdARCRoXmYihLyjipOwJYzLOLpcwk+QeK6rMmgPDdB8Pp38QPWS1YRsuId0e/SOSFACJw2BNyJ6tSLti5uWJjas3QMjgjq5YHUSxGArAUE86FY7lOcGuKyKo1uYk0YM4pCPvPd/KvbEXwGoTUNZg7vMdk4rlmtt2AwnoHAwky2yhrzZGOsrEdB8G1pWYl7cVeIZ6jE7GdF422qWJF/9rHUCjsOchxZ6xyICood7boWE2DujIhIzLAKt5MrjRWDrpzKEZVgwDpOjiYZhJvbfM/wKmS8karDZjdWuOjlOgmqzBB/LWutMxJ4V7RbOqFz+WTHgZkDYZLptazolBAgBE4hAuo3rdr0lS562e7kKexDr6ose+4xnmuR9DEO4ByBQ6Or3PfimbxSs+5tR/C+HiWogIr3hMKih3VbuiyEwOGiJaqRFteZBqSxIgILz/AcjnXI6HQs9kESPO+phePCC1wZKT7+K/VKkL5VUxa0IhmF43EQfCiXASs+J1MMn0dvhwnrupj8GaQx5XNcBA8ghyAyguz0+6GTSMkTdtwiRfhBI/g4jtillB2ZsFOnsI8HcIrcVCdTdALFHToSAoTAqUTAEM8U92ji+i62aouDNlwG92Zr7M20aPpKDxNOY15Pu9aBQVfMygnzTw8LxvMX/BG/WuzbdgSPZZiImwtU700iN7QHk4RCQuD6gPddVCMtrutR1KoxVmALK1yNjap7ulVqChjL7FTIaXLKkpTyoD6N/himkzGMxxOYTMK/6XQK4m/mxMclfHcBk+EAx9o70KxXzdPmRPAcojBppeMN4i76beQyYCz1VS+K0UWPL6kcLvJNU/rQ2xJ0FIqVoUpLnykMTJa0+sGpDqQqcxuCVwE3ajELXTqnL+I5iOB1XOicEDi1CGDsUzpQDtudSCFfi8uRPKAPVxoVV+0Rn4XT4/SmEz7ySGvCW9NlbA5+qu1K5C3KT1wu9HVrgvfn8Qn+QpjwaKWmIqj7YjxDByUias2CyyZ4zeJD4GS+OFe+N8Igu66+spC6v2mQXRkD3UKDFyO0ca14yy5hAFwVavUGNFst6I0dmOEa6rZtx1ZCCjsxvC54EJly3QTyagSvL4ggdLFrLeh3W9CKpqNJC1bTt4hcxk6UgeDB0KvlslSaPezYDKFRTsjP5ZAvvaEeTWXkvJb6uFg4ZU8l9rUfisJUlZn6kaxhwfvamFkpNTwwU6vrramPkp7OCAFCYLcQwMVsaun2jFvYEwworibXzcC2Lu7NTGuz1CLzrSi+iS+Ao0/HawfWkBdbFCzVdiWyFnyQuFzo69YEz0sxR7MrUhUC6sdKdxoJqBppeb8gwa89TU5ao4Yy9cYbF0axNRKVcuVc6809UJZeXHcbOwLVsq06ISKfWl9WknIDx5/lZUtX/oZyFSZ4lCa+SlNaliQWXbm4wApMpaZ5Jzj3VGCD9dHjswzw42HEqtrrQLfuVZmpH8kaBI9TGaAn5uBj+WVciIgHU86nGClr6xiQBZ9Xe3SPEDhNCHiJxWmSbVv8u/BUZmmoL9muAs2T8+3DBXDmMe+B3cxfn17IkVVy3vVjIXhunfYLLo7ChS01h8rtiy76lKu9KMGjZu403kMSYKSOdnyhm1SZSCh6BDVfmCeVhyQfvdHHiP+hCJMwL39ozqcMI7lADlJMnidEs/Q3k8uAcUJf9ZK4ibnfcV11XeqJhW5WYarKyD5basvV8rIsO97Lji8YofRKEbwWAJo3Bi/r3J3EfnS6nuo8/o5ka0F3CAFC4DQgMCm47oeY1ZWlkz7bKx6slxgKwKnPtUp8ODZcHjcrZ5A8lJ0i+84xEXxYwHzUg5rJUo2IkS/60h0lV/RBKyyxjKoKWMOug6GXVQ4i1jWlcIvVbiNjgRarZFiq1uAuNwSd8aVL8/QpVRswTK5Vy5fNxW1zdbeMIghOlrjEba2dWiaVazPvm4cV9KBDnm59uQwYMzFEwnNMf+ajLlQS5Cr0KFVNS9UWwzRdUvrKctKNBaaE5drQwgVo4h+xVC1a3cl3wlMBoK1JGP4onlXvlJjiJ+4soRfbOwHrqolrFrSid4vvgiiS0pEQIATOBALzYRvKttmQsXH11X7kScxUFoPN1Xh+OlDXnWiBdwkjsdQI1zjJzBtviHY3L03WvQ/wG5iB8bPxRvOHB+yue595HmMXzx0x7+gcu3z9Orty4ZyxnGO7eHTI7i4WWF6Y47mLl9n1a1fYtqUeoT73UB8fM+ZZnzt3kV29fo3lq3PEDu657D6CcHQUCsTluYryXMhTmOtwb4nYHWE559jFi4+zy1cuGXXYTK68wtP3Du/dZQsXKzL4PKB6DMpCHO4s2H08fwzxvn4D8Q6FOIH/D9jtv/sW++XVW+yPX3mRXcMSgnqOSvrx119lL3zx27jFQou53/8Cu3QCElCWhAAh8HAR4G3dEtu6oLXmbfzVK+xSfiMfCHx05x/Z5z/XYuxxNN9e/xv2pVeeSilyePdd9g9//232zz/ZY7/Ff+zDFvuzPy+zV6wbqbTJCxvzMGZ0MgSflJC+EwK7jMDBD9lnLn+a/QBlLLen7Juv3VLS3r3NXr3+EkN6Z6zaY/7floydLfUAnREChAAhcHwIEMEfH5aU0yOJwD772nNPsi+/HSpvV+rsc3/6LDucfpe9/tU3JCK4xwJ77RbZ7xIQOiEECIETR4AI/sQhpgLOOgJH+7fZ5598ib2ZoSgGFLKvGFxvGcnpMiFACBACx4IAEfyxwEiZEAKHbO+Hb7HbP32H3f8dR+M8++gnPsX+6FPPsxtkuNPrQQgQAg8BASL4hwA6FUkIEAKEACFACJw0Ag+N4EXBJ60g5U8IEAKEACFACJxlBLImtAmezbqfh8lWUfSi4LwC6B4hQAgQAoQAIUAI5COQReCCZ7Pu5+W6FcHnZUz3CAFCgBAgBAgBQmA7BIjgt8OPniYECAFCgBAgBHYSASL4nawWEooQIAQIAUKAENgOASL47fCjpwkBQoAQIAQIgZ1EgAh+J6uFhCIECAFCgBAgBLZDYGcI/vDePvs/70zYu3u/YPcPDxm7cIE9fv4Su/rEv2Z/8Id/wG5eObntQpIQ3ruzx/7fb332WHTDZx9kT9+6GWxYcrC/x96/b76XzOfUfz/YZ2+//2v2wd/7CHvq5hWlDm5qc3AYboKjLhrOzl0otOGC4Um6RAgQAoTA7iNwdMDuTN9hP/2Xn7P9X/HtrS4gdZ1H3nqCfexpiz371DXj/hOH9/bYW7d/xN7bD5+58cwL7OWXLeNmVAd732Nvfue9AItPfvY19uKN4ly4DcEfz3ax7hSaFVtua4daGM9LtQ44Pgb7n/jHhaaVlMGO9nvHPcQz7524YA+4gCXIPdqtJiy10sfN+J7EWXWG26/A2NMepFNCgBAgBM4IAs6wlbO1d8QhVhVGizhxzXp1I8cx3IZ7mCK5RYyP+qn7+WCKtjk/lfnu9gSP+26rvXCTpGr4XmrFiMYs1rZXcf/zUrLsEoyDbcHz7m1b7m49P2lH+5jzDhfiru+KPm7aGS9oGreR/uBuqUjSEAKEACGwEQLLcatgG8jbxDKMIgvJd3qJ56z4dztuTC0GqjNgN0Zry/pQCX7SyrAErYTSmlVfHy7WVnK9B/JIHC14O0liwrpfr5RdTu3PuomXLk7w3mIO0+k08TeDuYPeGM3DUe1Od1lNko0QIAQIgQ0QWEIzxQNJXoh/L7UmQTmTVllrW0MP53LY0K5Z0JsLi38ONcl9mHYDY+khEryJSBm0xlFXB133dQOIVn1orhDfhYUzh/kc/2acbBYgYDI/EF31luDwZxwHli5/wodOpgWPd5eLsAz+TPDcslg5uULk3fRQLycoy1nojvLwGQ/lCeSfOxCIn5dVoXv6SxW9pHac4LOy8SZt+aJatX4uLlxujp+Tqidf1qNJX71sdxHiwuuaRgJ0ZOicECAETgyB5QhKkngFkdvQGXPj04dJpybbQUGwrNwJvKBT3TPKGoFHOmlQNSMOnHWrMp9yezNjSZS/CRb/XwAAAAD//w8nIbUAAEAASURBVOy9b4wjyXUnGAJ6Bt3a7ra65W4LLbst3UhCa9c5kGcM3+gOnk3LMDBYLFIw7L2D7TQkfcnzwIDF+3Az4AH2BxrwgvPBPgo40JYP4AEaChAoA0vBBn0n0JLZsGjvmiMvRwbnJPbJ7BXrJJbMWneWJgvKAt69yMz4k5mRSbJY1VVd9diozj/x/xeR8Xvx4kUEg5IfYwz4X/HPh6YT+xF++dWpNGE4nUOAAf1RC2zbAcdxwHU9qFQqUK33wNcjDWbQqVeitPR44nsbGt1RFJceJL73od/Mh3OrVbCTvKv4HBhFiQbQ8awoLcuywLJ4/j0Y88zizx+3cvlojkVuVVgVrwjrQ8tNY+G1hjDuNcDK5sXyYLDAxBZDqDpxXlR8FtS7kygvR/1vULPjMmA6jZob39vNNObGyKdQlXn1YJJgEnsNoO3x8lnQ6A+g6SVpSP8OdKcYYDEAL8JUw8Ktw0RAmKS7nPSgYmt+eDxWBVqtWoK/wNWYUXpJCBAChMCREfBHzaSf0fogr6viCyfgyr4t8YN96BJ9jJtJnxr1WfXoXThpp+JrjHjnOQFPxlGBaaii3+ROcMMmYYTfMvaWGRae81ckNQPBiwzxq+14UG91YTzP9PBJZMG0ayBjDXQBkFMHzh/q5yeEY/ArwqSuguBNQokDwyR7/jhf8Y0Rr1b+Kwtrcls3b3l/9aFIM0553f+Xw4ast+Z4CdP2+gQ/aamGW+tzCUT/bVk+tyOFtGDakXmM20pWyOF4qDrRc0H3hAAhQAgcBwJhEIC/XMJ8PoPpZAwTjaOmnWqmj8I+yW1Hfdisqw8qLWiP5zBq6e9s4Pyu96fV3uzIWRZ8epQItiR4PmCr54FIEatGXnYFevpQLhhrEo7mryh8AjAv6HK4QbpRfIrg80KJcOMj+HKCLw67WtgRFbXW1WmtMeLOVLk/klKnXetHjlLaXDWC94fgCNyNaafLZ3lNmC65xIValLoSDHjZvOYAliithv4UGlIAFIS9gIat6rrRn0Ik2AZz6FRtrS2pOsmUkh4JAUKAEDgxBKZdoUVU/RTv16r9eZxmMIGK6CsNV6s2AAhGqj+1apCEPFKeBV8cJfDWBI/dOAybntYxp0ERmdOvLRxZ8t9YGzEqdwfagxEM2gYJCsFsR8N4HL1n1OFxeBtqjVqBRkAQRpqo4nDC7WQI3nGdYnxw+sI2NBKWqIPWr1Q+fSCwr0p10LoEr9dFS05J6KnruKH6Xlc36Y3Z68SEnQQNpMAUYxxM1BRIpTPVE8D7pTblo+ok44keCQFCgBA4AQR86DXSgxXJS06snheJhvOBYXoVBzeNXjTKH9bUYEXXxnKtQcD/9P5TRFpwFXkocC59fQwEH8e/nPSh5qpCiUyZr3w+wqzybWsTv5KcNAJ0mmNMsCBsosMPZz0DaQrC0IlKEKJwO36CbyXq/XErLwRZXjsepS/6+fyuGnFnqlVXGxkxxAZqniThEc3U3HuhYKHhliFxLq2K+apqLy2rKo1IjLH+LKZF9KIspUZI1YnuTveEACFACBw7AmgPVcnaDgnesXDAlJoeVqkHywXMZrPob+knrD3vKbsr1IbyoJNuA5xM/F69A/M1iF5wqEp1/btjI/g4yRDnNOYwHvaghSPpbIFERhmz0chMIwwBJEurMgKDwZvTGGFShrB2IzJ2iPOxhHoGTD6nGxvZGcJKtyKCF9RYFtbk5kZzMTxP+shV4OBGwgp3NQgsmxD8XBMQqn2UDrEefB+vAQzqifbAqsMskh7zLUrPW/FckSpfLGTxfCc/jeCbMcjCRZvyiPFXQpvZ6EQXADJRyTjphhAgBAiB40Kg1A7MbcAs32WWJB1Ct6JsirjGedbR5+fFoDK5Yr+cHhLloxZ8kXdZ/WYrgg8mHSRxG2xujS5IWrdERGXtBK3IRQb1a334X/IGejhXoZt2bUbwugplCY1jJPh6ZPLOwVQkp8pyQoLDBgTvj8wYqzxqjQoFISGuiOYxbIgpBDFPLlz0qyp7LGRpbhrBK4PE2D1L2IrgXblyQYsJsip93Y3uCQFCgBA4TgTM2t64v6x1ubZ4s18w1azpIy5MW+Pb1Tb0O+k5/vxUZTpN0Y+n3673tBXBm4nFgb6udwhHefUzCgPtya4236oIqKOJS5N2Xq3ttSdYMsOIF5dvybC4VEsajAnBQ47SFVEJ4NTo3jyCt7nRBP+h6sWW8Yk8b0PwwlLekKeTInhL13TwQmnqeVS9F2ii0J/K4zYEr9qMDTlD/QhiYXshcOV5pB8hQAgQAseMABolq2Vsoj+Pr+3RHELUgHIr+6X484t7xzhnqo/ky4m7fGiuEz5yR3PM1QFpDXOuP80UU/BU5vVaj1sRPJqyGwiPA4Rr1ztd6HXbRkMEvu6crwkcyZGjBi6u3e4O0ciuY7aSj43sQuhVlRpEAMCJutFqyvlg9Z7HLwhDrwSRrnAzEzyPx3ZdpaVIkbwIu3m8arRrCLsBwaO5Oi71mOf+Fjhd0qvZiQalCuPFAhY4NZL6adbz2fnzlL9jIvhQm59y6ongJBPS1+ELXKUj3RAChAAhcEwI4L4eRkNtwQmGa25wlM7KUtOkWskqphCXBEvtNvJGK7IxC1La67NL8Fi+YV0QiAGQFBEqd7eVqD42XSaHKg8xHRJmJKM0mau01HtBGAYyleRvnitXcRw9XqWqVnEcG8Gn21nqSarEC4zs9HypDX1SUSQPCrdcg9xARc9XXXSltT8Dt96FKQonswlapdoKGyWQmfJC7wgBQoAQ2AIBk2FzAV/J/r+gD41zsdDsvtDGLFHOhvNuiuDjDXBmqWV2dmNYWhCRfqmnAsftRvBRpHNtrbPeQZvvrWo3pQb2cR5fl3BEYXJXO7vRTQj9mm2c38+FjSpOzC+b1PvCjRdIryhzGdLxi7Dl8epEKsLrBJ/bEXCTEXxB5fLXkuAxPjEhoHtX+RICkO6q36vy5QgeVV1iSkSVKQ6rxy+t5v1xqoELPNJXgaueB7onBAgBQmB7BOa99Dx4uu8p6PdL+uR5X8XnNLkhuPhN032d7ULVEzZPcTpNuZGaCJO+iryl3673dAwEzxPyYYgq9WKreb6jXQXa/Ykcgaey5/OtavPz7VHBLFS7F25Vi1bihjX4fFTYT+0sxIEUW5+atptV1u5RvpZjqOW2kGVQ64xg3BVzxKIRiHhxhJtT+VTkdq/GLXClmbghbKm0mEKv9EEuz8NNgjLK+Sic2qgIMTB5kLGLrWpx1C2t/xNH3PhBzGVltQCB3MIxG/8Surg9sRLuLFxD2oGuqE80uDz63k8y03RDCBAChEAOAX3fD0GgK69FfTJua6s2vskbD/tjzfAuoyVw6n0zJ2o5FvnSXq19+w7uEyMw/t7xjndE70u85MIdHuwz33/E/OAwdrt0hd28eYNdvXwp5zf34vCA7S4WTAW9xm7fusFWhTzc32U73wsYe+oSu3bzNrtxdVWIXMrGF3u7O3E5eBlu32LHFK0xrYvzcp/d//wX2fdu3mP/+qUX2C0sOG8posbe+MzH2fOf/hKacTSZ/5XfZFcvDjBUUkKAEHgCETh8+BfsU59oMnYdTete/gP2ykvP5EpxsPsW+7M//RL7668/YG/jP/Zui/3Sr7rsJetOzm/2xVF4WMRx7AQvIqYrIWBEYP9v2M9f+yj7Kjq6rQn73CfvKW+799nHb7/IkN4Zq3RZ+IeOJH7lie4IAUKAELg4CBDBX5y6Pgcl3WGvPfte9uqbcVFsr8Y+8YsfZgeTL7OXf/ezsnytic8+eY/G7xIQuiEECIELiQAR/IWs9ie30Ic799mn3vsie72gCLXelP2OQc1V4J1eEwKEACFwbhEggj+3VXueC3bAHvzN19j9v/8Ge/RDXs6n2ft+6mfZz/zsc+wODdzPc8VT2QgBQmADBIjgNwCLvBIChAAhQAgQAk8KAqdG8CLhJwUoyichQAgQAoQAIXAWESharSZ4tsi9rCxbWdGLhMsSIDdCgBAgBAgBQoAQKEegiMAFzxa5l8W6FcGXRUxuhAAhQAgQAoQAIbAdAkTw2+FHoQkBQoAQIAQIgTOJABH8mawWyhQhQAgQAoQAIbAdAkTw2+FHoQkBQoAQIAQIgTOJABH8mawWyhQhQAgQAoQAIbAdAqdK8Ae7D9m3vvs2e+qp4kKEIWPvfPePsZ+8s/rgmOJYyl0O9nbZ4bUn80CY/Z0H7NuPQiYgDNk72Qfv3WWXy4v8xLge7u2wybcfsh/ghjZPv+sW+9AHnik9uOcA/X9rXf94QNH+QXKwkQmRS5fXO+jIFJbeEQKEwBODwD5y0Tfe/Hv2/z7cYY8OGLt8+TJ7+upN9p4ffz+zfurD7JZ+WtjhHnsw+Q4Ly4grVXIksafezT7wzB15PsbB3gP2tft/y7658wh9XmZ3PvQ8+9jHLOMBWfsP/pK9/uffjGL8yK98kr1wZ/3efRuC3/q42FHDXv9MdsuD7niB1v7H+MOjZruN+KjZ+tB04vkxpnUiUeE565Y4elZcbZBnp59Imo8rUh96Sd1gy9baiRUdvRtmsxEu8AhZV/MnwsT+s97587iZPls5nQ6GLznD2RQfvSMECIEnDIFwBk3PNvQbov+Ir5XWUB7N6o8aK/3n+hKm+uVpV53/nvbnwWCe7dkW0ND6+F7OvRxvEX+5L7Pr1gQ/bpo65DSwIoPi2jgOIg7m0GtWUpXUGD2ZBN9ysng5K85mN1fm2XobQMdLl8txXbA1ondbYy3LWf82eF66bXntieaf3/IwVqoNiDYmr1YDnsRWkSkoPRIChIARgSU0c/1nut+RfQH2PW5zGMXij5vl/YbWT6nwcb8czruZsJk+yE73OYu+Egbsepy+sSgFL0X6Bc6lr0+F4JlVg3lptlY7mjQHTyrBN+1sg1SS4mokzqaP5Uj7gOwajJeJVIuj9HZFfBAWCGlW/2jsageknsefQF1+wB5MUsLxHGqJZOzUuzCdTWEymaT+pjOi97PZQihXhMD2CCyHm47EkaQDgKMRfNwvpwe1bhTfclDXSN+C7kx0VDOoSmEB/fqbl/nMEbzlNWEwHECv0wRXU02IjDLmGFXQwXIBs9ks+ptOZ7DwBUh5UEaNvGq2XEUfQuAvYT6fR/Hz62KxBD8oTkOkagq3MlgYwHIxh3lUHrzOF7D0sWUZfqFW7qj886VUJRm8H8OrABYCB8Qg++P1IPJdUgXZYKnnYd1OGrwDg2wS4QS8pNE7jVEUbtwU/vPCjS8/4ky78YfgJPE0x5t/OaK98bpJt4IQ8Ynb4dyAT6qggY91G/tdLM31m/JPD4QAIXBsCAwNPGBV2rDADzpcjKCaGzwxwKOoIZh2wMK+w7Ks3J9tCMO5y6n3UWcIMGnFU8Ixn9UjDWGI8Sl+YyAGm9OO0jK7rcmRyi3iPUrgExnBO01N9bocpNSycWbTKuj5qAMVW4zq0qNZ22vAaK51nMFYkoMoeO7qtaOKiADBEWOvWTXkQUvHdqE9mGXwC2HcbYBjFFDisB6OGuVIMwkdLsbQqOSFD5lH24NOyg5BqZnjxsbj9mCcFNkft1INh8ejyEyFlfHLsD60XK2MGM7DOahxrxE1bOUf/aBtxIAXZDGEqpOtBwvq3U0bJtoViFG318mQZwzUoGbH5XKawKk5mE9g0OtAsz1QdZdgqubL0gQfSDWbK/EKw9CYHlfnt6MpAwsa/YFhzs6B7hRBXwzAy9a5WwfsEzK/JdoXqI9X4Ok1WlBzYwzzUwqZKOiRECAEtkAA+xk73cfx77CrqYcnrfQ0H3cX5FuUsEkrYFV7sl9JjeCthOAn7VQ/3eBqAlADGcYqME2PIoqSz70XfUvOYY0XJ07wQlISmYyvoqP2oVsrIUOsDBGu3pvGxQlGctQm3HJXNKyKB40LRTRaXDn/iVutL1pGCH05AlV5MIZzWnKON5z3ywUJLQ9NaS+gkaF0F/iYVUmqgZaFNbmtKItMP++vXDuSbWkqbTFCz/qQI/yE4LPu4jmYD6AiCTf9kUzbSpL2qhUNewvcahMmYlogikzlyViPJWWP/LsdTfAIoFtJY2TJPKr3RWUXZaMrIUAIbIkACvSB70fa0tl0CuPRJBowRLGiprBq+C75CL7wh/ziZvsCnFPXB3Kzri7YW9Aez2HU0t/ZkdpeFy6qvewAsjAHOQfRX+Uc1nhxIgTPnAo0W02oV/PSU5zZeC5ionXQohBl1/YEpSJ/HYKPjRzS8yKq42UM1TLZSuTPwjjCIERYWKZ63awJqPRiwSAl2UXxW+DV6lB1bSmoqPJVEzsEHGmL0a7Mk9JwmOaKdIIvDmuKV8dgw3sUZEo+i0xT0zULopy6lwXUbZG+0lYoHwGOjqvgZnBrjXVdPwphNROuIl5+taAjP+Y0HnwaaRqp1H0U5tLt1GsOgMsGoT+FhqwbJXSlJHy3AdNkHmM+asdCRtKpEMGrGqU7QuCxIhBMpH2O6nN5n1Bu/5XvU2xpJyTzj3FXZF+t9zfxvVUboMJQ46ktbc5E/mX6G9ycDMGXFJ5nlqs7AFXtOUkJ3ZxaG0bjvnHuhKG6Nwix00XrajNBu5HldaXRj9Qp49RcSQx+tTNJ4JlrJCMqKenE9cpJyuKg9SVXugSzHlQ8JPtGE9rtDnS7PRhOYuLJE7yLSyYiBTT0UZ1bQbJvttrQ6XSh1x9G80QosTx2gnfcEq2J7WgjYYELXqVWZL3WNdPmnsTcVRwyRGlXjbzN9hgLqBnaUHMoNCw8JhQSNOncqbawHnAufDKEZsXWBKpqohrTcc4Y6+n1nZlSUNMAQuhCVb+c+kCNQgYONZ2AbTmxL8h4oUdCgBA4QQT8ac/ILZx7lOY0n4Fwlp5H5/5T081akBA1i/npTJwGbfQinhjWVB+kaz/DIICA/22grn/CCL4C3B7K162sRWfuanPn2OnmBQBlhairPwQATTFxrVWEuPWXc5iMxzAeD6HTrIFra+Ql0kfjv8jKsVRLYIHjelDDudbBeCbnZXg6o5I12RYSp1epQas7gFlGdVw8Ckec5Dyzyu82I/hWMjVgEn4stF2IRukLw1TDpuvJNUO6qH7QzqHeaEBFjohFeVSdirrCsTNMh30YYn0NOmmbgfowUZaFc+g0aihsubimXrP5SCIZaMY38QemEXyGxLm0LdpaNdHGiLwo/AXBK1W/ecmL0k4QwQsU6UoIPA4E+OBBV5WLPia+VrtZcVzPE9c6pv3zwccqq3dhqMuNo5fCInneUwNQ1HzygeHEYM/l1TuwzpJ4wW96bte9f4wjeBtqrX6k+uSZUx2nAjXduWodskbAYgOY/GjZbDzhz3BEV8P5WW20JwDLX0WF+obKVvlMhcMlYNw2i/+CjKFFyp8sQxxPTTY2czlFwzLh1BCOpaN/U7xIpjKveeM9VxpHKhKTZdiU4Dkes74kThlPhIODxGzHo+wVc/ARsLptw7pTBWhhbyeYx0Sr8MhJ5RrBNyW2UcpaO03ahua30jXNq2np0Ag+BpH+JwROHAGc1qslfUqmr+V9T6Nv+lZVpsJZdm07apprfeVh7bsQ7XOUoXIbyUHXZqb7QeQCNNLT9ZKmZEQYk9uqdydC8DYuJ/ADNHxYLpM/PzXS5ZkyEVetr5syqI5SFFBX565D8Km12NlKt0yNQRA8z+ECOrX03KzKB1aMFp9VVQ1hgSsCzEsD02H4/HCPr+UoJWkzTvXI5J3n0YxRzFFlbuZ4SwWHIxA8zyHP47DbRvuFOv41Ig0Gr2VZf8LuIfJb/J9cFrnGBxHFglM5Yv1pjuCzxKuRttKOxHlR7TRP8OmNekTeFe40gheY0JUQOEkESuxxnLrag6MkC2ODtX3rKEtvp5o1vdfFFCepQY5dbUO/oza+4TxS6ZRpFkByTUn2C51OhODX6diMKnoERE5NhKblcDh3moxATVuUplX0qqPVydhB6+rRNBYk5FItSdY6wceYhf4CxoM+zrW3oYGaAOOyuRxJ4Trq6Rj6vR60W6iWLpjzjnf0M+VT5UMRjBIQbG7EwX+oCrJl3oW7CLt5vIrcDGE3JfhgAdPxCO0pTPKpUmOLsgxxV8JoXWpFawNxKaP/pUDAkjl1vqQPcbUtBzpChaL5141cnOYIXVSZcu1zE4LHNRNiaU5kTKOnGd3jxhZkZJdDhV4QAieFgGm6MerzccpxjnuPRFb2crC5NMx/q75BcUUVysf8ptLo8eBmN7zr0wkf++rmmDPcMm0/lB1wZKIWecq8Xuvx1AgetE1KRAH41Wt0YTQaQD1ZS6y7MW2OXt9AQPixkbz55jrNaEmdQc3M51QSCWI5bqt5EkmSMTlOu3WwbRs3QBCkyUAtodMtxBN3TvDBFPOMhKOv59esJ03q+5hQ9UYh0hMkbR5p8/LauO2r0dBQzhttHu9xErxaSuLINeqiRerCndBG9KpCraWs1YV//ErkaFzsLa+r1GzDB6K3j3jfAIXHdgSPowUtr1KZkmR21q1KiTuXjioQ3REChMAxIGDqVwUfFF3rcolykgGDwbe+7n3dbC61/e2Fep9vgKP3061ohBqkDKtX9ROiHOvmQ/d3egSPuUjvCCTIrfiqj9SUdXPef6wyVyMtAVB0xRGfl1l+pdzjOep5T3XSyg1JFa3nK6awfFUAzqSYLL/5tEIltUZb5Fds06qIR6WlCD6Y5OfKlT8Rl34VYcvjNWkGjpPgQ01ytWu4IVAiWC3GHaV10ASg5VDb6hGXnok17OFyAg1ptY7qLGm7gKsgNAGs3psk2p8QJj0tLlTpx/oahUfug9poBI8mgClrWxc6uPaW72Y3aKfbTS4d/cuje0KAENgagbwWVu8Lzfeqn4uTD7S+SvStOTudlTnVV/XYcvdOvgW3TvDxBjiz1DI7u1G+P73I08osGDycKsFztWmnassRjyiI6VoTG90khUh3spmKTFTmpnkVU9z6u3gThDR56O75exeGCXstUvsRZ/IktQTxe1dWqlnTIIwJs8vB8uln0xEj4PJ4VxG83IlO5HtTFT3ajq7aDCY9x8X9i1F8XCZL14bwfAgr/6QN5KX37P4GuIZ1lszpYFsTZcoRr7ZqIvvxK5wErnHiE20ZYFGdmDQLhm+QXhEChMCREFBnURR9g6b32W98rh0GI/xn/azKnh5HPCUoQkxTZM5wNVHVSy9TLlu6x2MReRIxbnLdnuANxgnpAq7OzmzYAS/bmSfE4lQyW9Vq0c30kZogIn6VltkBDFvpUZUAi6+bHo+7uV3xpOFUMMNlWPG8sAiTvuImNhiH3EclyVe07W5uu1dFwhZuVdvq60YVBpU/U9buUbTLMdQMcdY6I9xON1s+sXEMjli1kW+c94q0YTBugSstyA1hJaZaBay8XeLxr/qa94S4nSr0p6Ztc7C+2rWUxBvnG4+Lbcf7EGST9Gfm9agWbi87EmqDKJDYqpafKJVZVocbV4i98dU2wHFKSojIL+dbYvvR261lV6DTx3eJZiG9KiSbc3omBAiBrRAwqNbTfbTqd/X32ZUypg3XVpFuKt+4JFhtfKO2zRZ+fJwO1tPX7/keIdLuTATIXIX/zOu1Ht/BfWEExt9WB80bYyx/ebC3yxZ+kHi6xK7dvs1uXL5UHujwgO3uLVkQHLJLly6xK1eus2s3rrJUqMN9trOzZIc8pktX2M3bt9jVlIeyJA7Z/p7PHgUBOzyMYsAorrGbt26wyyXBDg/2me8/ivKVhGLXbt5kN66WhSqJEJ32dneYj+XcvAzl8Z606+H+HttZ+lEyV67dZLewfkp/SX09deUS4sfYzTt3VtbX/t4OW/qHDPeiZ1eu/xi7c2tFGqUZKHfcf3CfffH+99i9F36BvXDvBsOGgXWSNKiDN9jHrzzPvoRR4KoE9tvPnVw+ynNJroQAIfA4EDh8+BfsU59oMnYd10a9/AfslZeeySV7sPsW+7M//RL7668/YG/jP/Zui/3Sr7rsJetOzm/2xTY8fKYIPlsweiYEziICb7z28+z5V7+KWfPYOPhjZkmZ7ZDdf+2X2YuvcnpnDI+MZM7dtSXJKAz9RwgQAoSAjgARvI4G3RMCJ4zA7v3X2O0XX01SsVmt+Qn24esH7Mt/8jL77FeT126b+Z/7NUbj9xOuDIqeEDjnCBDBn/MKpuKdNQRwpP6Z32Ivfvqz5ow5dTb9wivsGTmyN3ujt4QAIUAIrEKACH4VQuROCJwAAge7D9jX/uo++8bOoyj2p3/0fewjz30U5+VvnUBqFCUhQAhcRASI4C9irVOZCQFCgBAgBM49AqdG8CLhc48wFZAQIAQIAUKAEDhBBIoWtAmeLXIvy9JWVvQi4bIEyI0QIAQIAUKAECAEyhEoInDBs0XuZbFuRfBlEZMbIUAIEAKEACFACGyHABH8dvhRaEKAECAECAFC4EwiQAR/JquFMkUIEAKEACFACGyHABH8dvhRaEKAECAECAFC4EwiQAR/JquFMkUIEAKEACFACGyHwKkR/P7OA/btfwrZU09tWICQsXf++AfY3RvHtU83Hjize8huHdcBI4d77MHkOywUBcMDTN754x/E/B5ha7L9XfbG14ds/A//yB798Gn29NOI1eXr7H33LPb8Ryx26whRboh23vvBLnvrW99lsuKwPq5jfdw5tvrIJ8nf7D58i30Xz1mImwsm+tR72L1nTmdTmL2HD9h33sa2m2QVa5h98N7d0gOEzKU6nrf8oKXDa5scgnQ86W4XyyHbeTBhD3d/EEXz9L+4xd7/4WdYcTPa1H8md3iw1P5BfHRTxiX9eOkyu7rqkKp0CHq60Agcst0HYzb82zHbeXSA/fNldv3pq+zme36c/UvrI+xuQSd9sIcbXd3/W/bNaKOry+zOh55nH/uYZdyeev/BX7LX//ybEcof+ZVPshfurN/xb0PwWxwXi+dr2+bj+LAUhcfjCTerXn7IPS4JWOs3G/EjOzE9qwHLtUKs9uSPGrn8b57fJfTwuFlR3qKrV+/CfNV5gauzvJEPc/lGG8WxuWcfGskxqhKLY6yzzfJjyAuzYWg6wXaziDf37c+g24iP1K0Pj6sFb56NTUMs8KhcN1uf0XdvQb07yUW3qf9cBPhi1Eifoy3bUa6/yRy3bIqM3hECiIA/7cX8kWtDisOcajvXR0+7tYK+3YNBrkNfpPq+Xs69vCpEOy/3ZXbdiuBbjgJBZGLdq9PYjlDmSOwVTuyiYo50XrkZFH/cVPEm8W+U38VQni8u8yfyabpaNZg9RpLfunxm2Fa8xTPms+3lGOtsReIZZ0NemAOjx0nwwRx6zbQA2Bg9GQQfTNLnW1uOC55rp74Zr6NIflP/mcqSj6NGOo3ib8s5HWFN5pRunggEFgOwTf2x6Z3TkgPIcN5NtXU8JDb9bKcHm4u+EgbsIwxsRTs/CqZbEXwz22GbgCl4txFhZksWjPIVc4xksR0BLqBuHNlowogBk63wyOKz4nm78q2IvNDZQKp2Ex4np6qsGfLymAneRFZPBsGj5k5+9za0R3MJazAbaIKtC5NIaN3Uv4wudxMsZjCZTDJ/U5jNJ6kRUkUTLnKR0AtCIEFgWDcIjJYLtWqsURPEKq7NcdxbjZuuRuixtmg5qGvvLMCjopNUZlCV/T36PUKHJ9I/SsVtRfC5EZksSDmZ8QzbmRF8sFzAbDaL/qbTGSx8AZChWP4QnGxaGakpHSqEwF/CfD6P4ufXxWIJfmBOYxsCnGvSmqgYcXVrDWjUK2Bl8x4946jDNIALA1gu5jCPsMHrfAHLpQ/mnKdLLZ8CLDuGn2OZeThj+ZrxiMtfJPWA6QQyguKb9evNQKqS4MOojFH9Y7obla04a8olKf8M630ZtasQ2pKkRFtdPYLn9TCbYRzGdrNZGzOpm1eq6AM/aQdYl7wNr9kOTG3fWASFWPGd9u15bTVKFwH8oZreak2wN9vUv4hog2swbsnO1ar2zO2HYzeP+5fFcp2WvUEGyOsTiIAueIo+oJIIpQCLFGHH7l5nGpVz0tIFgHo0sg+nHdkGeX8vhPVpR2np3Fb+e1kHOMEf6/jN+tmC4DEq/GiWvg9+8hcEM+Po1a71wUeiEv587JhEBzMfdVDVnlFxJARoew0YzdMf4zgFrqiY9LXNOxb+CxeoBq3mR/s6wdoutAez2H/yv5EAMwJJKoB8MJBYlJYNnbHG3suRNtJReReNgke3GPegmlF7iooWV7fWhpkGTzBRHV3sx4Nur5UpfwVG/yk/BcFwBFtxs/XgQCuDjSjqpvWGPb1BRY/1O2znhTXLg/40kZZburQcY+W2xiIb0XVQz87N2jBYcCcf+hk1OMfFrZrahCB4H9quqhPu32t2oVW1Ux9wRZDbpm0sGBvrXtRpdPXaaeFqOcX08zjEYSzwsB1MteYVgxPCuNsAp0SbxO0/IpjiAOv9H0yg5tiRkNpKRjR6QL0NNrjEuql/PbK17qfaCMmDifY9xMHNtjBeowW1pL2bBJW1kiZPTzAChv6IVeX3EE7T01D8W6v2Yp5IjeCthOAz01aNEW+IE+1br8D0iCMX0TccBeztCD6Xogk0Bk7TNN/uQ7eW7ZjTHasoWL0XS048uRS4EXnmw8REudBUiXk/Im5xrfWVqvHIBI9TB64hTybJbTHAztetQrPdg9FklhoVLrVRkMhf4RUbmMi5Kd+5cDhq/i8GG4OcP60c1a7Cn5PmUerNSPBaGvn0XRjjN6IThvST0tbMoZYlMbRpmGM+297qepdxShW9SbLPxxORF3YHSl2d96Pijt2iNoZtJKd9yuKAdST4ejlqFWh8suk5KNSIHiSEvkn9mE2HP2tzi7nP+QgvJlIgQyFLFKIknk39Z6NS4RnU+llxJYBuJY2TlW0riMHjnB7L5p+eTw8BkxbNrXdgPO5DNafhY9CextLjrKtG5Xz+vT2ew6ilv7OB87veNoVwcJTSin7kSGHLAm0ecQHBG0a/k7au5kh/hCJd/dpORPNRc7VQwAk+PSeix2+ZO0yNNExEuVYnUNB5R6rKMqBTbsVz+JaVHWHH5aoP447NlG8dQ35fw6HtOv7S4WKy5dk8ar1tTvAMKpFKbAkNW68/fm9BL+nLw1laNcbzzQWq5VCfE8uGNz2rEfzKqScUqnjyR2pj/joEnxjpaOrtdH2Y2wHDNhzBYmiHllOBet2kuUCce0JETDXEjR+CSUd9W3aMUVkkm/rPxaXjg4JKdnozJSi7DZgm037zUTvWaiVkv9a3nUucXjzxCPiojcr1Laa+AfuUxkBN/aBWqoL9TPqbVM9WbYAjE+07jwYcR0dLpHOUGB7PCD5L8KimNI10HVQ1jrj0ZALd60Rqy2kPR74FKn3X88B1K9BHtb5JlV+VxjdzqOfSUJa3JgJcqxPASs2Xa8MlO1yFmx1lWFUQsw6mOX5hz2DKd9w4bPA8GxtkFbiSqdAfJ4GaWRVc5SSwRb2VEbzjmoU2gfm8V819TDH5A0xzgqIN/UVezS5wqDVqmSkL8WGuJnjb9aLRd6WbqOoM00Ur29jeFBqeq4hQ7yhwushDt0qjH3UmphGGXevGRBbOoeXlib7JrXj0ziWJ32kOo+8nmPWg4mE9N5rQbneg2+3BcLLGUHtF7xJivLZWllVC7ab+TcmPpbaAQX66INCmWlA9molAXyoq2lnGCz2eewRQw7Omlo8PjPRfOB/gKD///XmNXvSdDWu8v437Ft22JgwCCPifULbpkRbci3gKnEtfnwrB+yPDHLCrzTsWEaUQ0UODgIASfKxAyZfXX85hMh6j6mUInWYNXFt06vpVdPBmAlyrEzDmez1VZT7X+CZEw6DpBPM9hmGvA7WKmXxF3szE7aDAk8SeNCqjPycZ/aFXk3DEhYjt6s2s3Wkk2geT4CLKBaE+l5XUmdNGEkRjucx8OXP5SM6sZhcqtiy5xB+QqH9zPrkdSdlv0zamq+/EB9zkcxLytzTuM9EcTtHQbgpTNLIbagQn4ogwK9USWDg15EEN56AH45kalch0N78Jpt0UuaendPLxbeo/HwN/o1kna1Mayq9qA+alSagpS/oB2c5UYLo79wj40KnEBJ01eraN/MCgmfRVOjS6kXFswIuu854S4BNemhjsYTycDlhnSbz4tvV0170/HYI3zAFHI0SZa1Mnq0bYyDT5kbLhI/dnQ2jWKmBnR8SJZCWAi6+ig9+C4As61oZhbUSAVpc2qportSb0R1M0QpSFxxsfhp0mGr3ZUgpM51UXTNQcopG4vW6uEzf50zvBwFA/vBM0hVu/3kx1ikZRSbmL0hSo5EezLgxneWPFaiTNGNLSpmBQuW4wBhX1bwiL7aUjl72IHMXXo7Yxky2JbmTJ28DKqQJDO3aa3AARO681RybMrkEytZgu2JpPs76ymudtdBW5b+q/KBu6bYZxflMTtoXGJR2XwpcIPo3MhXjC6R079/1UYJjYsUxMG9kYpoHyWIVo96FG9nxQMdMs6XP9uGZDlY8rfiPCFLmXvT8zBJ82kFEfnygct/KWO41pH690R4IXA3xe4KVJSyAq1DIRp+jgtyB400gT09TJU1TGoJbPQ2zNiyM3g4GHKKdJWBEdlImA4w5fpBpfTf7s+kh6KiJbU7j1681Qp9reBaa4RbmijC00qTipR9vJqvaFrYAhrZQAiPP6OaFP1L8hLDNPs2zTxk6K4LnRXPwdLKBTMN0i2pK4WtVy7YRsGJmbYTNtR9McCFVRxmPyuKl/cyzx26Hc1U7rF/QAWh+RXXURe1P1nGpnehx0f24RMPU3rIpz5/I311ZniAEVTnGmBmLSs7wJdOt7HFyh1VJqMGrjrnj9jtr4hn+DYrpRRpK5Ed9p5vVaj6dD8Cby1UeaqIL3kk5cFI4xbQmMaaScqELiUquPV4XHkW61CaNpPJeSJ1jRwW9B8Jh4Pt64cdS642QkjfYBmQoWeeRW1saGh8JNszeCBdfgLvs5yVN0UKawwk1vDSZ/sWo79mUypOOGa0YV/dr1ZqgTTSgz5Smd92DlqFQRlVLPCmy5YZ4cheMOVnlLdlH/hnxKC/sUisYR9rptbGwwFk2r6E1lYFDHdjAZj2A04lNO8Z+++ct0np5PD/0FjAd9nGtvQwO1WcZlcynthl7G4vtharMPB3r6ek1DsE39G6LQXmnq+cQ2R3NMbtUUR2T0lPOAcZCRXQ6Vi/LC2JdVdEF3ajCk86KVPcUY6X0HbnbD5V2d8JHTmmMuIaQ1iOl+Lh+76MPyLqvfnArB65tfiMzzq9foYsc1gHpuPTaSpD5HjyPlvBUjkmC3C816E1WOps4RO/BE+lqO22qORAoSooPfjuBNVt2qjAUW/FEe4sZjJjqx7nsJ7YpS/4h4RQMxh1Ujc9EcTP54XJZXh1bB/vnRNINutSxxW7fe9MafSMQbETzWi+GMAIEBv4qdptB4AXrVPE5cC9RoNVMStQov6t+QzwKCz2ta1m9j+gYYIg82CqA9nJppJstC89MS3Jq3n9ia4Bp/3MPesh00zKtAtVaHRrMJXdxZbtqtg23jWnVNS6GWgXJBKYPNhgQ/62pGj6jiz689Fy0tvm7qPx3a8KS1w/QUke4XlwrKNsCXEOpuOIOvlUF8P2kf9HSuEViatqm1oTXkrMy/LYO9k9ZfmbBZav2Tldjs8A1w9Dn+VvSxBKnBwar2J/oHU5qr3p0OwWOu0rsBCRVI8bWTmig0dcIiLC6hwt3QjAfhWNgZFs5rKzWsiQBXVYIOtG7dKypn1VXs3V1EYg5aV9saqerxCTX8uvk2+dPjy9/jDk+J/dfR681QZ9oHY8pTHnPDmneJCe7nr1WCaaOKfLlEm+HXTQlejRBT8a7ZxkzTICIeqYnYZK/sBIcujqRNqw543DYKAka7Dtz9be1fZiWF1x7gZkUDGAzSf/3+AGZ8rmBT/1FGQhigoOm6uKpArBrQMqi3FSXUaR6S27Sw7UJnNIl2sxu0NQEFccm3s3xc9Oa8IYB9iew79H6g+L58QyR9ebMyrOb71usEH2+AM0sNUO1G+cFrol84Sg0cO8HnRzVFHxAaAmV2BxMFyV5r2kY3cSHzG1joYfgmJEchWbG0R+9ARLybdQIB9NbcxIfH7+hrLH3T9ERxo4vyh9oN3peum2+TP1FO01Wss4+xP2q9GbQqGxM8arwKDFaEkKM+AhzB1ey1jBTjMou5XEM+kfyl/YdKYKs2liafTP1qI2q+IZKpTkzvGnIOHJeBaqN3k1/1Do0V5QY5WuEKbqed9Ly7iidTBmzXfHnQpv7jZDXhCdtIetJBb+dCKCvILL6eFLQXPd9imWlxLORyHhEI0drdXpfk0V4o2w51TPRVQOmN3TKqflwKW/XStkPNFYdMibaqp7fu/TETvEH9hwCajVziLM6GHTyuL6MyTEB3KvmtamXBwinUDesQORixVB/gMqK0pC6AcqotnL/s5uZhRT6zp1/xcMJNpr/GzWzYLd1ulm8+0hnq48440mA+NK6xZDg6bA3G0MttzZrs+qbtyS3KapI6/Zw/POJwMsQtSLOddPFWtZvXG47gs0vapEEYDvQyWz1GmEcW4Rmg/UFKIo7Lyee7TNYvAQwyhmBRvLhFaz+18xQvt5hfM+RTumXygsryo7YxHtOsV7AZj2Z8yP0tJ+XbFjuVOgyye9XittEdHAXrowfRJgRmHn4HYn8Fns46vyIBKx133I742vRN/cd50PoRrY2I/Kl9wtc7vGOJ37rex1g2fnd9fJcIQcVqfpEiXc8rAuF8BI1KmnBTbRn73DpqqXQD7hwWqSljYeirfPk4JZyKM+E3/s6px3teKN/5OxE277L6zTu4F4zA+NvqoHljjMUvD/Z22cIPEg+X2LXbt9mNy5eKAyQuPNwyCNjh4SV26coVdv3aNXZVD3e4z3Z2luyQ+790hd28fYtdXR3tynQ38nCwz3b9Rwyzya5cOmQB5nWd8u3v7mDZopyzK9dusls3rm6U7FE8izQvXbrGbt+5wVZBddR62yRvB/t7jF2+wS4jdm9+/nfZs7/+79PBnSbzu7/JitA53N9lO99D8J9C3G9iuzruBrBNGzs8YLt7S2wbh+zSpUvsypXr7BrWswn3Q2xHe9iOQvTLW8WlpD3rzT0NDH86ZPt7PnsUfSNxW7p05Rq7eQvxzHs+V2/2H9xnX7z/PXbvhV9gL9y7gVBg+RHj6HfwBvv4lefZl/AB7UvYbz9X1HrOFSRUmCIE8Dvcw+8kCDmXoCdsJ9eu38S+YvVXcvjwL9inPtFk7Dqa8r78B+yVl57JpXKw+xb7sz/9Evvrrz9gb+M/9m6L/dKvuuwl607Ob/bFNjx8Zgg+Wyh6JgQiBA7eZL9x5Vn2egkcOAJjv//S6g+lJApyOocIvPHaz7PnX/0qlsxj4+CPmSX76kN2/7VfZi++yumdMTzakzl3TSJV5Ez/EQKnigAR/KnCT4mfLAJ77I8+fpO9HPfFhqSqbAa/z+4aXOjVxUZg9/5r7PaLryYg2KzW/AT78PUD9uU/eZl99qvJa7fN/M/9WqH252IjSKU/CwgQwZ+FWqA8nBAC++wzz15jn37TFL3DutMvMOcZOTQzeaJ3FxYBHKl/5rfYi5/+rBkBp86mX3iFUfMxw0NvzwYCRPBnox4oFyeEwMM377O//3++x5bf/z579MMfsgP2NLv3U/89+7kXLXaDNKsnhPr5ifZg9wH72l/dZ9/YeRQV6ukffR/7yHMfxXn5W+enkFSSc4sAEfy5rVoqGCFACBAChMBFRuDcELwoyEWuTCo7IUAIEAKEwMVDoGhBm+DFIvcypM6UFb0oSFmGyY0QIAQIAUKAEDhvCBQRuODFIvcyHM4UwZdllNwIAUKAECAECIGLhgAR/EWrcSovIUAIEAKEwIVAgAj+QlQzFZIQIAQIAULgoiFwrgj+cG+HTb7ziD31lKkan2LvvH6d3cbtZo3bcx7usQeT77C3n/oR9sF7d8/9Vpwcod0Hb7HvhrgLqwku7V3I3ikx2dt5wL7zT2+zH3nPB9ndW/Ea8r2H+O6f0++04Gfo9oDtvPUt9vC//gDz9DS7dfdD7Jk7R9tmlOPw7Ye77IcYz7vu/AT7wN1bxi1iz1DhKSuEACFwwRDYhuCP+bAZNAPY8jdq2IUb82O9SrdKoweZI56188Jt4+lfm2RtPmyB67XKDxnYJMIT8etDY+1TwwQmeFpaEsaqi2MKVTzq3YlkeKtI/WlPHhCitwXLrcFogxPRwJ9A3TUccISHkGxystpWhaHAhAAhQAisgYDo69bwmvNy5ozs3vyj32DPvly287gmvllVNvmPv8/uJRuZ7b/xGXbt+U+jB5sN/a+wF442sGP7b/4Ru/bsyxgNHmLyleJDTLScnNLtPvs/P36NfapwG1c9Ww5i0kVM1M5wSOZs/MoL6EnFg8fisu5vP6cHPBP3Bw8+z6584NdVXmyHude/zV7/ktjizmUj/3Ns9ZkhO+z3nn0v+10RzHYxnv+sxVNhk+APZZtSCdIdIUAInGUEuPb3777+d+ytb+7gZlh4PtXl6+zqzZvsx9//L9lHrBUaXdT+vjm8z0b/8I/RRlqXL1/GsO9h/82HnmXP3rtj1Owd7OEGSvf/ln0z2kDpMrvzoefZxz5mGbc93n/wl+z1P/9mBN9HfuWT7IU76+++ea5G8OOmm4zSbejPAwiDAILoz4flYg7jAR4vq49aKz2QB4X6M+j3etDrDWEpX+aEmpUv5HnpmWM7VwZ87B7waNPkiFe7PoAgDBOsBGbi6oOPGIrffDSAbrcHQ3nEqIpns3PvRYwnfcXzwbWjbKudsUxwMWrJI1GtqtYWpI/0zbynjhCutEbScdKtSe1Q+jxn6YVuCAFC4CwiEM6hXRO8obS8yKbym2bMhe7YfKL7rN8sPxferkL2yPap1l+k08Gjt3NHVy9SmtZezr0cVBF/uS+z65lT0SuCd2BUdAhvMIGKVnnttQ+1DmExn8Fsxv/m4BcIActRM24YdhPMTQLPL/eXMI/imsN8sURyNQMs34Y+zDHd+aKoUNLnBjfHRcxaPMkZ7FyY4jjxsq0u2iLBdP3y+VH8xXWQAmE5kB8gF2Syv2nHSz7kkjYTBcLpCSEo4DnjSuSJY+xXhdq+BvNsIvw5wDpM2s9imQ1tCkDvCAFC4GQR8KHt6kReds8HjenebCgHlGXhuFsFJsknH867muDA3US/kcRhN1K8seirwYMtp0XXR+XiETxiE4xbEmQBWjBpJ+/cnHAwG7TA0YSCGDQLqu2h1tEXNBYkA0HLixFqEOxMhSbxeo2+9Ad4Fzc8C+ptnM/X0/4fPi3z3syKhrzeQyXAVHuzkpagEXNDjUZLAqBTAB0vzr+bkDnPq9AEWF4d6hVb5i/CyXKhPTRQXjCDVtVJ+8VyWk4Nhqh90X+ibiy3Du26Lm1bsEpA84XAhXF3pul4ozQ0AQDP9taTTd8HY1kPlc407YZP/qghy9JOpbOEXqMi3cQH5zVaUEvm8r32JBcfvSAECIGTRcDXeEB8l5xwvYonBwXqPQNb6yeDqeCLhJhFP16tGMO6rVhzqAahPBxyDXZJy0Fd6x8swCOIk4LPoCr7/jwvrYOOyP86frN+nswRfFSKOdSEqj5RpUvVOnNSRnajlhjhJRVpZQja6yTErIhOgBpdcSTPaWMxUAQQvcd4LJGHpBKdpBFw0pSjRVnBcfrW/9ICL3ln6VMMSe0sZGPRG0q26vizyq8jydrkT3+n8qXU8SoevdzZsjWGmlmjP5JliMNksUgTt6qb9MfEP8ZVKitF8Ol6laXyh/KDbI6LCV7/oI2CAJZJCIENKXgF0K2k85zFhZdfYSlzRTeEACFwogiE0PXS3yb/FltJHxDOunL6TvRr6jsNoSc1diqOWjKgCuVgUbm5qD3ktD1J8Uk9Gq2H045G8AxE/zHtqIGB2zraIEDk/ShQPsEEr5FSQsCKRJSqNqVOsSowmCUEEOC8jTZSrQ0UeS2GCZGjqmXO57XxD+kdGraobBf6cv4aXcZdOTJEw7xEPaPlj5M5jlwHoxGOXqvQxSmFQd1OGkQsAarK4yPsJJ2VNgBaGmgB3mq1DH9NaLb0FQcqjGrs6l3UmOw6jBMjhvmoLcmTMaG6xo9DI71Ka5AISAAp/1ZdrnRQdcPLhlqNzgBG/TZU611Ng6JQ0O8C7eOp9vKaBF16FlK2Hl7cK0EBVXWquoUzKjdGsh7FB7oUbSGqwwZMk3kdWc5EwFNYqujojhAgBE4WgZBPlU4nMOh3oYl9a6XWkerxLOnyvs1uJCuH8FsXwrwgUIb9lZiSDYMFjIcjmOGUqhiLi5KkRvBJmKxA0ODDephog6AKTLMRiQhXXEX+VngzOj/BBA8ggS4h+EFNEekwN7jTiE1Tw0sy0gkW1bti1F3p5tXm01aidpZhtLiZB2Ne39pPH01W+xppaermcvU8j0xPIxEKOBHl/iwYyLKrMIqU1DuucsrmVZ9DavGJqEVfkr6KQxUuGCc2DJgPMaKWmOK7jSXZcKrZXKBwNdPAXAxlvfBym/IjcqYwF0sGhUtyzRF8oM3v4Qea8a6r9MvSzQSjR0KAEDhBBJbjAXTaDdlH6f2hHMhp03XSHacWO+16OpzlQKM3TpH8rKtG5Xyw0h7PYdTS39mR2n4iOAH7pdV9eTEgIn/FPopdnmCCF3PcSGiFBI/W17YgPCSG8RhGKJUNo78hjMYjNSq3aiBoW5JREq8JvhANrrgh2mQ8hC42Jk+kI8NopFnpphpIHN8C6iKM25ajWKXSWWe+RksDG5rjuuA4Tu7Pduqa9KjCKFJS74Q9Q6rM2sfA55pTxNbswxg1EzGmeB0hxj01HyUatsQU89mR81OpVEofpu30NItbrUOjpn9UcT2XTVUEE2G3UaDqzxG8ms4w4oL6CVGHCsvSYpAjIUAInCgCae2iIEd+1fsG1RfE/YaF7rrf7L1VEdO4mPmMkXfObw0NgXUNAXKLNoTbuPQi/o0DYoAnmuCFYZhQiysSESp6RVwCpOKrGtXJeCRZC2hRtY4SnpOZd0/FKcOotPWGJWLiV2X9LVTGSylwmObm9bDx/eo0SsNIg5NV8WjuGEbis+Kj4LgIYlRhslMS+Rya3wTQb+jGeeqDdDxlFNMsMbLbWEWvEb5Ja6NrUIjgzbVGbwmBx4uAPqhTfUTUR+M0Zi8xnlX9UcZPSZ+m9wHhfABVJ2PLhWE93ICN6xeHNVsKDPWhUPyj/XS05BuXL2+grhf8chQcn1yCRylKqMxZMgJWlWYmeNfzwCv4c3A3NKGalvFIsubQosZAzI1rjcCyHajU63LuVmgT1ur8NXW810EZb9GTjaKMqFRFp4lXvS+7M4VR78xz2NpINkvwtluIqec6UO1MosxITNEAsoSDyzIexzMbQquBlv6IeQOt2AcT/HhQwyDm08TcuTEiNMZT/uSchfKacufxqjn5IlyEkEkEr2CkO0Lg9BDQp9VM5O0C51vVH6X9WF4LJqiZHbbVfhmCYPkcfXYkHizVEuGlWHc97ynjvmQ57qTbyA0MvXoHbbxWIyXSX+0z7+OJJfiJprIVhleq0gSJKGKyqv186aM3Afh+2pBCxmOal+fkjgZzo9kiJYXNRH6kUKBIs7jz1wzqvDZqB4TKuSqnCwoynbxeJ41sDKYwpndaOE3dxFXuaiSMFvAmYzUMGiCmviamSkyPSPDL2TSaXtGn30UOlZGd0IQIl8xVs5L3DMvk9HgGkdCtRgMWV7vlfrgEhozscqjQC0LgVBEIcYSMGQiXY6iJfS+0QRkfUav+SCf4dL+bt7IvmNpLFRYt+ytqZM+X2840S3pB1vJqEBpS0eGD8Jt9v87zGSZ4NPYqkG703ct0ozBVaYLg+XyMANvG5VhZSBSxMTSEExsZqHiUYZV6Z0Pc+euVVX83AABAAElEQVRxoYW9aEgGI7tigsf1k7qVdtII199JTeW/LA09p2bNgoqHsWrOmGzWVdIsN7LTl5+YBCd9jwI3WR+u8BN1k85V+ZMysrObahe7OIy2yx1+LAXyRhI9llNsipHZjAJFErV6Qc6ZhaA2v3FAW2gRxafjsj7+5SUlV0KAENgcAa765jZR0+k8Ze8076lNZgRRRmvhNW2deM83s9H7D91ILvazuu9ShrwoOHhdLMhEaXexf7erbeh30nky7cmhIyDyp79b9/4MEzyDencAw8EABvyv30djthZUPVtKNLzgVc2i3UQiKcCRxOXytnCZmtOVyycQORUPrmfsj4HvWqYblnm4xamQPULcHldfbqcEDkWapZ1/ykKcS5O49n0dvU1Uw2umkWoNpjDqXdSY3CaIfWpmg6ZSN1mN5ANAMhREiXXAN/gRWwMvp32tQaPEG42EdUxXfySp7EYPGvmiBqAzTj5DXMrSramNdvTVCOG8DxU0OnQdDzraTof6igC71k2WxQQwaCojPn10H8709a0udEaTaDe7QUaFV1rH+QLRG0KAENgaAR86uNFWel8KK7UHStriPR6t16JVSzO1j0oysGJSsI8zNqyrvmU9gtf7Ud6PYzyZzXSa0ah1CXXNjmtV33FuCV4UrOjKiVb/KWJOq1IGjWxFxRWt4k1brOtkHvtBUvr/1Hxs9M6y0Vo9LWzEfoWaWE0PrKrAoZ4/qQHQS1Z0v34aKgZTGPVOYZLFCK3fp9q89WIg57OLwujz1kV1o/JVfqevhY/xF5qZJJ9oh6HlLiWQpeflF5kNiHCDHvGBR1e1mkLkaFKmYkvC6jtkiXB0JQQIgZNEgKvDs/0UjpITwT2YD6GiEanop1qJwJ8ncLS0x7AL3PeE73OR7hcwnZzWL122pbYTplWLp4T5Wnw9nmiZMWoLhe0Oz9MqfhD5Tqe23tOZG8Hrc+uiYOpqge24UG20cQ5c787jwortUKPtAzPOUzxQQBhYqfgQ3GoTJmL4KTFbRpKh8hcLDD6OTit2vkG5uLnCVBu5xhKiWsanE51MQrvRR4m6pabmpeAWJcZkJK22nS3wKl+jEUpuq1r+Li5XHQ+hqYvphoS8GB62MBBDehkP3vhTaFYMwhOuHW32JlLLwYOk6kZbxq5Ht+p+iRsKpQ4aivKH2w239C2C41h0zU3eYHGJI/+8Rb5daeJGNuZcRGnbSqiw0CK3g5triPwIOxBzaHpLCBACJ4GA/p2r/jrfR0s3fZSu2eRId9HnGa7l/TgumZXChJrG5Rut6QQfb4Az0/b10DbfKQBI5K3AufT1mSP40txu7Zg+bEZaPRbEG611X6JBhmYsxr2Kg1hm80XhgTUFURpfLwZiTuYo6mtjlFu+RJyiA3niw2ZWRRb6ypJ0Pl99OM2q+MrdQ1jigS9Tnr8t8Y8sYKfT6KCcosNj/OkAdwfswJBb6/NftKthfKuvdTVufZt4owshQAicHAKTjrIREmRovubtaBZDtSmXOUwiLOB25mXjkrl2oEzahkrZD0Xx46qjqpceFBnPI9HgEvnSXq19e8EIfm1cHp/HYCrngvhxp/Q7WwiM5JbC2d0IQ9xuWH2o6nCJs5V/yg0hcBEQWIy6UDGsS4/JEQ+fqeHyt5ymNkaGC/H1DOkKUmWojay31VbcRiy1w8GUDZby6Y/Nh9rwNJx6P6XpVKHUnciLerP+3Tu4V4zA+NvqoHljjPRSIPDwL36P/dtX/pKxN7/K3kxe4pIK9mvPXBZe6HoGENi9/xq7/eKrSU5sVmt+gn34+gH78p+8zD771eS122b+536NXT0D+aUsEAIXGYHDg322t3zEgsPDCIZLl66xm7dvsMuX1kAFw+7qYa/cZHdurf6qDx/+BfvUJ5qMXUcT6Zf/gL3y0jO5xA5232J/9qdfYn/99QfsbfzH3m2xX/pVl71k3cn5zb7YhoeJ4LNoPqbnB1/8n9gH/t1nZWpOfcC6r/ycfKabs4LAIbv/md9iL35a1VUqZ06dTb/wCiO5LIUKPRAChMAxIUAEf0xAPtZo9t5in//C/82+/8On2ft++hfZv/m5Z9g6QuZjzSMlJhE42H3AvvZX99k3dh5F757+0fexjzz3UfbCvVvSD90QAoQAIXDcCBDBHzeiFB8hQAgQAoQAIXAGEDg3BC8KcgYwpSwQAoQAIUAIEAKPDYEiczjBi0XuZRk8U3PwoiBlGSY3QoAQIAQIAULgvCFQROCCF4vcy3A4UwRfllFyIwQIAUKAECAELhoCRPAXrcapvIQAIUAIEAIXAgEi+AtRzVRIQoAQIAQIgYuGwLkl+L2dt9jX/+4b7OHO99kB1url63fYM9a/Yj/94WfYVVpTtqKdH7KHb/wd23nqDvsZ627pEry9nQfs2w932Q/Z0+xdd36CfeDurVL/5oQP2M5b32IP/+sP0Plpduvuh9gzd1ZvEmGOi94SAoQAIUAIcAS2IfizuVWtP8EDT9TBHljG1BGx/EjVRm+KNgf0K0JAnjOPR7wmu6jnvXKcXQPOeJDKcCEOxM0Hy77xpz156IpeV5Zbg9EG8WTjpWdCgBAgBC46AqJPPQoOZ8/I7vAB+1+f+wD792L/ViwdniDHPoTbAA5ff11u64qvWa0/Y7/zsbv8ln4aAvtvfZH9dx/+dzFWTpP53d80bKO6w37v2fey3xU42y5zr/9n9vqXxIsKmwR/yO6t2Dn34MHn2ZUP/LpK3XYwnm9r8bhs5H+OPUeDeYUR3REChAAhsCYC52oEv9BO5bGrHZj7+kgygAke+2rLEX0FprrzUUSccxUmhHEnOZnOSkbmdjN1Troo7rynTmCqtEbiNUy64mQ7PAihqd5LD6mbZeps9WpnLF0Xo5Y8JpEfokPVJKGhG0KAECAE1kYA5YBIg712AM3jmVPRjxrJCV36ub1ahvntpCXO8ragNz8G6gh8mOMRpDM8grTo2NBMFiDwl0mYOcwXS8icKJv1jseMYhoY/3yRP3DcXy5iNzz+dLkyonzU/E24GBrPqmeOieB9RcxOK3cMYr8q1PY1mJuTi98uB1LYsuuDnM9px0umVgqOwT0C7rlE6AUhQAgQAucYgfNJ8MyFUcEBvOGsC67tgOdWoDuNCTOYtBIyyR7riTUfTMBLpKDmWCfYJfQalcz8PgOv0YJaMjfttSepprMYdcCzBQGmbQO8Rl8bLfvQdrm7hccNtsCVWgd8h2cL81zMh21wrXQcvDJtt77x3LU/ashyWJUGNCp2/GwawQdjmZ9KJ2/LoMeFJ9ylyq8/+CN1lnLH5E8TANLnpW+Ou54u3RMChAAhcFEQOFcEr6uOGXOg2R3CIqWmN1erPxZk48BQ53Du3R+BkxBsYyRMzgLoVtLkahnI1mkoNfVioEg0Ah3V4NkwTkuoqbVRsk7ueG9VURAYC4EkyYNlS5V2XKGbTT8EkzbmxYXOcBYBJLUcBoIPpup84jTxJtga8UrctIsieAPm3J8/lCN8JVhtjruWJN0SAoQAIXChEDhXBA/hDOp2mnh5AS0csVdqTegNxrAwqLF1gh9lCT4YyRGrIHhpZc7J123ANBEi5qN2TEoJ2SuCX0BD5suF/lQICgCLMWoUeDz8Dwk1dvGh5WjlwFH5YDSCdr0K3YkPw7od+7eqMJqLUTK+bymNQl0KI5u353EzmcYwELwiZhv6C0PcBrwMviCYdqTWoNrLK/OXg7p0dxPBZ3PcTSnTO0KAECAELgYC54vgeZ2Fc2hXxTy7RpKCRPHq1tAAT5t+34zgg0R9zuPGkXKmnegqaknwqNYWav5KNx4l68Gmwi5AznnrBJ+dNtDSdxqZee45NDwXKtUGDCTx6ymtd19G8GoEb+e1HTz6NQkewilUZJ2g0DMTggrGgTYBAi/eQGMctXKvi/t6xSVfhAAhQAicSwTOH8En1RT6Cxj1u9CoVcA2qM+ZXYdZQvKbEbxSn9v1oaFRLKQWQRJ8xleIBmLLxRwm4yF02w2cl08EETli1gi+0s1ZkY+biTFhRJAWuNU6dPojmC81qSWT5iaPpQQv7RUKVOvrEjxmaNoWhnRx+Xk5eH2JRimuTpNPXWyP+yYYkF9CgBAgBJ50BEQfepRynDkr+rJC+Isp9DsNOa/LC+4mRnAbEbxGYKbROCcioV5PE7wPg3YdHJOwERE1kpyB4GNyy5QMN5mpijCZq+V40Opn9QqZ8Cseywj+uFT0cRYC6DfM2hbHQ8EsKVuTz5scGfcVhSVnQoAQIATOKQLnh+CR9BqVCriOC11d3ZutuKVS/1q1fuR6VIIXc8PpJEwEj1bxXjJK1wg5sg2o11Nz8LEJgCmOdCpckBj321D19NG8SqPSPTrJlxE8N35TRodZgwXMY8pd2Rpkc68/+7MhtBp1qCMWDVyFMJhgOJzWUOnwZ2ULsT7ueip0TwgQAoTAxULg/BC8tqzKMyzfUtUaqjl0XMfNKUoRvGF5nbYsLDayww1a7JhIrVp+/TbADKoZIzsVP4bjy9hmi9Ta95lQVZtG8JolvigDV/EvcF281MjjOvnZBEmyrqm8ZVwi1PrXcoJXqwpMOCvjOBsGK/h9OZvCaDgCkzymxxMb822O+/olJp+EACFACJw/BM4PwXNilaNjB3om1sD6C+c9OTIUKnSldragIybmk7peasvbYoIPQW3m4sAgY0k+66pd3mT8chmeifTQwl5YzBuM7EQcqumpctrR3LRy4XeDmh3PYSPBr+DXdEDtqZTg+RREtEYfhRU7u1d9AB2hqSjZbChOShnZ5cuh7XJn1SGGeHPctSLRLSFACBACFw6Bc0TwAHInu4ToK402jCZ8hzncOW42gT7OgVtSCGDQTJaS8c1v5Hu0TJ9EQ+MApriZjK35F8vkwpla4sVwU53OaBLtTDdoK3LnwApy1i3rPdzaVZjChf4M2mJTmSgdF8aRMXmZil4jUWZDG9eui/iWk55S97ud3C5z67bucoJHI3d9S+BaNxEkAhg0lQZBH92H8z5UXBenTzzo4DK/+KeXw4HOOJGUggV0a2raodpXS+g2xX3d8pI/QoAQIATOIwLniuD5vHS3Yt4pThRUXD25qQyvVm3EqBG68CuuguB5iEknb+0t/ImrLdTruPmLXOvO48eNaRwnGWmn0hNry5XFuBASeJril1L5p8Jj3Mlza6t18AnBFqr5F2q72ig93LQnlY8a6lPUTxdwdAz1tfBRvsUe+CIutx1NoaiYNsRdD0j3hAAhQAhcMAQEHxyl2GfUih4PTek1C7eEtZyK3LEtVWhupOdlSRePlu0P5Shb7agWh1ziJjX61rMWHpXawaV5XjIHr2/g4k9xFGsrAhbA8zX5U3QTAkAtGrGKrWrR0j8liKgcz4d829t8fMz2oDs+qnI+jn8qhJfERkGlqt8tcaSdt4C3K03c+Ef3h/Zx2u53kUW85hxhmFtZYEG1pW/dqwXA201wT4ekJ0KAECAELg4CgmeOUuKzd1wslkb/He7vscUjnx0e8reX2LWbN9mNq+VnmB7s77LlMmA8yLXbd9kNg/f9B/fZF+9/j9174RfYC/dusCiBS5fipA/eYB+/8jz7Ej7hVq7stzNnne7t7jA/wNgvXWE3b99iV5NgceDN/9/f22WPfJ7fS+zKtZvslinDm0e7dogDTH+xfMTYU09h+rePmP4h29vZYUuE5akSXLbBfe0CkUdCgBAgBM4JAtscF3vmCf6k6uiN136ePf/qVzF6j42DP2aWFAIO2f3Xfpm9+Cqnd8a6s5A5d7dk8Cgm+o8jQLhTOyAECAFCYH0EiODXx0r63L3/Grv94qvJs81qzU+wD18/YF/+k5fZZ7+avHbbzP/cr7GrMhTdbIsA4b4tghSeECAELhICRPBHqm0cqX/mt9iLn/6sObRTZ9MvvMKekSN7szd6uykChPumiJF/QoAQuLgIEMFvUfcHuw/Y1/7qPvvGDs5B4+/pH30f+8hzH8V5+VtbxEpBVyFAuK9CiNwJAUKAEGCMCJ5aASFACBAChAAhcA4RODWCFwmfQ0ypSIQAIUAIEAKEwGNDAJfBGdMSPFvkbgyUvNzKil4kXJYAuREChAAhQAgQAoRAOQJFBC54tsi9LNatCL4sYnIjBAgBQoAQIAQIge0QIILfDj8KTQgQAoQAIUAInEkEiODPZLVQpggBQoAQIAQIge0QIILfDj8KTQgQAoQAIUAInEkEiODPZLVQpggBQoAQIAQIge0QOFWCP9h9yL713bf5OSWFvzBk7J3v/jH2k3du4HEqp//jh6scXtv+kBhRkv2dB+zbj0ImIAjZO9kH791lj3cTvEO2+2DCHuz+IMrWv3jXXfbhe3c2xvtgfz86pEeULX29xC7jQT9noQ7T+aInQoAQIATOJwLbEPzWx8WOGtnjWQ3Hn4qzwS1+DOoCrf1P6efPoNvwovPW68PtjmNVJcBz33NHpdowzBy3qvwf/104H0LVdOws4t3LnvtalnwwAkfUVcEVT9cri4HcCAFCgBAgBI4RARRbIs46SpRbE/y4mT9PXGSo6No4NnJds8jBHHrNSgSSyFNjdHwE33KyQo0Dj40Hg7E8hz4qm+2C51haWS3ozcO1gAqmHS1ctkzx8/EJRmtliTwRAoQAIXChERCcdRQQToXgmVWD+VFye8QwJi3DcRJ8Mzd6fnwj+HFLCVi17kQiNB+1wUokP6vag3Uoft6vJQTvoKZlCtPpBCYT/W8Ky0AmQTeEACFACBACJ4zANgS/9UY3b/7Rb7BnX34d86B+ltdk//un/hX7wXf+gbVrL7PX31Ru8Z3Dhn6XvVB0DuvBHttZ+IxducZu3zLP2/N59IUfRNHxOf7rP3aH3bpqnh1+4zMfZ89/Oj7fXeQER6LslRduiMfcdX93hy2DQ8YuXWKX0MDg+rUb7Oplc/yHmJedJC9RRJeusTsr7Q0O2d7ugvlRGuv4z2UxeqHwr7AF/CFTR+Qcsi/9z8+xj/9vCL7dYMuv/DYrLm0ct8TJaTK/+5sbHZOr8LrCbt+59ZjtD8zY0FtCgBAgBJ50BE51Dt6koneaYyXTLAdg5+ZzYxV2MGllVMI4R99rZfxXYKKNGuejDlRsXQWtVMm214DRXPOM6msvl7byjxUPzGuDFgKm/Ra4uTn1OIzleNDuT1XZorsAOl6cH8uywIrCejCOIvWh5abT89pjmA2zZUQ/OF/e32S+PMnFqOkkGFYzWpEQupUEJ7sJqyckMK/JVIOsvzCEEP/KfstJD+sjXUZmVaDVEtoAgUVZLORGCBAChAAhYEIg4inkqqP8SkOtE/EqgufzukJVLOJjzImM0PxxM0PwGaLgBCzJyYduTZCZwR/3m/zVewkJr2E0puJfQDshahFP0dWpDzSs0cjOMAcfG9mZ3FQ+8/G7iWCgRb/idtqJjQZ5XG5zIIWV2aApcbdqen4LIgwnShhCYaPi2hJPC+f1m71JLmB+zt4keMV1nQtMLwgBQoAQIARWIiB4YqVHg4cTIXjmVKDZakK9quaHRSbjqxsZoa1D8LVBbHU/aSsiS8dlJsw2H/b7q63CUX0djW5HjQLhoWA0X0/yhYnIka/KlzCyM7mZ8yvCVjpZDYGh1lKvUDARI/VIwLHB1vNs12CyjuH7vJfRnOTzaVU6WFrxW0DDVn4aqNmIxvpo0Nip2lI44MLcYzM4FFmjKyFACBAC5wQBwQ1HKc7JEHwykhYZy1650Rf/FRO8DZ7HSaIKM+4xaymexO/U2jAa981LxLwOBOEUGp4rR7KpfHBrc3SrNPoQLoeG5WFoaJYw4wJV6jkthNNMyM5E4oLUTG4xKTquWaBwGiNe4g1+AQzKlioiDqvV8wDLYV0jZRdavSHMZjMYdpsp4q90oxoBfXolL5QsNa2GwGKDIpFXQoAQIAQIgQgBwVtHgeMUCL4C42QYaCZ4B/rCxD6Z/vVHBlW+q82doyrezQkVsZaAgzLRLM0FWM14kjzCzB81NHJLRqVI4LPFHC3JpzCfDQ3xC9WzicQFqZncGDSGsVZCWa0naWIZNiP4EPo1LgiJPNegP5rAdDyARkV7j1ipkbe5mcyHHahVK+C6NVk/0udioASgROOh6k7gIH1HN8uBEBgEFml3eiIECAFCgBBYjYDo31f7zPt4jARvQ63Vh6Vms6VIQhEc87q5JV0mf9WekAJ4oUxEqojHZCegL5MzxS9ALb6iACEM6Qxz8LFa2pQvDyYJBoHBBmEjgl/0lGYBjQWzJD7Qph1auqVivh2sfDOsC41DjKvCtAJTrU5FRApTIniBCV0JAUKAENgUAcFBm4bj/k+E4O16H/zAh+Vymfz5OdLmiSsSUAQvLbi5h+Rn8lfr6zvimYj0pAmeQTNSRZjTLiR4qdovKP8GKnpd89CdmVhW2SDk1egC3fWus2410RTEhK0I3mwYqIQXIvj1ECZfhAAhQAjkEThzBL/uKNRE3KawRhW9PtIPTcvhcKQcjbABxnIpmRIk0ip6wxSAVYcxbvQyGo1gPB4nf5lNXyJO3ZDgcVWAGGmvW/58lcdvdFy6ukJDBNBsF0y4Cm/8OmxVwXFscNCQLoFNdwZlhJgYSMppDRtSslYSat5LCwSpyOiBECAECAFCYC0Ezj3Bg28ygmPgNbpIwAOou4blWdoc/bST3qaWA2ZXm9DrNHH5F1qtG+N3oT+Lqc6f9sCzkfxcXD5WrUK90cBVAl2Id4A9PYIPZ2prWa89yTWWYKz2GVi1PXC3IoQfpfmQEaKxYkXO87ciASVEq3theJheNshDTaEq/JMVvYSRbggBQoAQ2BSB80/wiMiktdkyuc5UjUOVuliQmLpa1X6E96BuK2M1SU7KnwBZXivdZKR7egQPsIC6tiSujmvVRakX464yjOP7DkhT+hCt7rkxHa4iqHWlNmEht6nFMrt1mCR70obLCdQ1GwOxbBFw0qXrKXzcehem8znMJoPMqgZS0W/6QZN/QoAQIAQEAoJzxPMm1xOZg1+lDhYZ3ExF7WfWVytyEQCIa01sdJMkpI90hR95TazCAfeBa2hEJt1NZO80tF3jTJvZiFGwwe0YVfS8eMFEjeLjPFvpdfCY/1ovXtoWw4FL2OwEO7mJEHfxcaOfNKZWZsdAu5bZ094fq5G9CafoncAiTp3+JwQIAUKAEFgfAcFF64dQPrcneMMSNKe53lpuXYUsCmFSNavsAm7z2kF1uUElj2TiVDJb1WoBZz2xbCtNYkwzesPV4HjqXDW17lvkK7paDtTbg8y6crVVrfKrWdhntqplTqzi5lkLJu2c1sDVt/nV8l92G+BxsTXTNIVtOp5Xy6+Wlzh+HwY4Fy9U76o8FtQ6Y6OhJMesW69oYSycOulAt5loXPBgIV28KCsHuREChAAhQAikERD9cPrtek/v4N4wAuNvq03ujTEe30v9sBk8EYZdu32b3Sg4DEamenjAdveWLMADXi7hITJXrlxn125cxdDZ3yHb39tjj4KQHR7igTPo48q1m+zWjctZj2fq+WBvhy2WPL8hu3T9JruDB/Uc6Xe4z3Z2luwQ4wnDK+zHfvIOy5/js8/uf/6L7Hs377F//dIL0SE3MVJxivLgGhsPrvnKZgfXHCnPFIgQIAQIgXOIwDY8/MQS/DmsxyerSPt/w37+2kfZVzHXbmvCPvfJeyr/u/fZx2+/yKLz+ypdFv6hYxCilHe6IwQIAUKAEDAjQARvxoXenigCO+y1Z9/LXk2OAra9GvvEL36YHUy+zF7+3c/KlFsTn33yXtG5wNIb3RAChAAhQAgYECCCN4BCr04egcOd++xT732RvV6QFBo7st956ZkCV3pNCBAChAAhsAoBIvhVCJH7CSJwwB78zdfY/b//Bnv0Q57M0+x9P/Wz7Gd+9jl2hwbuJ4g7RU0IEAIXAQEi+ItQy1RGQoAQIAQIgQuHwKkRvEj4wiFOBSYECAFCgBAgBI4RgaIFbYJni9zLsrCVFb1IuCwBciMECAFCgBAgBAiBcgSKCFzwbJF7WaxE8GXokBshQAgQAoQAIfAYECgicCL4xwA+JUEIEAKEACFACJwUAkTwJ4UsxUsIEAKEACFACJwiAkTwpwg+JU0IEAKEACFACJwUAkTwJ4UsxUsIEAKEACFACJwiAkTwpwg+JU0IEAKEACFACJwUAkTwJ4UsxUsIEAKEACFACJwiAkTwpwg+JU0IEAKEACFACJwUAkTwJ4UsxUsIEAKEACFACJwiAkTwpwg+JU0IEAKEACFACJwUAkTwJ4UsxUsIEAKEACFACJwiAkTwpwg+JU0IEAKEACFACJwUAmeO4E+qoBQvIUAIEAKEACFACDB2anvRE/iEACFACBAChAAhcHIIEMGfHLYUMyFACBAChAAhcGoInBLBH7CHb/0j++cwZO989/vZM3eurgDgkO08mLJ/ejv2f5N9j33nn95mP/KeD7K7ty6vCHtKzod77MHkO+ztp36EffDeXXbiuTzYZW9967tRYZ9CXJ45Ii6Hezts8u2H7Ac/ZOzpd91iH/rAM+zqpRIMD7Cc3/o228UATz/9LvYTH/oAu1UU4HCX/eV/+HP2je8fsKcv32H2x/8Nu3fDEPnhQ/bF/+M/sO9f/hD7Hz/5ErtRkjw5EQJnCYHDvYds8p1/xiy9k73fwm9nReYO93fY9Nv/xLBnY+//IPZs33qMfcaKvBU57+08eIz97yHbfTBho394k3135xE7wExdvn6HPfvffpQ998ytoiyu+f6QPXzj79jOU3fYz1h3maEniuLhdTT5ZtwnYq/Ibt3lnLVmr4Tt4W++scPu/PTPsLumfvGE+8RtCJ7hxH7hD5EB/mf8hWNwEnfG6rAwetJeLvpgJf6tWh+aVhy3VR9qngDmwxa4Xgv81NvTefBHjaj8jNkwfAwZmrTdJD3Exm4eAQMfeg1PxSHrx4JaZwShAcZJty7rRdQ3v1Zaw7z/YALVpN6UXwva42Uu5kk7yQeWI++a804vCIEzg8Ck5chvqDZY2bPBoGYl/i34v75S0GcEM2hXXGiNH0NHshJJv7D/XRl0Qw/zYQe8XJ8R9/1RH+JUYTA7OibLYYK31SjoZxbQrWv9quwTGVhuHQxdV6aES2jYcX7rQ0NP9hj6RNHXZjK21mMBe8dhV0U8rNvyQ+hMg9IEZYePAHemu9AwELw/bsbxHYncSpM/kuPjJfgF1DMfwipM04UKoONpHw7i7Lgu2FqDdlvjVJBFvybrjzELBSs3RfZee5LyP2qIjs+FzmAATS/p2Kw6zHWfwRjcJN3WpLxd6MHonhA4EwgsB+q78bp5QVfPZDgBT3xjXgd2jYMCJFQ7/jYbIwNJ6PE9lnvf2P8ed9KTTkXrX3j5eR9TAc8T/YjoryzozjbvJ/xJR/VXjmlA5EPbFWmI9D1Vt1G9VaC4i/KhU7FlGUx19zj6xFU8XFZvWxF8OO3IwjuNUUk6GnnZsaQ1Hw2g2+3BcKoavCR4Y2WVRH9STv4M+r0e9HpDWJqGv8eYbjBpSSxFhdq1wdopLEeJcMQbrV1DyTTJcLjAkYMaYfTmoiAzqIqOyarASPj3J1BLOiPGXBhJ4XopOyk5qvGHiRbHSWk4xq1EYsYOb/PPdu0ik0dC4IQQ0IXldNvOJrgY1OV32+AjPGOf4UPLiYnGRBLZOB/Hs6n/Pc50g0lb4sKJvdEbpzWSQWZkvVGfH8K4kwxOrKRvMwwKJZ9gP2dV2rAQXR/2SoOm0nS6rfRAhuMQLkayHxSa53zdPZ4+UfDBUepnK4IHVIoI9QVjVZgV5CCYqsqudIt8YWyCpErUuoG/hPl8BrPZHOaLJQSy0goS56/DABZJmIWfDhD6C4wrjm95FDYKfZgn4RdLyYYlmTE79WuJpOjUoCVVSkiwa+ZJaVMcGCiZKU5MG2UIQcwXWGPjb44zicx7UjKu9sTYHDupRBpuTUQ5VcfVFJKAP5JTN5tpIMy40FtC4DQQkKpf/D6qhX2WLggU93+8n2yuJPgAlot51BfN53NY+plvsgCEYBn3X/P5IqNpCJM+bxb1kwXBS1/7Mj8LyHSbpeHSvMCgXThEDlHrKAYfvB8S/Upx9OFiCBU7FpYE8UVXg4CgRtceTNLdPiagcZfb1gYiIYxaWc1DkXD2ePpEUc5iVIpdtiR4gFlXgVFUQQOpyhcjQv5hxBXrNrnaOKtKSSrQUXPxixHO5diqMYhC86vX6KekQyk9uk0Y9JqSrEQYp9bFCg1h2FR5F2717kSiJePRRrLyHdoJjIftjLoH821XYDBf7+NUCSmVtt0YQzhXmpEygUiGx9KLDoThqDnXltHjoGbHEnXyIYybYl6qAtNcACWZ8vji0igyVwQvNDMWTrvEvuRHtUq1qTJPd4TAGURgChXsW6J+QeuHUhnVVPlO1I8ByP4h6TNMmjkep+wrwzl06l6uj4rSxb6kN9VJL4B2NA2HI+I+nyJLvmmRT+ZAl3+Hi0F+3hvnm6Vcjl90uv/lpRJxM2gNx9CpZuNGu5zmwNi3pDDBh3DWlaN3q9rPOqeew1nc19muB61B8eBPBFLTpnxU3oCGUKEbRvDTbg1sPu3pKh4R8UTlFer7RKscu2l9H9peNVoN2cfnR/CPp08U3KTyvv7d1gQP2ojNWJna6FG5K0KKR5QKKFGYuIHH8yqLgTBcST44VMtYmflqR5tf1lUzqfjkh5DEU/AsJE4Vj1LTqXdlcZhIs7hS5r2q/CDaEdsicdqirGsYMGoEL0bo2dTkCD8ieG3kYfgweFgpAEhtiqojMTcvPk6GHUukaZAdHp9Ty0kN2SzR8wkhMOs3ZafEbC9DEieU6DmMdtQUc8UW9Ay2dlNhSIoqaKHoUv1D3Geo53R/EZPFQtOAxu6WUDnLvskFpWBT/eZR+jXmKmFdDAhUf7Fe3JXOdGVN6/ZW69jghBt0FVyAsiy0ARrGwsBETAcW9GOFmdXshNJToTjYRMHJrXcgtv1Tg68ygj/JPlHUdWFZShy2J3iU6XpVMbJGVUhm8LocqjkqVdmKLFQDQ8FTWESiRDXHWg+imtc/Ahf62pz9YtyVxlzc6lxoptMflQXN/jQahfrTvvLPPyCcex5E8YUw7at82ok9gYoHCSwRpNU7/kFaUO/i3BI20NCf41y3LYm6IQKUgB87aR8Wllv0I6rzQIk6C2ouTiWR86kSoVRX3jSBgXnYYag0041bhdAJXowhdG2NV6tJVTwf5fOfECKsSm8tSV+lRnfHhYA+HSY6hrQtxXGldAHimXflyNrNGJxib6WEcE3Fq/oH1WegSk4SeX2AXyf2a5zT9L7RRS2kMIOBzPy0IhbVb/K6tbwmTKN5RR/6clovFhS8/7+97wt1ZEnvq4WZy4w9s3fn4hku492B5e51rgla8DqB+MHQMXlY9kH7kIVAIkPIg4hfsspLQA950ZveIkNQDAnKg2ViFIJlsAUGrYP2QQuJ1kHrWJe7utnV+Gqy0fHq4KvZq8PqwJevuvur+rq7utU6OtLROfMdmOlWd/356lfV36/qq6+qcLSt09usptAIpwd0RzxYDWTTsfrXPvPbTakB47n+8jcwHzFLpcMUHm8JY9Mxyj/FGE8j72+XntoeN+o8V89aKYEDWHIYtvVgcziGTqTv2Oaa/+4aCB4N7GPrIBYFi40U0dOayEub5MnpxDYwnU7oKMYbEfa0yEvVZa6eUg+OxTHp4EdAPSuCxDY+7c3Pu46W9Egmm479WO2zZNpgnM4UuBoDycCvG6ZEyrx3bEbD+CFXezyK837GPFaL9X5oVtdB9ZySdSgJPnJbL15smSIl7v5wcBleTJGoYh186/yyH44a7WhmvZjBeDyGyWQWmUKhPOR6/Qjw0RMpBn31HcCuP7s7nqLVUyqiv/CrYg7GxukU0bD6weoMru94x39svsuKw39p4iAWJg921CPzymvr+xKfpluTXtWWNr+3btMhXcdlVPG0sVxm6i3HSNnoDpPf4ZqJySuHXIEUOCCt2YGYYp0zp5SIaxbBa9wOrRPpO3bKt+XhtRA8rl6HGpnM+RwwI6kIeW0j+IzK2uDoUzujTMZD6LYbOC8f9Fj5unH7kWkSj5oUTIMo1GIj3WSjt+nQh8E/YC9ptsPpCJq3y0vw5sPxzXy6y429e99yYeWxPe+M2mRTIX6D8EpQbzSgYnrvIU7+3KD1eSBrRTxlg5OjLlZI3JPJBKYz69jTD604hdDzf9yO+zcUxVQcB/kAv4XgrxfUOVtKynUJWauUik7HuXQGJ890vbCB1RIdiGcTGPa70KiSjwwfLDCdwPWsLjIjIusYG2CRlMmm4yJ4vU9J/G9KAwiHPoiHNbrj5Ah+BV1O7sgBkTFevCD6N8M1ve6whg+oE0+A4AEmpjdKZiAA0yi0aYjs5z6IrgbGyDPRiFYwaNehSJ0IHJFQoc2VxbENOmkiMo2PjfiDek3KZNNxEbx9FsTX/9s0shqDDc8ceVxlYs/ilgibhr1bz2JTECZ+ESrkkOOX21orvLp7KV46TjY/c2e87j3fg3/Dlvxp55mSR/UVVYYmvtxcGwJrNrI03wZzEr22jN6UhJgF0ZDhxn63cQuYS2dk6YXVbAD1xLpw+l6Cq9UlVr+QU5+pBkZEZkVL+DIpE0vHLG9mz5rJJc9rstIyPWvyjt1Y3wXHip5Y2H1/Gj21Ta41TlWQU53Wi5rco2M/tygMV1sP7qCRp9eoE+k7jqSf88c1jeAxN9ypzgsJpdLVs8BsGUIlvlkEa0ymgaURvHZ6iDZ4XeCCh6RVrxvziXsEnyTh9AaRlCn5YTAZnb1Tm0aexsCX4lAlpl4TFoe0Gl7BsNuGOmJTrzeg1R34UyO23ME+BMZykPJh8PeRvlkiWzR5VQIfDFJ2FLeA9e7/MetCHlwSWciDnRCYDVrWP0Kc7HbCzhXYrEAJlwKvyFcIrW5xZ1KXzkgj+FVkrTjpuAJuUFWFBpsKs9+M1S+ms0ECZxBRUiZXOq5nlDjTeyn6woZEzW82+1Hg3P2NB8bJCX93zIIH1SafWowESv1h9Zpro5swGi6to2leX7+WmujjlZpk9EUGrtGA/Nf16kTiBJ5D3vvrI3ic9TU7qaG35tL0YHBJSMLhzN2YTENky1LMM915wKUeIzQL87XvM/JkZQ3Pxjllgmd44QirP13gulVc28/+LZZznC8iT15uqnNULzrmTMcjGI2TLnbcIYic6qwvgmtUbR2IiLQdOfqPuCd9YKXR5QoI337caDHwAgVmlVVaivJcEDgtBLjjYhu/U5qOUgkrICPCyADA6juzPI5Z+7QCr3dHsIisfZ8aUrLfjE3nlAmem7VVZAlasl75IMdrRLctT4ZOPtlK8EjuNIeucS7We8w/KZle4skVCP66deKJEDz3Ci1CtULEFJ/r1hC6G6olZiSdEGn7LDD/RisAPexpjpl9bDbOCRM880+wywejpdO/bGNBgozPu7Hg1puzyJbVBAH4pjbkBMkdI+MOWBu2MVGt7+owUMa2k2IVjn1mlRlac8LpFausKA25CgKnjoBdyeOVq1AK23J8rluXwq17rL6zvkhsmsyxYyVfGmwHSDYd+72F2GUQUVImVzquZ7ZeTBpsIGXfJu+s1QOdkVtJk78fI7KPu3spYjLl6JNMgsepFLNbJ5J7tTOJRs7zKwNXd3Sr/2wd2WdX0YknQ/DoWmqczEio+P7nASjuxmQaEVZGoz+GBS4B4Rsb6IZClpUNbgnJl6XppUC0XtSmc7oEz5fB2Up3NZnoxgt9uxQhEpiTsocb+dC2jItxx0yd6HknS9foGIk4B/WEG2RMAkP8eo6bZJjnrtG9zTa+qQe9GdaDzp1t4GgRIIKPOmNQFLkKAieNAF+lEnwzVt9wwd26x+o7hebhCe7Cudrw7xq3iqYPFjXcDA/cou1RdV5Wh9p07LcV5p5BREmZXOm4ntmSmTRyErzeH4WPnAvlOvTHM3+HvhXuHjrCDcg8o2fyrRSy0ti7LII3W2b7+ZRhMBrBYDCI/uv3YeC0em7H1Uph7w6hE4P2lmlstwLE7jJjXSVhmn8N4nrgJiTbe+UNlZN5EB8J+v9GG4rCuZpi0Us62eGuQ5SXaYzauY8WcYcFN6bpRENNyuRKx/XMYmo/kuyR6twQXtYWv5TurGs3wik2U3rDaHjqVoiwg2t8M6D4SVZma+DwQyt4tJ9BEL/ay9pZCne+Cp1W4g4/iwEdYoP7BHR60K6RR3CyPqiMchUEThoBtgRW6yZaLRKX2a0f7BQV6VS9emVkdpMMvjevWIyQnglrRvhJHWXyZxuOxXVPUiZXOq5nJnVrmUjoTRsmfrca2y3KqSzOq4dLbWnkFk9ky+9Ufc5WNDnzZJ0LlXoSHWaegWtStMPoRJI/md/2J9dO8Bs29263OY0LordFDMgk2KqW3i9xi0Qy7etGHxCC3qDGtf9wqdaBKdu8hszJab0onYtZRsTm+YPctRklKpMrHdczkt6feghJz5rV7FtzxxwS0wnbhPYbmekNs6kIFiK8XeLRiHzNe0j0eCRjP7LlpY25xBG+Sds0es/fHMiGSt5ZRxrXSGZp6pcap77WMjsMyTzkiSBwOgjoDb28cGBht2aOy5emH5Z48pk9XltBsDwVN6hxbJet9E5toykMGmHH2FjetN4Mvumo3kQp0NxNlre4RTApk0v/ZqSNyZspvUz9E0cDpxiXE2inbcVbKEIDNwrL48yeTDl4YlZqxfX5LgSPa+Fj40CbHUsnU6djjEPpRNKhVqj8d5/TQTEB599eB807U8z38PLitVqtN+r+w8fq0YN7JtL52St8fqnUvYfqnWdP1SP7yoSRG6UuX5+rV8uVD8XDx++op08ebYHlQp29XKhPMdR9xPbZ86fqwZYY5x9+R/3hn32kfunXvqG+9ZsvHKEv1Yff/VP1vY+X+O6R+upvfV197cU2ORzJyCNB4M4gcKlev14p1Gzq8aNHyqivC/xeFyuFmk3l+15vISCXF+p8sVSrS11KrcIfq2dPn1gMbmGR4iIfSifuw8MnSfBx4OS3ICAICAKCgCDwJiIgBP8m1rqUWRAQBAQBQeDOIyAEf+erWAooCAgCgoAg8CYiIAT/Jta6lFkQEAQEAUHgziMgBH/nq1gKKAgIAoKAIPAmIiAE/ybWupRZEBAEBAFB4M4jIAR/56tYCigICAKCgCDwJiIgBP8m1rqUWRAQBAQBQeDOI3BSBH/5+kxN/mKkfvDxT9SnFxcI/gP1/O9+Vf3G3/+aerpt95QcVXX+8mP1yd9+pt7+4vvqxZPdEzx/hfF/ivHfxfjXIVAOma8nyKV6+f3/qV7df67+XuFF+gYRiP8PPvpY/eznOtdfVC/+zq+q50/MlhpRUS7P1Hf+6E/UX/7NhXrrwXPlffMb6gNX2MuX6r/+xz9Sf/PgV9Q/+edfV0+iqcgvQUAQeEMQuDj7WP3wJ5+p+2+/qz548fTWlPry9Ss1+ehlqBffUk9ffFm99zxbk2mu+NHLM/Vz9Zb6wvMvqa9geZ2a9MB6dB+Cv76tatcz6Di2ScUWYPaNr7YG6VsC5tp9b2VOJSvUdz9aUG8l2wwPPbla/FxCHiSQOVYxdd/kDQxbds96jnu50UviHjnJieqoAO1x8vR3s70v7kOdfHuQ4kqigoAgcIIIjBrhdr2peujUhF7g9t10FgbpueBawOPHHeoOaWIC9VL0XA5fn3oVGJpDgcJyHkGPki6/CrLXQ/BYyAojci1QwStBpVKGohcFVVW65kS43QW2h7nwQ2ryp7NvByF/TtcZcoX7WJvTpVL2go6enIQnUJXLNo6uj1o/IpI9FAj3vcYTlprhPvyqUGcnzmGU9djsVd+a7LNrdCR7+SEICAK3EAFzeluKHjqtIq3MgVgBSRZ8vehFuKoCUbWGp2yGg0A/DvJYqcjJPhr+GHo0kD2TqlNhz4yVL+EoiIVyE8bz6Nb9i3HXkIROc9um/anS4ji0FZ7/fjWCB5iPBtDt9mA4vQ1j0Q2MO+HJbIWwkblOc2IkrIp1mBD8mzk7UrcA3Tkd2WSPqqwNwvNnzWlZ0RPfTMcBz6IXek9vmfJGEHgTEDAE79JDJwaAPUUPBziVtjlCG0ctMGjaQ7lKLXtO/LxnraAVdo79pEsnZCqwB4QdR4/m42E3+HsTvDEd615RuZ1KAptpx5jqVfzkH1+2NSwXc5jNZjCfz/1zg5Mibyf4zXqJ8Wd+Ovo8+WP8rZeLUO5FzDqxgUUoy3yxW4disxg6T9BTrp4zngVNJ1VVerED42cWd3uMJOIYnnrXMr0Bi63pgLGjEjvT42B5jPqSPAQBQeBqCOQi+M0K5lqPL2ikYfParFA/4ztfzzve25DsLkxvNpvDYplMk4WM3NrRdRkmNLYxIZbQ8ELrMp4mF2g3e2Su5qi4xutXaSRfC62cx9GjN0jwGzyDnApdgN7coOe4wbDaDIznuZerLZgR4DjK1HP3xgTNzSc459GLHHNqSSg+gt8sRtAo86NmaZ6lBsM5VZXrSNhW2PEow5iCkfTOIxjpWMUCNPratO3ZjosvexG6mgwXAyhzU49+h3M+hk8pj5TratQw6RYqDWhUwnxcPWdGxNV4JaQRfGgJsQS/CM+ot0dhmg+kvM+0SkoB5bEgIAjcOgTcBE9W3ALU262ItVYfGa4pebMYo36O60ocWeNR1oNZlLTN8bblFoyHbfA4J+h75IWB0enpEE5x1O1pHVxqJX2QkL7b4SBHeY3At4hZQiudaSJhrpPb/oDH8tEh9ejNETwjQGV6QQlc2ANidXq0sL2osBILZIo2lcrPG7eARgh+OTQj2ACMQqzDgGZnfwBte2gU35pxoqZpX0JGnHz02wzJkYDf6VrKZ+rWjbygz4UeznxRJq3QUcRF8JupOQtaqbJt/KupnVtXHgyMEcHiWG5P/PQ3piNQhJHu6CwH4YeFpn3TG/ODyn8njsCs37RK0SvHOsknLryId9IIpBF8mk4sVPuwmfVse/T1elw/47Tt0FoerU5GcjY8EL+vwDROJ7sgx8jcqw38mOtp2+TXGEU7HX6ABB8cR48SBrsUj8LuZ6JnBS42x5Rm7utyWDeAlhp9WFKFraOej5xck3PwK+iUbeVXWsOwt7YBPm9S8uWzFeIi+ESdoum7FDYwlwwaeO1zMPWnAlbQj3lrlpsDv0wbJNqG6RQ4OhI5EHN/WDbiYoQdAvYxeJ5nsNVy1roBkVOMWbdi3pdrNdtBwh63/hvWg/iFSi827UApyPUUEeBKihSDUiVItO1TFF5kOnkE3HrI6lW/zaGlcjAaQbtehe7kr6HpWf1cbQ9D0/cGptgRtTrLEnaU4NEq0B3DCrlhs+I+RQqcJJwLQeQMsoiibqyHfkirUTPUiR70bX/Dpujgg2PoUfqOrSD57/YjeFZgIsz8WQOMW+ToUIFgnMpjTzLJ1eSHMtD8M/XEbCob6BgzTBOJ3zZEim8bE45c4502Vj43wcfmdpgs2jRF/RUtz3pMjceRjxU49c79Ydng6zmNuO3HRA1DX9sTM3wPI62gF+uQaAc93/K07JvRO1n814sZjMdjmExmDnOXlUPubhYBs6QR65zXfyMwYd2scJL7rUfArYesXtUWRD7VyX2vrHOahWHRt85rtX4wx2t1sgKyMJoYxhlYE3xcp5lQGTcb6NWCwYv/fTDLs+0cezCMc4FOMYUPDq1H6TvOKFTqqxsl+KhUG1gttQPGBIb9LjSqdu2irUjbkIigzXyNwrljhyl5s1r4jhkB2Sbj28bkIN6UCiUrQpzEeQOIz4Vn5hMFwvnL/WGFQec91hPG0Xq7D5PpFIbdRsQ01honW+0KiXsymcB0Zh0EyZmkEJquxm072g8aW1HMvs5auvmHQvA3Xwd3WQK3HrJ6Nb4M2jph8ylCjtDMLEvzGiP/hdWVHsR9hmFjl2RbXuDpZd2voMvJvVCLmPnXE/LHSrGyOvkgyO+QevTmCJ6Z6L0rbTyDewrMBlB3OMdRofTVVqRtSETwtjGgGVLPHWf+ZcXfneAT0xKsARhP9FAeK6cjn0yZg5fuDyt416+Ro6MeqcdIHJ39yMKRy0/CdBaCD3JjGr0Cr1SGkkcjQ2tSyyG+BDkSAmu+WgW/neA7EhP9keC/89m49RDTq7GpWtvhTCHNXa2qLLzlhRywr3GalKy5+rvQ5B7ji6uY6FNzvkY9SlyYmlfGi/1G8Oh7aOZXyBMxI7NZuMawWKpCf7bGDYOsUwMVQuFIXL9vMPOxrUjWkBK9vTxKLCu+g3gZYWfJYIrsDB+8PRzBszpI2UTIeMOrbaSM5qtK0FmgDhvFLWDa/h/2oMshcVhMDAJycwIIzAYt26kTJ7sTqJG7I8JWgg/1MpV41qV15TdI8LjkmHSWzzOlJpgtQUhQfY2Y/2MDpcT7rOmB69WjxI1c1Lz3exI8zqM3mSk9c56PrTtUWNm4ntGYupEw6t0RLFa8S2U9wy2R2DhmBG8cI9ze3qtpD2qVKtSbHZitHfHN3LjDAsA8LbNkMGDfCMHblQEKHeJcf7aOHJ0YFoF70gdVaZcV1k3dYn5eMDK0mLBE5FYQEATuLAJGl0RW8yT1KgFgBzbpJvpquJw4aaJ36SubVy79g+ROjtKaKIv1XmJ9O8kKzCJddiyTWw7IKTytLEFK161Hb5TgYUEOWVrplyHN72FqenLoeY5LJ7C7BLS0Iukcp5eR23Xg1txtK5cInve6aNRpKgxv+uGIVKkqbk6QjG/NMsk5/CWTwTamZBomvxsh+HWwv4A/qsZtFLlnny8YykumqUwriybzgLgNtvgp0LOmmb/Hjlr4QVpMDAJyIwgIAncYgV0J3s5r4/bZMfO9hok72RlvdjPo2pPgcflw1deLgV6rdiZbaiZLV1pdqM376Vu+2HDXpUdvluARMlPpPph6s4M+zHDntjWOmBfTETTZkgRtgu/59hFmWkbT8chs4r+B2bAVcRortWgJnotcNcEFFaiBqHZGYQ9tDZMe9bhoe8Fk/M2sa/MqNmDir9VbwzS2wYIls2QaptXcCMHrJeu2nKqEZViElhC93LBmN/8pNtIP6LHOitGpjmE9iG8bK22Ig74RZlRvEJAbQUAQuMMIGF2fcwSP2slY/KL6GfX8gC+Ts973dtS/H8GbbbZ9XsL9QXDp3gDP3Yj86/dhMLZ0zTscXq0bHq4V3drWNbqnKj+EHr1xgteV2KbDSliPiQTj11rP7hA0YuZ9HcYrFiNe3xTPjvDtqN8SDkLLHcmc+dP8jys+NkCzRt12FChvunKCp/ARGXQNMxOPDR9UPW+0ziUYQbDU/8fNkKgjHxYF1+s6raOdlrkQWweve53JpYgU3+7qFHccXAxoGQt23Do9aNdoSoYwpTTkKggIAncdAU7wdhbapVctEsmNbpJ6tuHc6MalY+wAK65jbY54x7ztSYenXiMn4y1ifBDflOf4epTkjpQv54+95+BtPrixzKAN5cjJO7YiixU8hIZGliYSbg7TjC/Bwjh6B7fRFAaNkEyMSYS2RERzjxnVh4mtJs6tED3MNxiV63B6m9mACCPmImdcvRXt0BzWYk3UOo2gXJE0/OStA5oNH8iX1rML3m7/f9oJcXLu4+9nDsN2zVojWEen3OiCa98GynVptsXluwaatwYzamj6WuuldxcoplwFAUHgbiFgRsURPZShl6n4y/StanuxPTqydSUSfDjlaKduKRN23YXgcS181KVuiZZPGshYDtNcEtk5nWWnbw+lR0nvxrLL9fNzOhQm4Py76kHzF6/P1XK5Upd+qvfU42fP1JMH95x5+A8vztWrRRD+4eN31NMnj9LDbnlzcX6m0FnPD/Xw8TNM68GWGPb1xeszlHvty/342QuU2b67NXeXF+rVq4UKELin3nn2fGs5zj/8jvrDP/tIcp3PdgAAIxVJREFU/dKvfUN96zdfOIp6qT787p+q7328xHeP1Fd/6+vqay+uXkeODOSRICAIvAEIWP18TwW6/nSVrC/r8lOl7t9HWbdzyaH06FV5WDengxD8G9BOpYiCgCAgCAgCgsDBERCCPzjEkoEgIAgIAoKAIHB8BITgj4+55CgICAKCgCAgCBwcASH4g0MsGQgCgoAgIAgIAsdHQAj++JhLjoKAICAICAKCwMEREII/OMSSgSAgCAgCgoAgcHwEhOCPj7nkKAgIAoKAICAIHBwBIfiDQywZCAKCgCAgCAgCx0dACP74mEuOgoAgIAgIAoLAwREQgj84xJKBICAICAKCgCBwfASE4I+PueQoCAgCgoAgIAgcHIEbI3jK+OAllAwEAUFAEBAEBIE7jEDasTDEs2nvsyDZay96yjgrA3knCAgCgoAgIAgIAtkIpBE48Wza+6xU9yL4rITlnSAgCAgCgoAgIAjsh4AQ/H74SWxBQBAQBAQBQeAkERCCP8lqEaEEAUFAEBAEBIH9EBCC3w8/iS0ICAKCgCAgCJwkAkLwJ1ktIpQgIAgIAoKAILAfAjdK8BfnL9UPP/lM3b8fFmKzUffffV+99/RBrFQX6uWHP1afmacbhQHVV957qu6ZZ9d1c6HOzi7V06ePdk/w8lx9PPlEbahAWJ5f+OL76sWTeHmCpC/Oz9Tl46fqES/EjmnsLuThY7w+e6n+8gd/pf7Pyx+rTy+UevBAl/8t9c6776ovv/+Bev+958qNyOFly8rh/OXH6pPPsA2GgbD21PsfvDiurBdn6sMf/gTbN0mBwqR+F1mlkXeCgCDwpiOwD8ErdL1P/UNgQf/L+hs1PD8MhQ2uFZhuYrFWQ/DC9EzYQgOWsWD7/pyNulD2UO4rpr0aNRLlKdSHSbFWM+g2yn7Y+jBaitxpJFO98SeLcRcqGr94XSV+e9Aazm9c3qgAK2gU4rJ7MFxFQx36l/ubQLmKLVgfOnNJXxAQBO4UAqSLr1KoTPbOk/C4WXKSQaHWj8qzHkEpThLFJlyX7p0jsUeI6Yppr8bNRHmKjZEty3oOvWYlEqYxihH8tjRsaid1N+vXI+Wi+s+61vqnRPIraBXjBF+E0XU1sly1NYNqvJ2b3x70F7kSkUCCgCAgCPgIkP69ChwHI3gtVIOPbF0E710TwWPanlGioYK/RoIv1C3Bu0ZneQiep3GVijp0nPW0szO5Bw2vDOOTGZbePMG7rDf0geprqTU+dFVK+oKAIHCHECD9cZUi7b3RzQ/+w2+rr/7O76MMrr+yGq9/TxX0ZO3F99VvP/x1FQnpNdXqz/+lusJMeTSz199T33z8G+qP+VOvoZZ//q/UE/7MdX9xrl4tVko9fKyePX2C/gA4f/9yodYs7ONnz9WTB8Ek+/d/95vq178dyUmhiV79m3/Ac8pOgyWt1OVrdbZYqvUlPsV5WvXw8+r58939Ei5fn6vFpyt1iek8fOe5ehpxCojk6Phxpn73Hz5T3/7vjlfFqup8+x+pR8uPVLv2O+r3f5AMU+5M1e99673kC3qSwJhehNfLC3V+jhggCJdYA/fu3VcPHz5Uj588yvbPCNO9vHdPPf78M4XB1R988776Z5HqKarRqqu+5mhkr89eqaUGHuPfw/nyzz9+oh6F9RyTMOfPS/XH//pr6pv/zgESpVCoqfn436rn9FuugoAgIAhkIHCjc/BpJnqU1x8RFio98KfjVw4TvRnB48irFDOt4nwlWVbXk3ZidEkjoXErmAen/FzX9mQF60krlkYZur1WbORfgf/1v9tQQNkLhYL/T6fn57UeQzkskysP/1m57c+xrqcpafAu2HoGnXrU1G/T9aDRHSXma1fjeBkqMF7MoFUpxsqmoNzoG/x4tq77Dcpr87b1UKz3g7qjSJsJVAwGBSiWylCrN6E3DuzOeTGehCP+xbgH1ZLnzJvkKdXaMEtYCFbQj02T6PClajVWn7osSRP9tN+CUmKuPih3oViGdn9KJd7tin4mRYMPppeSR2tMLXu35CW0ICAIvHkIkC68SskPaqInweoDnKPejKPKTytCTvDxuVPzDiBrXnxbB0PLoE3orjRIPnPFPP86bf4cpwEiypsrcrrH+Ho23pUXn8dfT7sOIgoIxsii0yzWYcrIzZVuJDzJEV6LOc3B45bLj6IMk7ijpG5hqyUsV64X7nIn5AsxWg6TzoyJsFSeQh3sTP8K2mUHVhQ2ceUEv8C4hcwOBclQrA92/p5m3WSHrVQp+x1GSldfC9WYf8rOOUkEQUAQeFMQIN1xlfIeheCVwnna+Sg5AjYk7pg7Ne/cxEGEOWomR68ECF3zEnxtsEgnZ7RAbCf4YFWAi4hJXshjCeAkVQqsArpyXelSGd1Xx2oGRytxdpLKHTt638yh22pBq92GdvwfPm/3J37YPPJpjAEWUE8Z3WrLiass9WFgJVgOd3UEtAQ/aqS0lRRZ6r6sDsCcj5bQjHdSVQlGi4nD6a50Qn4LzsLIQ0FAEDgRBEgfXkWcIxE8jlo8L6m4DYlfneCnvQYUPTcplMplKJUq0J+vM8jRg3JZy1aFGSLoIimfnDdTaJRLidGYD75XwjRKUEGzuB7bpqaB79yj5SK0ByMYtKtJjJDs2+Ew3pVukH8Rik6SKuZYIraGbiWJX7HJnMGwc+PxTkf8PlySmCqfimLsd3Li8haqgDMp/t+8X0vg4PkrGXD0Hp/K8WXxoNaopcgYEvwyZj734xWhG2a6GLaSdbuDo+Zm1k3IrJfF6fbQc+BbPanVBwHu8r8gIAicHgInRvAFqLea20e7WsFeA8H71YHm/+QSvOiaYzf5FJH8wwoNrc6ucGb0jUEnDnN2M+ZGnp7GyjHKQwKnSWlM3zWaJrJ1pauKDRwP67851OKk6Zh/9oPG/hvUkyNbXmbA6YkEvpzkQyJ0yocyxDGOZL9ZwXw6gfF4DMNeB2oV13SBgkCeFPzCDtBm1nOQfEDwTu92lHu2mMN0OoX5bOgoY54OUlAal3Wg2gsalzPvUiu3j0QEL/khCAgCbxQCJ0bwClo4Kpp1tju/ZRI8Gz25iCNCQCkOfHx1uisNVe5aM3TYZFzheF4uAs6zTI4IqpUw49bY/DLg4DbuSEfk5rYMlNsTkvzKa8DHrmkO0/nC5F2bFHGCD8O6sHNhHAi8gmGnCZUtTnbUuFPx8/hmSUuH6T8keIdvBaWdfkUTO/OBCIF2XKbM+ZD5B5Qb0G61oVl1WK9UAXpBz8yRnjwSBAQBQSBAgPTTVfA4iIm+4e8sgnOSHlN2nBDo3pCIy0RPI1NNets2n3GMME3aASwu8qGRMQfOGY5tdHPtBF+ohSPwQIpdCb5pPLIdGOYcwc+6rqkBjxHQGmY4yp5OZ7DAOeV6vF4zCN6FMaArYnK+2rYVL2GJoE6Oo4yYt+3ILR072e1D8AosvryVRO+dI3Rq4xlXWgkSTU1+CQKCgCBgEThBgg9V7qLvMJlaRZ45gsd5W+18j+730K8lR0B8VA0uBzic/+SDr23ETXBuC+ca7e5rou/MrFf6pJ20fNAo3SWbtR44yC8nwQPWk14aSA3JXL0qOolFUIRRt5Gs0yyCZ52jLIz1crZmbwR+dstku6ERfLJjUACD32LgmBoiE32yk6jQO3+MHZfRaORPEehpgvF4ApMJ/ZvC0lYNiR+7bpw+DAZDF670DDt3NEMUS1R+CgKCgCDgI0C65CpwHGgEb8dU005y6RAJzAk+qbiRcApFKJeSDmA6foTgI+uziaiQMLpdaOI6bT1F6yLHSBohetvCucrjVXEtOJqbm71g/XRWGq65WlXANflDdLLruD3Es5zsroXgsRPVq7px9rHG9e7lUnKentejrvGscvPG6Q5HTn1LaDuc0oK6SpOzCA30+3D7CQQEr6cZkqsgStAPF9mvpj08w8Dz1/ZXcD19vdGAZqsL820E70yX2uD2q6yJ5y1D7gUBQSCOAOnZ+PM8vw9O8Kj2k5vY0AjGmNFdo89s5Rgl56z4ONeJWtpNKnYLWgJrWzjXdAFVAK1vzkxj12VyzE/Ale71EDyWHuVyE2R2Pfhlx6V82gHeJV+0ngKU00zaRVyJ4FHbiF3J1J+2KQ/VQfIaEjxmPah7SStFLJ9I/Eo3YgUKpI/+71r7rpeF6g7bcDg0/0ajPlQcUw/UZqKpyi9BQBAQBAIESCddBY8jEDyKtRy4FbcheB3EPXqlwukrNyNHiUMv9UonIr0nfm7y2TLfv5ll7NkeOnxty2s16UTKwssYufe2b3TDCT5pBcnvBa4bj/ZCT45y03HVslZbA+MNvq3cpoGucuwKGCfesBORNmUTwS0Sl2Mwh0bCyTGlfLg6Ybv5fAENLxk/cdBSWHD3ng3oyCcb25mmITeCgCAQRYB0W/Rpvl97E/zEsVVs06Gx5r3k2mbFPOW1uOOOK0wNhtNRYglYwkEJ16nXi24zs3aUcjmv0dw2hyprW1wKN+uldEbC8uRJA/C42U49Od/uVyZOTeTbqhadwAzWa+gkdmm7AnlsFrgevwElB3FRQyvguv9Guw/zGDHlxVjjuJ4PoeqqLyx7azCGXmLpHt8cZg2DZhK7Ur0L/VZ8Sih+GM4STwN0bWkbEjXmX28PmOMe1brj6lq9gZ2L+PHBFDO5lW+QZx5HPkpDroKAIPBmIUB69yql3vuwGcz8ev/oABFM9eHjd9RTfYLIDn8X52d4gMgaD13BA0TwwJLPP3685wEiKZnjASln4QEp9/Cwkod4SMzWw1FcSel0Fni4zWXw8p459MYV+LjPLvAAm+USD7AJsw3w3PdAlmgZzIEv+HjX+r58faZe/T88Fug+Hjbzjj5sJjgQKJpD2q9L9fr8XH263mBb0SXEOvTbmz4ZSf4EAUFAEDgNBPY5bOb0CP40MBUpBAFBQBAQBASBG0dACP7Gq0AEEAQEAUFAEBAErh8BIfjrx1RSFAQEAUFAEBAEbhyBGyN4yvjGERABBAFBQBAQBASBW4wAOtE5pSeeTXvvjBQ+3GsOnjLOykDeCQKCgCAgCAgCgkA2AmkETjyb9j4r1b0IPitheScICAKCgCAgCAgC+yEgBL8ffhJbEBAEBAFBQBA4SQSE4E+yWkQoQUAQEAQEAUFgPwROguBffvcP1H/5C6X+8b/4p+q9XHvTXKiXH/5YfZZS9vu/8Hn1zrPn6smt3nfkUr36eKp+ioV89/0P1NNbXZaUikp9rMs+US/PfuaHeOsXn6ov/+p76knGXjTnrz5WP3p5pn6u3lJfeP4l9ZUXT3H7mYw/3BTp4x/+SJ39DGO89QX1pV/5inqatdnNruEzsr7uV+cvP1af/O1n6u0vvq9eHKLRXyJWk0/UZ/ffVu9/8EIdsylevn6lJj/6qbr/9rvqA6xT/afr+hP8MN5+F8v7Zn0Y1910JL07jsA+BL/3VrU48Y9/6/Ds9wL07UFywau0//EULi+yZ3hyT2+sNyjVOpHz0tOSO8nn65EpY9r2pScp955CLcZdKDkOVlGqAPXuJJn6Cs+Yd50a6FVguHAf5zbp1p37+VdaQzwbL/m3a/hkCod8sjLn2Bfqw4NkZA/48WAY22L4IBmyREcNLzjkp9AItwBeQTNsH/uWdz5sQancMuchsGzlVhC4EwhoHtT/rvKXGWtrwvMeEpgH9U4PWuERn81ez1fWXq2fLQ+SX+7Ty8rBaWXZCZ7gW1ZGeyjMCcp5jSLF9+EvFEt41Gyo4MOGWu5wkp9HzxnAfe5LkT3qKzDhR9KjrIs+P7OggAq+FCH7+BkDu4a/RjhyJmVPQ4weopQzeo5gN0nw42YpIHhz9sT1dGjM4Ubs0KocUEgQQeBWIbCVhzNKsxfBz7vxgz34KJwfDuKQgJFffTCHzWYN67X+t4LVcgGzcfR4zVZcyzuSPLlHrIxvBsHjyMyc1uZBe2TPY1vPBlAOCV6pEkzCYfa8Vw2UP76rtOzxvZOuJfFi0z4HmEGV0ilUYLQME0IrQM2j9scP2dk1/E20osMTvD7cqI+d715vCATZsUpqCJ4R8Xw0gG63hwdJ5TX5JaU1BG86Dskw8kQQuO0I3BjBw3oJk/EQ6qG5zQuv1XYPRhMk7SxkI+SXYjOcd83IrNqbOVNbr5Ywn89gNpvDfLGEdWameGY5dh7msxnGWcByW2AswcJPO0h/tSVtwM6JL8t8jmmjuJuJsVLsSvAbXS6Uc6ZlXaTgE0NktZgH4bFsW2WNxbU/17A06WA5VrHhsw2YvMNpFzpuNj6K1oFXw4Yh89ZEl4l1CIqtxNnr/SqdDlgzR7euRk2TRnMckw0tSnSkcLUXdC52DZ8slPvJBtt+0O5msPAr2x1OP93eRrcT/NXbwzxnW9ixracXF0w7xO9R/01a4QieEXxGdP/VZoWd/C3tf0ltAdO9ejdhmyTyXhC4WQRujuB1uZdDKMfmW8tsJJYKTYTgUz7PzdgQJClsSm8x6kDZIwKgkVtwLTf6iTm5+bDtnBf2SnUYOeZ5Z4OWISsCWM8hV9vDBBEhCNBrxK0ZBajU7LO8BL9ZjKFR9gyJUd6FYhUGM070a2iXg/K2hmPoVJNxKs1BdieLwNTXzdw/vpYIkvL1rzgX3pvyvHlEdr/GUXTR80m2hUf0xv/4camNIdb52tZvpTONBwdrVlbQngZkbkaDqgLTRIdrGfqCIC7ljl9Pu4ZPCBF7sFmMsH6Kyfop4bHG82iHI38bTSf4/O0B4Zy0fbkK2Kbb9ZBUfWtHAf7zn/ynUGZu3QgKt1tbjwHCfi4nPagYK0rQNgulClTIqmMI3h5tXGqOWQp4u55Bq+rAt8jxXUG7FKQfaafYSUy2umjy8ksQuG0IUBu/itx7meh1hsaBBhXqdNQKlUgORx5G8ImRmF8SPPO7YZUUN9EvBnYk6Be+UIBCrJNRbFnFsRqTXKFSKAQkRMCpGFmM4mfcY/o2bEAeVpGsoVuJKpu4LDpuHoLfzLRPA08LyxX5jee/DxdhPbPRbywMl9VFnGEC7LKAhsfzVYhnrMxoVo8PmFkCuW7NSA79Ngaa36cBIQX4WERNYnjeOlkEAvw0MYRyGrIwof0bQ+j+qG7X8NG0Er+wM0vyBBjH66cIut+i/3Zro26C3609oD1kbK0bvA3ojul/6//7sA2jjAzq3dp6UDbX/5tpJ/qNJNoP1pupM9t2Iz4HWN92GkfXc/y7LkA7tPy0qNPA275J3yWhPBMEbicC9C1fRfq9CT4YvTZgMNfDqQ0MWg3oTkItlyURI3jdy69Vq1AN/1UqZSBzvy5csc5HopyMStBnc3i+9zZ98L6CDwQY1r1A+RSqMDKjrBUMW3aEXR8FMm9wWoAAVTjHa0bN6zm0K2E6mEdtEBDtkpmdVakBNNCdoXcvJ+ftBM9Gn5i+tRRsYNpvsrRo5GpJwZcX8x7PtebewHzUth2FHPOTy2HdlLmE1g8zR7teQJeNBLeXIb3C15OOLYNX91dGWPO5B33qt/AkWBsJ8rbE4NUGPKS55wSP3hzGJyBfeJOM42ZlOxdYP9pbP+DJDXB/gWBEumsbtXVpCW/X9hAneFyx0BnAqN+Gar0LZ4b8izAKCX7Xtu4AJXzEy4ud2X5ojdGj8TLrKBoCdpV3Az3WUa60BmY0HmnPhaDt6IwX9O15DZhvNjg9lzDppIssbwSBW4IA8dFVxL0Ggr9KthiHKW8qQNq1hk545g/NutTLr3ST8/JTmu8zxIambDLnFVERmIT0zRzNrSWoVHUHJTCvDmpE4qXISCeIZhWT8s2BGxy9kwIrG8cxymLes45i28iRj4CiTmVBatwTvNbXpWCyqGTeo0Zo5jRKlaRKXsfGYlFBF7b439X9CCil+Eg0mH/nI/gUiw9rIwF+dkTupSwnixL8ruFJYscVZaHRe7KzsIEOtTGN985t1NYlEfzu7SFK8KXWJFIIO7q3BL9bW48kF/mxmdnRe9L3gq2SMG0xWV5cGmE6pYQBz2RtOihoxQqnf0yZzLfOY8i9IHA3ECBevEppToLgC6WyGb37o3gcwRdj8+vVbnKOVhd4g45t2ilMO/t12w2cl9emPfxnlAnAuMnn9HBZVbUOnf4I5maoStDxURNaB8ZjGA1HMPT/DWE0xvlXSr9QQzJkI0QX4bA55m0Eby0BgfmaJLLXmVlO5jW0V7lVkgXHksRpJ7ROMBxsWll3G3RE1A5+Exj2u9Co2mmSbWVwpbqedo3i1vXC69HOyUfNxiadBMHbudcAAxPS3EQJftfwJpnEDc1va7NxZ5YcKWqnsMVy5fR52N5GbV0Sue3eHjjBJ2U0ZKiI4Hdt6wlIzAOetp56if9NqANp2mKyvNzfotjsw3hE3x1eR/gd9qyViRxuTb4m3XjO8lsQuP0I3HqCd8/Bo/F/0jWjJhUZpa5g0K5DMTbvTkDECR5wCZVZWqXJn/0rFMvQIpMiI00exn2vR52WdAtOk7FVZNvIcdIuh3KlkB2TLSABm7ZrxL8mv4Ocym+Fy9jqDucxXvZtZYh/SrN+1FeCk7sOu5eJHqdtXH+G4P1RHe+A5QnvSjF4ZsgEfRFGUV+6lEi7tFFWl37nDT3Pd24PnOCTMlr5ieBtnryO3fcpFpaw5Hapo3ujKzP6Nm3R5k0dGitf9Pt0yUPWGxPHpJtSFfJYELjFCNA3cJUinMQIPos4TO8fR05df+SEozJytOJE7RWhUq8br3s+gg+AWcFYz0emkFjFtxBYxaNBLZXLUE75V0Sv6THOMVapk1F1EYhNL6uMWr5Zl9aDX4HgQ1LgDWAX5bcKva+pIQXXAhRLVWhccQ5+2KQOS6Cwm3yahQRly+oaNDFM7/Q18j4YGm6beuDvdQz+m/mWmVz4e8fg04QzeGqCdyVkQuqbXduobSdEeLu3B07wROJWKCs/vbN55mvrNq343czsZZBG8KGTqyFimzeV18qnrW+4OVLKd1cuFaEabpRk4ph045LJb0Hg9iNAevkqJTl5grejA1wqhZvdmI9ak7te4jZbRNa+z2jkwz56bSJd4JpaY5HfrGA2GUKrzkjID29HfIVq2k58KMOKTLE2vOccUU6N5WAbwdtypZvoqTMRN9GTkuQNwKTHcODv7b1Vtroh1bsjWETWvk+Nz8O2MlCaQ9q5zO+AFaE3SxnyMi/5smOZ3HJAZlmLiZ1uIWdDylVfF1D3gg4FjfJ2Dc9T4/fW2kAdTf4WyXXag1qlCvVmB/7qfzBv9lxt1NYB1aWpv3DFQTQ3/ct2Lmm6wsYhErexku9s283X1m1a8Tubtq0nHmZGG2KZtugoL61px458z+VwiQmu8btbsb0rTL6yPI7DLfd3DIFbT/BpJnqtxEhhq3Du0HzUTsWH3ry0fMY43tidzLz4mltsCMbRCJXPEmdQe8ZpzoNwrxTWXKxi8qcMUNnY8EmzqJ1H3b5Mzs5Ho+XAISd3sqv7HvxWFiIFJqjtCBmlyt/ye6vok85j0eVeze1DV2aJ0COxWmKbWZ6zHum2jHMa7VNOIayDnEJ/B3KO5Ese/bX0FByvG7bsLnBE1KNau0QyT3iWXPSWWROo88AD9E27qcJHxiHMRXiuNpqsy93bw64jeN5287R1XtrovfbGpxUjyba7tH4rpi0my7uZ2TRcHQ4z5YSdxlI7cCC0ugA7e1GR5JcgcGcQuPUEX252YTgYwID+9fu+w1zkwJJSsB89d8bRG+qQu9MG58P5Mja9HWqwbpsRBXYK2sOZiaM35jD74ZeCjVH42mxN4mYZ3mYJfbYu32sEh4KY3bT0aLVYh0loJliMOxHnsu2jX+70hM5onVG4oc4GZgO+TK4cliupJHmLNsrPKFX+lt/zfHHrV7PpD+YbW+pXYnsL8BTMPXMq1I2y3MZlWkNWr2H99vsDoD17eMfFq3XDHclwDwRm4o+O7tErW2Pt/yuaJZnrOd8Kl4/udw1vShO7wf0O2NSQrZ81TJgDmPaH2L2NuuqS10ue9rArwfNVDBrP7W09Bgj7ibJSxxrrpYYHCvnf5QaXWfINmExbdJUXv1Pq7Om2w5ZrLqd9+51iR5/2GjBtHMM3+uOtOwoygeVWELg1CNxagqdlR1SA9CsuWaMJUjTrGlLWSh43rSni7mnJuHZtNVcEyXABWbTCdfC61ge0xEyn7/wXnYcd0Dp7Z9ggje0EjyPQWXyjm2T+DcdGN/uN4HGeOmJSV+AVi5HOCWHgGuHzr2TaYVMeGVjo9OzpeosIOfibm0Ti6tUK0b9IpwrDFjxaqhjgRV7WFGvX8BQvcV0MmNNnsm60lcnfRGbnNmqtKLwud2sPUYLnm9nocthvIOrjsWtbT2BCDxAbL1JvDnyQ4IPP2F1e3B1oC744emedTN6RCtpocmqCxJOrIHBbESD9exX5b3AO3m5TSgWIXgtINGVotPtg9qYJS7jCHn18S0wdVx8tO2W9fTLT6mjzod7a1qV0ytAdU+/BQqg3l3F1QIrVphml29BrGLZrxkxJ5ag02+YYVFq7a+Ok3C3Tt6rtRTYQslvVJs2iWqGHpmkzVZGSn/94Bf2m3fSH5FeFEnRGU7ujIDOVu1IzS/O2KXp8H93Kdgndml2OR/l7labZOCie3xItJJGOnp+nB02zIiIaY9fw0djsF67IcG0lrGUl640OvVsbtcv5OIH5ueZuDzgiN86SyemiyLuYk+BubZ1hEbtdz4e4VXG0s6U3i2rjihe/Ts1cuW67QbhE211NoVnhy1rDb7ZQhGYvtAyYfJe4RTMPG+28mGByIwjcYgRIH16lCJ/TkTAB599eB807U7zeh+dnr9RqfanUvYfqnWdP1aN729N/fX6mPl2t1aW6px4+fkc9ffIgI9KlOnv1SuksMBP1+J1n6klWJpev1dliieE36t7jX1bPM9POyBZfXaCc6Ozm57tdzuy0cr+9OFevFivERoXYPMod9ToC+mVefqrU/fuY/7MtdaNzvFBnLxcKY6j72AaePX+qsmpz9/DppbL1o7FKl/UqbdSVq80vT7t1pbDt2Y5tPSM5/Y3hIUUKvwL1yy+eb6kTd0KXr8/Uq6Vu//jl3XuMdfsEU3P/XV68Rj2wUfcfPlaPHqSFcseVp4LAqSOwDw/faoI/9YoR+QQBQUAQEAQEgX0QEILfBz2JKwgIAoKAICAInCgCQvAnWjEiliAgCAgCgoAgsA8CQvD7oCdxBQFBQBAQBASBE0VACP5EK0bEEgQEAUFAEBAE9kFACH4f9CSuICAICAKCgCBwoggIwZ9oxYhYgoAgIAgIAoLAPggIwe+DnsQVBAQBQUAQEAROFAEh+BOtGBFLEBAEBAFBQBDYBwEh+H3Qk7iCgCAgCAgCgsCJIiAEf6IVI2IJAoKAICAICAL7IHBwgt9HOIkrCAgCgoAgIAgIAvshkHFsTGrCufaiT40tLwQBQUAQEAQEAUHg4AhcO8EfXGLJQBAQBAQBQUAQEAQOgkDmCP4gOUqigoAgIAgIAoKAIHBwBITgDw6xZCAICAKCgCAgCBwfASH442MuOQoCgoAgIAgIAgdHQAj+4BBLBoKAICAICAKCwPEREII/PuaSoyAgCAgCgoAgcHAEhOAPDrFkIAgIAoKAICAIHB8BIfjjYy45CgKCgCAgCAgCB0dACP7gEEsGgoAgIAgIAoLA8REQgj8+5pKjICAICAKCgCBwcASE4A8OsWQgCAgCgoAgIAgcHwEh+ONjLjkKAoKAICAICAIHR0AI/uAQSwaCgCAgCAgCgsDxERCCPz7mkqMgIAgIAoKAIHBwBITgDw6xZCAICAKCgCAgCBwfASH442MuOQoCgoAgIAgIAgdHQAj+4BBLBoKAICAICAKCwPEREII/PuaSoyAgCAgCgoAgcHAEhOAPDrFkIAgIAoKAICAIHB8BIfjjYy45CgKCgCAgCAgCB0dACP7gEEsGgoAgIAgIAoLA8REQgj8+5pKjICAICAKCgCBwcASE4A8OsWQgCAgCgoAgIAgcHwEh+ONjLjkKAoKAICAICAIHR+D/A2C5gJyWiMNMAAAAAElFTkSuQmCC;" vertex="1" parent="1">
                    <mxGeometry x="277.89" y="130" width="194.23" height="250" as="geometry"/>
                </mxCell>
                <mxCell id="54" value="" style="shape=image;imageAspect=0;aspect=fixed;verticalLabelPosition=bottom;verticalAlign=top;strokeColor=#F0F0F0;image=data:image/svg+xml,PHN2ZyB4bWxucz0iaHR0cDovL3d3dy53My5vcmcvMjAwMC9zdmciIHhtbG5zOnhsaW5rPSJodHRwOi8vd3d3LnczLm9yZy8xOTk5L3hsaW5rIiB2ZXJzaW9uPSIxLjEiIGlkPSJDYXBhXzEiIHg9IjBweCIgeT0iMHB4IiB2aWV3Qm94PSIwIDAgNDYzIDQ2MyIgc3R5bGU9ImVuYWJsZS1iYWNrZ3JvdW5kOm5ldyAwIDAgNDYzIDQ2MzsiIHhtbDpzcGFjZT0icHJlc2VydmUiPiYjeGE7PHBhdGggZD0iTTM0MywyMjMuNWMwLTQyLjg1NS0xMC40NDgtODguNDE5LTI5LjQxOS0xMjguMjk4Yy0xOS42NjUtNDEuMzM3LTQ2LjY0Ni03My44NDUtNzguMDI2LTk0LjAxMSAgYy0yLjQ3LTEuNTg3LTUuNjQtMS41ODctOC4xMDksMGMtMzEuMzgsMjAuMTY2LTU4LjM2MSw1Mi42NzQtNzguMDI1LDk0LjAxMUMxMzAuNDQ4LDEzNS4wODEsMTIwLDE4MC42NDUsMTIwLDIyMy41ICBjMCw3OS4xNDYsMzUuMDAyLDE0Mi4zNzgsMTA0LDE4OC4wMzNWNDU1LjVjMCw0LjE0MiwzLjM1OCw3LjUsNy41LDcuNXM3LjUtMy4zNTgsNy41LTcuNXYtNDMuOTY3ICBDMzA3Ljk5NywzNjUuODc5LDM0MywzMDIuNjQ2LDM0MywyMjMuNXogTTEzNSwyMjMuNWMwLTExLjY3NCwwLjgyMi0yMy41NjMsMi40MTYtMzUuNDc4TDIyNCwyNzQuNjA2djUwLjc4N2wtODguNjIzLTg4LjYyNCAgQzEzNS4xMzYsMjMyLjM5NiwxMzUsMjI3Ljk3NywxMzUsMjIzLjV6IE0xNTEuMzQ0LDEyOS45NUwyMjQsMjAyLjYwNnY1MC43ODdsLTgzLjU1Ni04My41NTYgIEMxNDMuMTMsMTU2LjM2LDE0Ni43ODYsMTQyLjk3NCwxNTEuMzQ0LDEyOS45NXogTTI5Mi44MjUsODcuNThjLTAuMDQyLDAuMDQtMC4wODcsMC4wNzUtMC4xMjksMC4xMTZMMjM5LDE0MS4zOTNWOTAuNjA2ICBsMzMuODE1LTMzLjgxNUMyODAuMDM5LDY2LjIzMywyODYuNzUzLDc2LjU0OCwyOTIuODI1LDg3LjU4eiBNMzI2LjcwNSwxOTcuNjg4TDIzOSwyODUuMzkzdi01MC43ODdsODAuMDc4LTgwLjA3OCAgQzMyMi43MjIsMTY4LjgwNiwzMjUuMjg5LDE4My4zMDMsMzI2LjcwNSwxOTcuNjg4eiBNMjM5LDMwNi42MDZsODguOTI2LTg4LjkyNWMwLjA0NSwxLjk0NCwwLjA3NCwzLjg4NSwwLjA3NCw1LjgxOSAgYzAsMTcuNjYxLTEuODksMzQuNTIyLTUuNjE0LDUwLjUwOEwyMzksMzU3LjM5M1YzMDYuNjA2eiBNMzE0LjM2MSwxMzguMDQ4Yy0wLjA1NCwwLjA1MS0wLjExMiwwLjA5Ni0wLjE2NSwwLjE0OUwyMzksMjEzLjM5MyAgdi01MC43ODdsNjEuMDExLTYxLjAxMWMwLjAwOCwwLjAxNywwLjAxNiwwLjAzMywwLjAyNCwwLjA1QzMwNS42MDEsMTEzLjM0NiwzMTAuMzkzLDEyNS41NTksMzE0LjM2MSwxMzguMDQ4eiBNMjYzLjI1NCw0NS4xMzkgIEwyMzksNjkuMzkzVjIyLjA0N0MyNDcuNDUzLDI4LjY4MSwyNTUuNTgxLDM2LjQzNiwyNjMuMjU0LDQ1LjEzOXogTTIyNCwyMi4wNDd2ODcuMzQ2bC00MS42NzktNDEuNjc5ICBDMTk0LjY1MSw0OS41MTYsMjA4LjgwMiwzMy45NzUsMjI0LDIyLjA0N3ogTTE3NC4wOTgsODAuNzA0TDIyNCwxMzAuNjA2djUwLjc4N2wtNjYuNzkxLTY2Ljc5MSAgYzEuODE3LTQuMzc4LDMuNzMzLTguNzAzLDUuNzU3LTEyLjk1N0MxNjYuNDEzLDk0LjM5NywxNzAuMTM4LDg3LjQwNywxNzQuMDk4LDgwLjcwNHogTTE2Mi42MiwzMjguNzExICBjLTEyLjM3MS0yMC41NzYtMjAuNjA4LTQzLjQtMjQuNjY3LTY4LjE1MkwyMjQsMzQ2LjYwNnY0Ni43MzNDMTk3LjgxLDM3NC42MjYsMTc3LjE4NywzNTIuOTQsMTYyLjYyLDMyOC43MTF6IE0yMzksMzkzLjMzOXYtMTQuNzMzICBsNzMuMjQxLTczLjI0Yy0zLjQwOCw4LjA2OC03LjM1OSwxNS44NTctMTEuODYxLDIzLjM0NUMyODUuODEzLDM1Mi45NCwyNjUuMTksMzc0LjYyNywyMzksMzkzLjMzOXoiLz4mI3hhOzxnPiYjeGE7PC9nPiYjeGE7PGc+JiN4YTs8L2c+JiN4YTs8Zz4mI3hhOzwvZz4mI3hhOzxnPiYjeGE7PC9nPiYjeGE7PGc+JiN4YTs8L2c+JiN4YTs8Zz4mI3hhOzwvZz4mI3hhOzxnPiYjeGE7PC9nPiYjeGE7PGc+JiN4YTs8L2c+JiN4YTs8Zz4mI3hhOzwvZz4mI3hhOzxnPiYjeGE7PC9nPiYjeGE7PGc+JiN4YTs8L2c+JiN4YTs8Zz4mI3hhOzwvZz4mI3hhOzxnPiYjeGE7PC9nPiYjeGE7PGc+JiN4YTs8L2c+JiN4YTs8Zz4mI3hhOzwvZz4mI3hhOzwvc3ZnPg==;fillColor=#FFFFFF;" vertex="1" parent="1">
                    <mxGeometry x="30" y="30" width="40" height="40" as="geometry"/>
                </mxCell>
                <mxCell id="56" value="Color Scheme" style="text;strokeColor=none;fillColor=none;html=1;fontSize=24;fontStyle=1;verticalAlign=middle;align=center;" vertex="1" parent="1">
                    <mxGeometry x="364" y="470" width="100" height="40" as="geometry"/>
                </mxCell>
                <mxCell id="57" value="&lt;ul&gt;&lt;li&gt;Bear Creek #827E7A&lt;/li&gt;&lt;li&gt;Pine #30400B&lt;/li&gt;&lt;li&gt;Sable #3C4043&lt;/li&gt;&lt;li&gt;Banksia #F0DECF&lt;/li&gt;&lt;/ul&gt;&lt;div&gt;All text should be Sable, but idk how to do that in here.&lt;/div&gt;" style="text;strokeColor=none;fillColor=none;html=1;whiteSpace=wrap;verticalAlign=middle;overflow=hidden;" vertex="1" parent="1">
                    <mxGeometry x="320" y="489" width="200" height="125" as="geometry"/>
                </mxCell>
                <mxCell id="58" value="" style="shape=ext;double=1;rounded=0;whiteSpace=wrap;html=1;fontSize=12;" vertex="1" parent="1">
                    <mxGeometry x="620" y="130" width="80" height="60" as="geometry"/>
                </mxCell>
                <mxCell id="59" value="" style="shape=ext;double=1;rounded=0;whiteSpace=wrap;html=1;fontSize=12;" vertex="1" parent="1">
                    <mxGeometry x="520" y="210" width="80" height="60" as="geometry"/>
                </mxCell>
                <mxCell id="60" value="" style="shape=ext;double=1;rounded=0;whiteSpace=wrap;html=1;fontSize=12;" vertex="1" parent="1">
                    <mxGeometry x="620" y="210" width="80" height="60" as="geometry"/>
                </mxCell>
                <mxCell id="61" value="" style="shape=ext;double=1;rounded=0;whiteSpace=wrap;html=1;fontSize=12;" vertex="1" parent="1">
                    <mxGeometry x="520" y="285" width="80" height="60" as="geometry"/>
                </mxCell>
                <mxCell id="62" value="" style="shape=ext;double=1;rounded=0;whiteSpace=wrap;html=1;fontSize=12;" vertex="1" parent="1">
                    <mxGeometry x="620" y="284" width="80" height="60" as="geometry"/>
                </mxCell>
                <mxCell id="63" value="" style="shape=ext;double=1;rounded=0;whiteSpace=wrap;html=1;strokeColor=#F0F0F0;fillColor=#827e7a;" vertex="1" parent="1">
                    <mxGeometry x="490" y="360" width="230" height="40" as="geometry"/>
                </mxCell>
                <mxCell id="64" value="&lt;font style=&quot;font-size: 18px&quot; face=&quot;Tahoma&quot;&gt;Save Recipes&lt;/font&gt;" style="text;strokeColor=none;fillColor=none;html=1;fontSize=24;fontStyle=1;verticalAlign=middle;align=center;" vertex="1" parent="1">
                    <mxGeometry x="570" y="360" width="100" height="40" as="geometry"/>
                </mxCell>
                <mxCell id="67" value="" style="line;strokeWidth=2;html=1;fillColor=#827e7a;" vertex="1" parent="1">
                    <mxGeometry x="25" y="155" width="160" height="10" as="geometry"/>
                </mxCell>
                <mxCell id="68" value="" style="line;strokeWidth=2;html=1;fillColor=#827e7a;" vertex="1" parent="1">
                    <mxGeometry x="25" y="250" width="160" height="10" as="geometry"/>
                </mxCell>
                <mxCell id="69" value="" style="pointerEvents=1;shadow=0;dashed=0;html=1;strokeColor=none;fillColor=#505050;labelPosition=center;verticalLabelPosition=bottom;verticalAlign=top;outlineConnect=0;align=center;shape=mxgraph.office.concepts.search;" vertex="1" parent="1">
                    <mxGeometry x="195" y="140" width="20" height="15" as="geometry"/>
                </mxCell>
                <mxCell id="70" value="" style="pointerEvents=1;shadow=0;dashed=0;html=1;strokeColor=none;fillColor=#505050;labelPosition=center;verticalLabelPosition=bottom;verticalAlign=top;outlineConnect=0;align=center;shape=mxgraph.office.concepts.search;" vertex="1" parent="1">
                    <mxGeometry x="195" y="235" width="20" height="15" as="geometry"/>
                </mxCell>
                <mxCell id="71" value="" style="pointerEvents=1;shadow=0;dashed=0;html=1;strokeColor=none;fillColor=#505050;labelPosition=center;verticalLabelPosition=bottom;verticalAlign=top;outlineConnect=0;align=center;shape=mxgraph.office.concepts.search;" vertex="1" parent="1">
                    <mxGeometry x="230" y="565" width="30" height="30" as="geometry"/>
                </mxCell>
                <mxCell id="73" value="&lt;h1&gt;App Capabilities&lt;/h1&gt;&lt;p&gt;A user searches for a specific food and they can either pull up the nutrition info or they can search for various types of recipes. If they find a seach that they like, they can save the recipes to localstorage and the search term will be appended in the Recent History container.&amp;nbsp;&lt;/p&gt;" style="text;html=1;strokeColor=none;fillColor=none;spacing=5;spacingTop=-20;whiteSpace=wrap;overflow=hidden;rounded=0;" vertex="1" parent="1">
                    <mxGeometry x="320" y="630" width="390" height="130" as="geometry"/>
                </mxCell>
                <mxCell id="74" value="&lt;h1&gt;Fonts&lt;/h1&gt;&lt;p&gt;Huge fan of Lato&lt;/p&gt;&lt;p&gt;&lt;br&gt;&lt;/p&gt;" style="text;html=1;strokeColor=none;fillColor=none;spacing=5;spacingTop=-20;whiteSpace=wrap;overflow=hidden;rounded=0;" vertex="1" parent="1">
                    <mxGeometry x="550" y="470" width="230" height="130" as="geometry"/>
                </mxCell>
                <mxCell id="76" value="" style="rounded=0;whiteSpace=wrap;html=1;strokeColor=#F0F0F0;fillColor=#827E7a;" vertex="1" parent="1">
                    <mxGeometry x="45" y="270" width="200" height="110" as="geometry"/>
                </mxCell>
                <UserObject label="&lt;font style=&quot;font-size: 14px&quot;&gt;Recent History&lt;/font&gt;" placeholders="1" name="Variable" id="77">
                    <mxCell style="text;html=1;strokeColor=none;fillColor=#3c4043;align=center;verticalAlign=middle;whiteSpace=wrap;overflow=hidden;rotation=-90;" vertex="1" parent="1">
                        <mxGeometry x="-30" y="315" width="110" height="20" as="geometry"/>
                    </mxCell>
                </UserObject>
                <mxCell id="79" value="" style="shape=ext;double=1;rounded=1;whiteSpace=wrap;html=1;strokeColor=#F0F0F0;fillColor=#f0decf;arcSize=0;" vertex="1" parent="1">
                    <mxGeometry x="32.5" y="700" width="240" height="250" as="geometry"/>
                </mxCell>
                <mxCell id="80" value="Recent History" style="text;strokeColor=none;fillColor=none;html=1;fontSize=24;fontStyle=1;verticalAlign=middle;align=center;" vertex="1" parent="1">
                    <mxGeometry x="70" y="650" width="100" height="40" as="geometry"/>
                </mxCell>
            </root>
        </mxGraphModel>
    </diagram>
</mxfile>